G04 #@! TF.GenerationSoftware,KiCad,Pcbnew,(5.1.5)-3*
G04 #@! TF.CreationDate,2020-06-11T09:31:08-05:00*
G04 #@! TF.ProjectId,Li-ion 5A Boost 1A Charge Protect,4c692d69-6f6e-4203-9541-20426f6f7374,rev?*
G04 #@! TF.SameCoordinates,Original*
G04 #@! TF.FileFunction,Soldermask,Top*
G04 #@! TF.FilePolarity,Negative*
%FSLAX46Y46*%
G04 Gerber Fmt 4.6, Leading zero omitted, Abs format (unit mm)*
G04 Created by KiCad (PCBNEW (5.1.5)-3) date 2020-06-11 09:31:08*
%MOMM*%
%LPD*%
G04 APERTURE LIST*
%ADD10C,0.100000*%
G04 APERTURE END LIST*
D10*
G36*
X171501600Y-89706600D02*
G01*
X168298400Y-89706600D01*
X168298400Y-84503400D01*
X171501600Y-84503400D01*
X171501600Y-89706600D01*
G37*
G36*
X163351600Y-89706600D02*
G01*
X160148400Y-89706600D01*
X160148400Y-84503400D01*
X163351600Y-84503400D01*
X163351600Y-89706600D01*
G37*
G36*
X152732424Y-88287465D02*
G01*
X152770117Y-88298899D01*
X152804853Y-88317466D01*
X152835298Y-88342452D01*
X152860284Y-88372897D01*
X152878851Y-88407633D01*
X152890285Y-88445326D01*
X152894750Y-88490661D01*
X152894750Y-89327339D01*
X152890285Y-89372674D01*
X152878851Y-89410367D01*
X152860284Y-89445103D01*
X152835298Y-89475548D01*
X152804853Y-89500534D01*
X152770117Y-89519101D01*
X152732424Y-89530535D01*
X152687089Y-89535000D01*
X151600411Y-89535000D01*
X151555076Y-89530535D01*
X151517383Y-89519101D01*
X151482647Y-89500534D01*
X151452202Y-89475548D01*
X151427216Y-89445103D01*
X151408649Y-89410367D01*
X151397215Y-89372674D01*
X151392750Y-89327339D01*
X151392750Y-88490661D01*
X151397215Y-88445326D01*
X151408649Y-88407633D01*
X151427216Y-88372897D01*
X151452202Y-88342452D01*
X151482647Y-88317466D01*
X151517383Y-88298899D01*
X151555076Y-88287465D01*
X151600411Y-88283000D01*
X152687089Y-88283000D01*
X152732424Y-88287465D01*
G37*
G36*
X156015674Y-88287465D02*
G01*
X156053367Y-88298899D01*
X156088103Y-88317466D01*
X156118548Y-88342452D01*
X156143534Y-88372897D01*
X156162101Y-88407633D01*
X156173535Y-88445326D01*
X156178000Y-88490661D01*
X156178000Y-89327339D01*
X156173535Y-89372674D01*
X156162101Y-89410367D01*
X156143534Y-89445103D01*
X156118548Y-89475548D01*
X156088103Y-89500534D01*
X156053367Y-89519101D01*
X156015674Y-89530535D01*
X155970339Y-89535000D01*
X154883661Y-89535000D01*
X154838326Y-89530535D01*
X154800633Y-89519101D01*
X154765897Y-89500534D01*
X154735452Y-89475548D01*
X154710466Y-89445103D01*
X154691899Y-89410367D01*
X154680465Y-89372674D01*
X154676000Y-89327339D01*
X154676000Y-88490661D01*
X154680465Y-88445326D01*
X154691899Y-88407633D01*
X154710466Y-88372897D01*
X154735452Y-88342452D01*
X154765897Y-88317466D01*
X154800633Y-88298899D01*
X154838326Y-88287465D01*
X154883661Y-88283000D01*
X155970339Y-88283000D01*
X156015674Y-88287465D01*
G37*
G36*
X149449174Y-88287465D02*
G01*
X149486867Y-88298899D01*
X149521603Y-88317466D01*
X149552048Y-88342452D01*
X149577034Y-88372897D01*
X149595601Y-88407633D01*
X149607035Y-88445326D01*
X149611500Y-88490661D01*
X149611500Y-89327339D01*
X149607035Y-89372674D01*
X149595601Y-89410367D01*
X149577034Y-89445103D01*
X149552048Y-89475548D01*
X149521603Y-89500534D01*
X149486867Y-89519101D01*
X149449174Y-89530535D01*
X149403839Y-89535000D01*
X148317161Y-89535000D01*
X148271826Y-89530535D01*
X148234133Y-89519101D01*
X148199397Y-89500534D01*
X148168952Y-89475548D01*
X148143966Y-89445103D01*
X148125399Y-89410367D01*
X148113965Y-89372674D01*
X148109500Y-89327339D01*
X148109500Y-88490661D01*
X148113965Y-88445326D01*
X148125399Y-88407633D01*
X148143966Y-88372897D01*
X148168952Y-88342452D01*
X148199397Y-88317466D01*
X148234133Y-88298899D01*
X148271826Y-88287465D01*
X148317161Y-88283000D01*
X149403839Y-88283000D01*
X149449174Y-88287465D01*
G37*
G36*
X124310674Y-87853465D02*
G01*
X124348367Y-87864899D01*
X124383103Y-87883466D01*
X124413548Y-87908452D01*
X124438534Y-87938897D01*
X124457101Y-87973633D01*
X124468535Y-88011326D01*
X124473000Y-88056661D01*
X124473000Y-89143339D01*
X124468535Y-89188674D01*
X124457101Y-89226367D01*
X124438534Y-89261103D01*
X124413548Y-89291548D01*
X124383103Y-89316534D01*
X124348367Y-89335101D01*
X124310674Y-89346535D01*
X124265339Y-89351000D01*
X123428661Y-89351000D01*
X123383326Y-89346535D01*
X123345633Y-89335101D01*
X123310897Y-89316534D01*
X123280452Y-89291548D01*
X123255466Y-89261103D01*
X123236899Y-89226367D01*
X123225465Y-89188674D01*
X123221000Y-89143339D01*
X123221000Y-88056661D01*
X123225465Y-88011326D01*
X123236899Y-87973633D01*
X123255466Y-87938897D01*
X123280452Y-87908452D01*
X123310897Y-87883466D01*
X123345633Y-87864899D01*
X123383326Y-87853465D01*
X123428661Y-87849000D01*
X124265339Y-87849000D01*
X124310674Y-87853465D01*
G37*
G36*
X122260674Y-87853465D02*
G01*
X122298367Y-87864899D01*
X122333103Y-87883466D01*
X122363548Y-87908452D01*
X122388534Y-87938897D01*
X122407101Y-87973633D01*
X122418535Y-88011326D01*
X122423000Y-88056661D01*
X122423000Y-89143339D01*
X122418535Y-89188674D01*
X122407101Y-89226367D01*
X122388534Y-89261103D01*
X122363548Y-89291548D01*
X122333103Y-89316534D01*
X122298367Y-89335101D01*
X122260674Y-89346535D01*
X122215339Y-89351000D01*
X121378661Y-89351000D01*
X121333326Y-89346535D01*
X121295633Y-89335101D01*
X121260897Y-89316534D01*
X121230452Y-89291548D01*
X121205466Y-89261103D01*
X121186899Y-89226367D01*
X121175465Y-89188674D01*
X121171000Y-89143339D01*
X121171000Y-88056661D01*
X121175465Y-88011326D01*
X121186899Y-87973633D01*
X121205466Y-87938897D01*
X121230452Y-87908452D01*
X121260897Y-87883466D01*
X121295633Y-87864899D01*
X121333326Y-87853465D01*
X121378661Y-87849000D01*
X122215339Y-87849000D01*
X122260674Y-87853465D01*
G37*
G36*
X139661000Y-85158001D02*
G01*
X139663402Y-85182387D01*
X139670515Y-85205836D01*
X139682066Y-85227447D01*
X139697611Y-85246389D01*
X139716553Y-85261934D01*
X139738164Y-85273485D01*
X139761613Y-85280598D01*
X139785999Y-85283000D01*
X142414001Y-85283000D01*
X142438387Y-85280598D01*
X142461836Y-85273485D01*
X142483447Y-85261934D01*
X142502389Y-85246389D01*
X142517934Y-85227447D01*
X142529485Y-85205836D01*
X142536598Y-85182387D01*
X142539000Y-85158001D01*
X142539000Y-84728000D01*
X144611000Y-84728000D01*
X144611000Y-85430000D01*
X142415999Y-85430000D01*
X142391613Y-85432402D01*
X142368164Y-85439515D01*
X142346553Y-85451066D01*
X142327611Y-85466611D01*
X142312066Y-85485553D01*
X142300515Y-85507164D01*
X142293402Y-85530613D01*
X142291000Y-85554999D01*
X142291000Y-85873001D01*
X142293402Y-85897387D01*
X142300515Y-85920836D01*
X142312066Y-85942447D01*
X142327611Y-85961389D01*
X142346553Y-85976934D01*
X142368164Y-85988485D01*
X142391613Y-85995598D01*
X142415999Y-85998000D01*
X144611000Y-85998000D01*
X144611000Y-86700000D01*
X142415999Y-86700000D01*
X142391613Y-86702402D01*
X142368164Y-86709515D01*
X142346553Y-86721066D01*
X142327611Y-86736611D01*
X142312066Y-86755553D01*
X142300515Y-86777164D01*
X142293402Y-86800613D01*
X142291000Y-86824999D01*
X142291000Y-87143001D01*
X142293402Y-87167387D01*
X142300515Y-87190836D01*
X142312066Y-87212447D01*
X142327611Y-87231389D01*
X142346553Y-87246934D01*
X142368164Y-87258485D01*
X142391613Y-87265598D01*
X142415999Y-87268000D01*
X144611000Y-87268000D01*
X144611000Y-87970000D01*
X142415999Y-87970000D01*
X142391613Y-87972402D01*
X142368164Y-87979515D01*
X142346553Y-87991066D01*
X142327611Y-88006611D01*
X142312066Y-88025553D01*
X142300515Y-88047164D01*
X142293402Y-88070613D01*
X142291000Y-88094999D01*
X142291000Y-88413001D01*
X142293402Y-88437387D01*
X142300515Y-88460836D01*
X142312066Y-88482447D01*
X142327611Y-88501389D01*
X142346553Y-88516934D01*
X142368164Y-88528485D01*
X142391613Y-88535598D01*
X142415999Y-88538000D01*
X144611000Y-88538000D01*
X144611000Y-89240000D01*
X142539000Y-89240000D01*
X142539000Y-88809999D01*
X142536598Y-88785613D01*
X142529485Y-88762164D01*
X142517934Y-88740553D01*
X142502389Y-88721611D01*
X142483447Y-88706066D01*
X142461836Y-88694515D01*
X142438387Y-88687402D01*
X142414001Y-88685000D01*
X139785999Y-88685000D01*
X139761613Y-88687402D01*
X139738164Y-88694515D01*
X139716553Y-88706066D01*
X139697611Y-88721611D01*
X139682066Y-88740553D01*
X139670515Y-88762164D01*
X139663402Y-88785613D01*
X139661000Y-88809999D01*
X139661000Y-89240000D01*
X137589000Y-89240000D01*
X137589000Y-88538000D01*
X139784001Y-88538000D01*
X139808387Y-88535598D01*
X139831836Y-88528485D01*
X139853447Y-88516934D01*
X139872389Y-88501389D01*
X139887934Y-88482447D01*
X139899485Y-88460836D01*
X139906598Y-88437387D01*
X139909000Y-88413001D01*
X139909000Y-88094999D01*
X139906598Y-88070613D01*
X139899485Y-88047164D01*
X139887934Y-88025553D01*
X139872389Y-88006611D01*
X139853447Y-87991066D01*
X139831836Y-87979515D01*
X139808387Y-87972402D01*
X139784001Y-87970000D01*
X137589000Y-87970000D01*
X137589000Y-87268000D01*
X139784001Y-87268000D01*
X139808387Y-87265598D01*
X139831836Y-87258485D01*
X139853447Y-87246934D01*
X139872389Y-87231389D01*
X139887934Y-87212447D01*
X139899485Y-87190836D01*
X139906598Y-87167387D01*
X139909000Y-87143001D01*
X139909000Y-86824999D01*
X139906598Y-86800613D01*
X139899485Y-86777164D01*
X139887934Y-86755553D01*
X139872389Y-86736611D01*
X139853447Y-86721066D01*
X139831836Y-86709515D01*
X139808387Y-86702402D01*
X139784001Y-86700000D01*
X137589000Y-86700000D01*
X137589000Y-85998000D01*
X139784001Y-85998000D01*
X139808387Y-85995598D01*
X139831836Y-85988485D01*
X139853447Y-85976934D01*
X139872389Y-85961389D01*
X139887934Y-85942447D01*
X139899485Y-85920836D01*
X139906598Y-85897387D01*
X139909000Y-85873001D01*
X139909000Y-85554999D01*
X139906598Y-85530613D01*
X139899485Y-85507164D01*
X139887934Y-85485553D01*
X139872389Y-85466611D01*
X139853447Y-85451066D01*
X139831836Y-85439515D01*
X139808387Y-85432402D01*
X139784001Y-85430000D01*
X137589000Y-85430000D01*
X137589000Y-84728000D01*
X139661000Y-84728000D01*
X139661000Y-85158001D01*
G37*
G36*
X130933674Y-87387465D02*
G01*
X130971367Y-87398899D01*
X131006103Y-87417466D01*
X131036548Y-87442452D01*
X131061534Y-87472897D01*
X131080101Y-87507633D01*
X131091535Y-87545326D01*
X131096000Y-87590661D01*
X131096000Y-88427339D01*
X131091535Y-88472674D01*
X131080101Y-88510367D01*
X131061534Y-88545103D01*
X131036548Y-88575548D01*
X131006103Y-88600534D01*
X130971367Y-88619101D01*
X130933674Y-88630535D01*
X130888339Y-88635000D01*
X129801661Y-88635000D01*
X129756326Y-88630535D01*
X129718633Y-88619101D01*
X129683897Y-88600534D01*
X129653452Y-88575548D01*
X129628466Y-88545103D01*
X129609899Y-88510367D01*
X129598465Y-88472674D01*
X129594000Y-88427339D01*
X129594000Y-87590661D01*
X129598465Y-87545326D01*
X129609899Y-87507633D01*
X129628466Y-87472897D01*
X129653452Y-87442452D01*
X129683897Y-87417466D01*
X129718633Y-87398899D01*
X129756326Y-87387465D01*
X129801661Y-87383000D01*
X130888339Y-87383000D01*
X130933674Y-87387465D01*
G37*
G36*
X134200674Y-87387465D02*
G01*
X134238367Y-87398899D01*
X134273103Y-87417466D01*
X134303548Y-87442452D01*
X134328534Y-87472897D01*
X134347101Y-87507633D01*
X134358535Y-87545326D01*
X134363000Y-87590661D01*
X134363000Y-88427339D01*
X134358535Y-88472674D01*
X134347101Y-88510367D01*
X134328534Y-88545103D01*
X134303548Y-88575548D01*
X134273103Y-88600534D01*
X134238367Y-88619101D01*
X134200674Y-88630535D01*
X134155339Y-88635000D01*
X133068661Y-88635000D01*
X133023326Y-88630535D01*
X132985633Y-88619101D01*
X132950897Y-88600534D01*
X132920452Y-88575548D01*
X132895466Y-88545103D01*
X132876899Y-88510367D01*
X132865465Y-88472674D01*
X132861000Y-88427339D01*
X132861000Y-87590661D01*
X132865465Y-87545326D01*
X132876899Y-87507633D01*
X132895466Y-87472897D01*
X132920452Y-87442452D01*
X132950897Y-87417466D01*
X132985633Y-87398899D01*
X133023326Y-87387465D01*
X133068661Y-87383000D01*
X134155339Y-87383000D01*
X134200674Y-87387465D01*
G37*
G36*
X127666674Y-87387465D02*
G01*
X127704367Y-87398899D01*
X127739103Y-87417466D01*
X127769548Y-87442452D01*
X127794534Y-87472897D01*
X127813101Y-87507633D01*
X127824535Y-87545326D01*
X127829000Y-87590661D01*
X127829000Y-88427339D01*
X127824535Y-88472674D01*
X127813101Y-88510367D01*
X127794534Y-88545103D01*
X127769548Y-88575548D01*
X127739103Y-88600534D01*
X127704367Y-88619101D01*
X127666674Y-88630535D01*
X127621339Y-88635000D01*
X126534661Y-88635000D01*
X126489326Y-88630535D01*
X126451633Y-88619101D01*
X126416897Y-88600534D01*
X126386452Y-88575548D01*
X126361466Y-88545103D01*
X126342899Y-88510367D01*
X126331465Y-88472674D01*
X126327000Y-88427339D01*
X126327000Y-87590661D01*
X126331465Y-87545326D01*
X126342899Y-87507633D01*
X126361466Y-87472897D01*
X126386452Y-87442452D01*
X126416897Y-87417466D01*
X126451633Y-87398899D01*
X126489326Y-87387465D01*
X126534661Y-87383000D01*
X127621339Y-87383000D01*
X127666674Y-87387465D01*
G37*
G36*
X152732424Y-86237465D02*
G01*
X152770117Y-86248899D01*
X152804853Y-86267466D01*
X152835298Y-86292452D01*
X152860284Y-86322897D01*
X152878851Y-86357633D01*
X152890285Y-86395326D01*
X152894750Y-86440661D01*
X152894750Y-87277339D01*
X152890285Y-87322674D01*
X152878851Y-87360367D01*
X152860284Y-87395103D01*
X152835298Y-87425548D01*
X152804853Y-87450534D01*
X152770117Y-87469101D01*
X152732424Y-87480535D01*
X152687089Y-87485000D01*
X151600411Y-87485000D01*
X151555076Y-87480535D01*
X151517383Y-87469101D01*
X151482647Y-87450534D01*
X151452202Y-87425548D01*
X151427216Y-87395103D01*
X151408649Y-87360367D01*
X151397215Y-87322674D01*
X151392750Y-87277339D01*
X151392750Y-86440661D01*
X151397215Y-86395326D01*
X151408649Y-86357633D01*
X151427216Y-86322897D01*
X151452202Y-86292452D01*
X151482647Y-86267466D01*
X151517383Y-86248899D01*
X151555076Y-86237465D01*
X151600411Y-86233000D01*
X152687089Y-86233000D01*
X152732424Y-86237465D01*
G37*
G36*
X156015674Y-86237465D02*
G01*
X156053367Y-86248899D01*
X156088103Y-86267466D01*
X156118548Y-86292452D01*
X156143534Y-86322897D01*
X156162101Y-86357633D01*
X156173535Y-86395326D01*
X156178000Y-86440661D01*
X156178000Y-87277339D01*
X156173535Y-87322674D01*
X156162101Y-87360367D01*
X156143534Y-87395103D01*
X156118548Y-87425548D01*
X156088103Y-87450534D01*
X156053367Y-87469101D01*
X156015674Y-87480535D01*
X155970339Y-87485000D01*
X154883661Y-87485000D01*
X154838326Y-87480535D01*
X154800633Y-87469101D01*
X154765897Y-87450534D01*
X154735452Y-87425548D01*
X154710466Y-87395103D01*
X154691899Y-87360367D01*
X154680465Y-87322674D01*
X154676000Y-87277339D01*
X154676000Y-86440661D01*
X154680465Y-86395326D01*
X154691899Y-86357633D01*
X154710466Y-86322897D01*
X154735452Y-86292452D01*
X154765897Y-86267466D01*
X154800633Y-86248899D01*
X154838326Y-86237465D01*
X154883661Y-86233000D01*
X155970339Y-86233000D01*
X156015674Y-86237465D01*
G37*
G36*
X149449174Y-86237465D02*
G01*
X149486867Y-86248899D01*
X149521603Y-86267466D01*
X149552048Y-86292452D01*
X149577034Y-86322897D01*
X149595601Y-86357633D01*
X149607035Y-86395326D01*
X149611500Y-86440661D01*
X149611500Y-87277339D01*
X149607035Y-87322674D01*
X149595601Y-87360367D01*
X149577034Y-87395103D01*
X149552048Y-87425548D01*
X149521603Y-87450534D01*
X149486867Y-87469101D01*
X149449174Y-87480535D01*
X149403839Y-87485000D01*
X148317161Y-87485000D01*
X148271826Y-87480535D01*
X148234133Y-87469101D01*
X148199397Y-87450534D01*
X148168952Y-87425548D01*
X148143966Y-87395103D01*
X148125399Y-87360367D01*
X148113965Y-87322674D01*
X148109500Y-87277339D01*
X148109500Y-86440661D01*
X148113965Y-86395326D01*
X148125399Y-86357633D01*
X148143966Y-86322897D01*
X148168952Y-86292452D01*
X148199397Y-86267466D01*
X148234133Y-86248899D01*
X148271826Y-86237465D01*
X148317161Y-86233000D01*
X149403839Y-86233000D01*
X149449174Y-86237465D01*
G37*
G36*
X130933674Y-85337465D02*
G01*
X130971367Y-85348899D01*
X131006103Y-85367466D01*
X131036548Y-85392452D01*
X131061534Y-85422897D01*
X131080101Y-85457633D01*
X131091535Y-85495326D01*
X131096000Y-85540661D01*
X131096000Y-86377339D01*
X131091535Y-86422674D01*
X131080101Y-86460367D01*
X131061534Y-86495103D01*
X131036548Y-86525548D01*
X131006103Y-86550534D01*
X130971367Y-86569101D01*
X130933674Y-86580535D01*
X130888339Y-86585000D01*
X129801661Y-86585000D01*
X129756326Y-86580535D01*
X129718633Y-86569101D01*
X129683897Y-86550534D01*
X129653452Y-86525548D01*
X129628466Y-86495103D01*
X129609899Y-86460367D01*
X129598465Y-86422674D01*
X129594000Y-86377339D01*
X129594000Y-85540661D01*
X129598465Y-85495326D01*
X129609899Y-85457633D01*
X129628466Y-85422897D01*
X129653452Y-85392452D01*
X129683897Y-85367466D01*
X129718633Y-85348899D01*
X129756326Y-85337465D01*
X129801661Y-85333000D01*
X130888339Y-85333000D01*
X130933674Y-85337465D01*
G37*
G36*
X127666674Y-85337465D02*
G01*
X127704367Y-85348899D01*
X127739103Y-85367466D01*
X127769548Y-85392452D01*
X127794534Y-85422897D01*
X127813101Y-85457633D01*
X127824535Y-85495326D01*
X127829000Y-85540661D01*
X127829000Y-86377339D01*
X127824535Y-86422674D01*
X127813101Y-86460367D01*
X127794534Y-86495103D01*
X127769548Y-86525548D01*
X127739103Y-86550534D01*
X127704367Y-86569101D01*
X127666674Y-86580535D01*
X127621339Y-86585000D01*
X126534661Y-86585000D01*
X126489326Y-86580535D01*
X126451633Y-86569101D01*
X126416897Y-86550534D01*
X126386452Y-86525548D01*
X126361466Y-86495103D01*
X126342899Y-86460367D01*
X126331465Y-86422674D01*
X126327000Y-86377339D01*
X126327000Y-85540661D01*
X126331465Y-85495326D01*
X126342899Y-85457633D01*
X126361466Y-85422897D01*
X126386452Y-85392452D01*
X126416897Y-85367466D01*
X126451633Y-85348899D01*
X126489326Y-85337465D01*
X126534661Y-85333000D01*
X127621339Y-85333000D01*
X127666674Y-85337465D01*
G37*
G36*
X134200674Y-85337465D02*
G01*
X134238367Y-85348899D01*
X134273103Y-85367466D01*
X134303548Y-85392452D01*
X134328534Y-85422897D01*
X134347101Y-85457633D01*
X134358535Y-85495326D01*
X134363000Y-85540661D01*
X134363000Y-86377339D01*
X134358535Y-86422674D01*
X134347101Y-86460367D01*
X134328534Y-86495103D01*
X134303548Y-86525548D01*
X134273103Y-86550534D01*
X134238367Y-86569101D01*
X134200674Y-86580535D01*
X134155339Y-86585000D01*
X133068661Y-86585000D01*
X133023326Y-86580535D01*
X132985633Y-86569101D01*
X132950897Y-86550534D01*
X132920452Y-86525548D01*
X132895466Y-86495103D01*
X132876899Y-86460367D01*
X132865465Y-86422674D01*
X132861000Y-86377339D01*
X132861000Y-85540661D01*
X132865465Y-85495326D01*
X132876899Y-85457633D01*
X132895466Y-85422897D01*
X132920452Y-85392452D01*
X132950897Y-85367466D01*
X132985633Y-85348899D01*
X133023326Y-85337465D01*
X133068661Y-85333000D01*
X134155339Y-85333000D01*
X134200674Y-85337465D01*
G37*
G36*
X124310674Y-84653465D02*
G01*
X124348367Y-84664899D01*
X124383103Y-84683466D01*
X124413548Y-84708452D01*
X124438534Y-84738897D01*
X124457101Y-84773633D01*
X124468535Y-84811326D01*
X124473000Y-84856661D01*
X124473000Y-85943339D01*
X124468535Y-85988674D01*
X124457101Y-86026367D01*
X124438534Y-86061103D01*
X124413548Y-86091548D01*
X124383103Y-86116534D01*
X124348367Y-86135101D01*
X124310674Y-86146535D01*
X124265339Y-86151000D01*
X123428661Y-86151000D01*
X123383326Y-86146535D01*
X123345633Y-86135101D01*
X123310897Y-86116534D01*
X123280452Y-86091548D01*
X123255466Y-86061103D01*
X123236899Y-86026367D01*
X123225465Y-85988674D01*
X123221000Y-85943339D01*
X123221000Y-84856661D01*
X123225465Y-84811326D01*
X123236899Y-84773633D01*
X123255466Y-84738897D01*
X123280452Y-84708452D01*
X123310897Y-84683466D01*
X123345633Y-84664899D01*
X123383326Y-84653465D01*
X123428661Y-84649000D01*
X124265339Y-84649000D01*
X124310674Y-84653465D01*
G37*
G36*
X122260674Y-84653465D02*
G01*
X122298367Y-84664899D01*
X122333103Y-84683466D01*
X122363548Y-84708452D01*
X122388534Y-84738897D01*
X122407101Y-84773633D01*
X122418535Y-84811326D01*
X122423000Y-84856661D01*
X122423000Y-85943339D01*
X122418535Y-85988674D01*
X122407101Y-86026367D01*
X122388534Y-86061103D01*
X122363548Y-86091548D01*
X122333103Y-86116534D01*
X122298367Y-86135101D01*
X122260674Y-86146535D01*
X122215339Y-86151000D01*
X121378661Y-86151000D01*
X121333326Y-86146535D01*
X121295633Y-86135101D01*
X121260897Y-86116534D01*
X121230452Y-86091548D01*
X121205466Y-86061103D01*
X121186899Y-86026367D01*
X121175465Y-85988674D01*
X121171000Y-85943339D01*
X121171000Y-84856661D01*
X121175465Y-84811326D01*
X121186899Y-84773633D01*
X121205466Y-84738897D01*
X121230452Y-84708452D01*
X121260897Y-84683466D01*
X121295633Y-84664899D01*
X121333326Y-84653465D01*
X121378661Y-84649000D01*
X122215339Y-84649000D01*
X122260674Y-84653465D01*
G37*
G36*
X149449174Y-82862465D02*
G01*
X149486867Y-82873899D01*
X149521603Y-82892466D01*
X149552048Y-82917452D01*
X149577034Y-82947897D01*
X149595601Y-82982633D01*
X149607035Y-83020326D01*
X149611500Y-83065661D01*
X149611500Y-83902339D01*
X149607035Y-83947674D01*
X149595601Y-83985367D01*
X149577034Y-84020103D01*
X149552048Y-84050548D01*
X149521603Y-84075534D01*
X149486867Y-84094101D01*
X149449174Y-84105535D01*
X149403839Y-84110000D01*
X148317161Y-84110000D01*
X148271826Y-84105535D01*
X148234133Y-84094101D01*
X148199397Y-84075534D01*
X148168952Y-84050548D01*
X148143966Y-84020103D01*
X148125399Y-83985367D01*
X148113965Y-83947674D01*
X148109500Y-83902339D01*
X148109500Y-83065661D01*
X148113965Y-83020326D01*
X148125399Y-82982633D01*
X148143966Y-82947897D01*
X148168952Y-82917452D01*
X148199397Y-82892466D01*
X148234133Y-82873899D01*
X148271826Y-82862465D01*
X148317161Y-82858000D01*
X149403839Y-82858000D01*
X149449174Y-82862465D01*
G37*
G36*
X152732424Y-82862465D02*
G01*
X152770117Y-82873899D01*
X152804853Y-82892466D01*
X152835298Y-82917452D01*
X152860284Y-82947897D01*
X152878851Y-82982633D01*
X152890285Y-83020326D01*
X152894750Y-83065661D01*
X152894750Y-83902339D01*
X152890285Y-83947674D01*
X152878851Y-83985367D01*
X152860284Y-84020103D01*
X152835298Y-84050548D01*
X152804853Y-84075534D01*
X152770117Y-84094101D01*
X152732424Y-84105535D01*
X152687089Y-84110000D01*
X151600411Y-84110000D01*
X151555076Y-84105535D01*
X151517383Y-84094101D01*
X151482647Y-84075534D01*
X151452202Y-84050548D01*
X151427216Y-84020103D01*
X151408649Y-83985367D01*
X151397215Y-83947674D01*
X151392750Y-83902339D01*
X151392750Y-83065661D01*
X151397215Y-83020326D01*
X151408649Y-82982633D01*
X151427216Y-82947897D01*
X151452202Y-82917452D01*
X151482647Y-82892466D01*
X151517383Y-82873899D01*
X151555076Y-82862465D01*
X151600411Y-82858000D01*
X152687089Y-82858000D01*
X152732424Y-82862465D01*
G37*
G36*
X155970674Y-82862465D02*
G01*
X156008367Y-82873899D01*
X156043103Y-82892466D01*
X156073548Y-82917452D01*
X156098534Y-82947897D01*
X156117101Y-82982633D01*
X156128535Y-83020326D01*
X156133000Y-83065661D01*
X156133000Y-83902339D01*
X156128535Y-83947674D01*
X156117101Y-83985367D01*
X156098534Y-84020103D01*
X156073548Y-84050548D01*
X156043103Y-84075534D01*
X156008367Y-84094101D01*
X155970674Y-84105535D01*
X155925339Y-84110000D01*
X154838661Y-84110000D01*
X154793326Y-84105535D01*
X154755633Y-84094101D01*
X154720897Y-84075534D01*
X154690452Y-84050548D01*
X154665466Y-84020103D01*
X154646899Y-83985367D01*
X154635465Y-83947674D01*
X154631000Y-83902339D01*
X154631000Y-83065661D01*
X154635465Y-83020326D01*
X154646899Y-82982633D01*
X154665466Y-82947897D01*
X154690452Y-82917452D01*
X154720897Y-82892466D01*
X154755633Y-82873899D01*
X154793326Y-82862465D01*
X154838661Y-82858000D01*
X155925339Y-82858000D01*
X155970674Y-82862465D01*
G37*
G36*
X149449174Y-80812465D02*
G01*
X149486867Y-80823899D01*
X149521603Y-80842466D01*
X149552048Y-80867452D01*
X149577034Y-80897897D01*
X149595601Y-80932633D01*
X149607035Y-80970326D01*
X149611500Y-81015661D01*
X149611500Y-81852339D01*
X149607035Y-81897674D01*
X149595601Y-81935367D01*
X149577034Y-81970103D01*
X149552048Y-82000548D01*
X149521603Y-82025534D01*
X149486867Y-82044101D01*
X149449174Y-82055535D01*
X149403839Y-82060000D01*
X148317161Y-82060000D01*
X148271826Y-82055535D01*
X148234133Y-82044101D01*
X148199397Y-82025534D01*
X148168952Y-82000548D01*
X148143966Y-81970103D01*
X148125399Y-81935367D01*
X148113965Y-81897674D01*
X148109500Y-81852339D01*
X148109500Y-81015661D01*
X148113965Y-80970326D01*
X148125399Y-80932633D01*
X148143966Y-80897897D01*
X148168952Y-80867452D01*
X148199397Y-80842466D01*
X148234133Y-80823899D01*
X148271826Y-80812465D01*
X148317161Y-80808000D01*
X149403839Y-80808000D01*
X149449174Y-80812465D01*
G37*
G36*
X155970674Y-80812465D02*
G01*
X156008367Y-80823899D01*
X156043103Y-80842466D01*
X156073548Y-80867452D01*
X156098534Y-80897897D01*
X156117101Y-80932633D01*
X156128535Y-80970326D01*
X156133000Y-81015661D01*
X156133000Y-81852339D01*
X156128535Y-81897674D01*
X156117101Y-81935367D01*
X156098534Y-81970103D01*
X156073548Y-82000548D01*
X156043103Y-82025534D01*
X156008367Y-82044101D01*
X155970674Y-82055535D01*
X155925339Y-82060000D01*
X154838661Y-82060000D01*
X154793326Y-82055535D01*
X154755633Y-82044101D01*
X154720897Y-82025534D01*
X154690452Y-82000548D01*
X154665466Y-81970103D01*
X154646899Y-81935367D01*
X154635465Y-81897674D01*
X154631000Y-81852339D01*
X154631000Y-81015661D01*
X154635465Y-80970326D01*
X154646899Y-80932633D01*
X154665466Y-80897897D01*
X154690452Y-80867452D01*
X154720897Y-80842466D01*
X154755633Y-80823899D01*
X154793326Y-80812465D01*
X154838661Y-80808000D01*
X155925339Y-80808000D01*
X155970674Y-80812465D01*
G37*
G36*
X152732424Y-80812465D02*
G01*
X152770117Y-80823899D01*
X152804853Y-80842466D01*
X152835298Y-80867452D01*
X152860284Y-80897897D01*
X152878851Y-80932633D01*
X152890285Y-80970326D01*
X152894750Y-81015661D01*
X152894750Y-81852339D01*
X152890285Y-81897674D01*
X152878851Y-81935367D01*
X152860284Y-81970103D01*
X152835298Y-82000548D01*
X152804853Y-82025534D01*
X152770117Y-82044101D01*
X152732424Y-82055535D01*
X152687089Y-82060000D01*
X151600411Y-82060000D01*
X151555076Y-82055535D01*
X151517383Y-82044101D01*
X151482647Y-82025534D01*
X151452202Y-82000548D01*
X151427216Y-81970103D01*
X151408649Y-81935367D01*
X151397215Y-81897674D01*
X151392750Y-81852339D01*
X151392750Y-81015661D01*
X151397215Y-80970326D01*
X151408649Y-80932633D01*
X151427216Y-80897897D01*
X151452202Y-80867452D01*
X151482647Y-80842466D01*
X151517383Y-80823899D01*
X151555076Y-80812465D01*
X151600411Y-80808000D01*
X152687089Y-80808000D01*
X152732424Y-80812465D01*
G37*
G36*
X136609657Y-75575764D02*
G01*
X136642456Y-75585714D01*
X136672685Y-75601872D01*
X136699183Y-75623617D01*
X136720928Y-75650115D01*
X136737086Y-75680344D01*
X136747036Y-75713143D01*
X136751000Y-75753396D01*
X136751000Y-79492204D01*
X136747036Y-79532457D01*
X136737086Y-79565256D01*
X136720928Y-79595485D01*
X136699183Y-79621983D01*
X136672685Y-79643728D01*
X136642456Y-79659886D01*
X136609657Y-79669836D01*
X136569404Y-79673800D01*
X133330596Y-79673800D01*
X133290343Y-79669836D01*
X133257544Y-79659886D01*
X133227315Y-79643728D01*
X133200817Y-79621983D01*
X133179072Y-79595485D01*
X133162914Y-79565256D01*
X133152964Y-79532457D01*
X133149000Y-79492204D01*
X133149000Y-75753396D01*
X133152964Y-75713143D01*
X133162914Y-75680344D01*
X133179072Y-75650115D01*
X133200817Y-75623617D01*
X133227315Y-75601872D01*
X133257544Y-75585714D01*
X133290343Y-75575764D01*
X133330596Y-75571800D01*
X136569404Y-75571800D01*
X136609657Y-75575764D01*
G37*
G36*
X146109657Y-75575764D02*
G01*
X146142456Y-75585714D01*
X146172685Y-75601872D01*
X146199183Y-75623617D01*
X146220928Y-75650115D01*
X146237086Y-75680344D01*
X146247036Y-75713143D01*
X146251000Y-75753396D01*
X146251000Y-79492204D01*
X146247036Y-79532457D01*
X146237086Y-79565256D01*
X146220928Y-79595485D01*
X146199183Y-79621983D01*
X146172685Y-79643728D01*
X146142456Y-79659886D01*
X146109657Y-79669836D01*
X146069404Y-79673800D01*
X142830596Y-79673800D01*
X142790343Y-79669836D01*
X142757544Y-79659886D01*
X142727315Y-79643728D01*
X142700817Y-79621983D01*
X142679072Y-79595485D01*
X142662914Y-79565256D01*
X142652964Y-79532457D01*
X142649000Y-79492204D01*
X142649000Y-75753396D01*
X142652964Y-75713143D01*
X142662914Y-75680344D01*
X142679072Y-75650115D01*
X142700817Y-75623617D01*
X142727315Y-75601872D01*
X142757544Y-75585714D01*
X142790343Y-75575764D01*
X142830596Y-75571800D01*
X146069404Y-75571800D01*
X146109657Y-75575764D01*
G37*
G36*
X163601000Y-78623800D02*
G01*
X158599000Y-78623800D01*
X158599000Y-76621800D01*
X163601000Y-76621800D01*
X163601000Y-78623800D01*
G37*
G36*
X172401000Y-78623800D02*
G01*
X167399000Y-78623800D01*
X167399000Y-76621800D01*
X172401000Y-76621800D01*
X172401000Y-78623800D01*
G37*
G36*
X130901000Y-78623800D02*
G01*
X125899000Y-78623800D01*
X125899000Y-76621800D01*
X130901000Y-76621800D01*
X130901000Y-78623800D01*
G37*
G36*
X122101000Y-78623800D02*
G01*
X117099000Y-78623800D01*
X117099000Y-76621800D01*
X122101000Y-76621800D01*
X122101000Y-78623800D01*
G37*
G36*
X152881000Y-73574001D02*
G01*
X152883402Y-73598387D01*
X152890515Y-73621836D01*
X152902066Y-73643447D01*
X152917611Y-73662389D01*
X152936553Y-73677934D01*
X152958164Y-73689485D01*
X152981613Y-73696598D01*
X153005999Y-73699000D01*
X155379001Y-73699000D01*
X155403387Y-73696598D01*
X155426836Y-73689485D01*
X155448447Y-73677934D01*
X155467389Y-73662389D01*
X155482934Y-73643447D01*
X155494485Y-73621836D01*
X155501598Y-73598387D01*
X155504000Y-73574001D01*
X155504000Y-73419000D01*
X156081000Y-73419000D01*
X156081000Y-74271000D01*
X155453499Y-74271000D01*
X155429113Y-74273402D01*
X155405664Y-74280515D01*
X155384053Y-74292066D01*
X155365111Y-74307611D01*
X155349566Y-74326553D01*
X155338015Y-74348164D01*
X155330902Y-74371613D01*
X155328500Y-74395999D01*
X155328500Y-77104001D01*
X155330902Y-77128387D01*
X155338015Y-77151836D01*
X155349566Y-77173447D01*
X155365111Y-77192389D01*
X155384053Y-77207934D01*
X155405664Y-77219485D01*
X155429113Y-77226598D01*
X155453499Y-77229000D01*
X156081000Y-77229000D01*
X156081000Y-78081000D01*
X155504000Y-78081000D01*
X155504000Y-77925999D01*
X155501598Y-77901613D01*
X155494485Y-77878164D01*
X155482934Y-77856553D01*
X155467389Y-77837611D01*
X155448447Y-77822066D01*
X155426836Y-77810515D01*
X155403387Y-77803402D01*
X155379001Y-77801000D01*
X153005999Y-77801000D01*
X152981613Y-77803402D01*
X152958164Y-77810515D01*
X152936553Y-77822066D01*
X152917611Y-77837611D01*
X152902066Y-77856553D01*
X152890515Y-77878164D01*
X152883402Y-77901613D01*
X152881000Y-77925999D01*
X152881000Y-78576000D01*
X151874000Y-78576000D01*
X151874000Y-77925999D01*
X151871598Y-77901613D01*
X151864485Y-77878164D01*
X151852934Y-77856553D01*
X151837389Y-77837611D01*
X151818447Y-77822066D01*
X151796836Y-77810515D01*
X151773387Y-77803402D01*
X151749001Y-77801000D01*
X151726500Y-77801000D01*
X151726500Y-73699000D01*
X151749001Y-73699000D01*
X151773387Y-73696598D01*
X151796836Y-73689485D01*
X151818447Y-73677934D01*
X151837389Y-73662389D01*
X151852934Y-73643447D01*
X151864485Y-73621836D01*
X151871598Y-73598387D01*
X151874000Y-73574001D01*
X151874000Y-72924000D01*
X152881000Y-72924000D01*
X152881000Y-73574001D01*
G37*
G36*
X150586000Y-78081000D02*
G01*
X149484000Y-78081000D01*
X149484000Y-77229000D01*
X150586000Y-77229000D01*
X150586000Y-78081000D01*
G37*
G36*
X150586000Y-76811000D02*
G01*
X149484000Y-76811000D01*
X149484000Y-75959000D01*
X150586000Y-75959000D01*
X150586000Y-76811000D01*
G37*
G36*
X150586000Y-75541000D02*
G01*
X149484000Y-75541000D01*
X149484000Y-74689000D01*
X150586000Y-74689000D01*
X150586000Y-75541000D01*
G37*
G36*
X150586000Y-74271000D02*
G01*
X149484000Y-74271000D01*
X149484000Y-73419000D01*
X150586000Y-73419000D01*
X150586000Y-74271000D01*
G37*
G36*
X172851600Y-70451600D02*
G01*
X167648400Y-70451600D01*
X167648400Y-67248400D01*
X172851600Y-67248400D01*
X172851600Y-70451600D01*
G37*
G36*
X162378674Y-68383465D02*
G01*
X162416367Y-68394899D01*
X162451103Y-68413466D01*
X162481548Y-68438452D01*
X162506534Y-68468897D01*
X162525101Y-68503633D01*
X162536535Y-68541326D01*
X162541000Y-68586661D01*
X162541000Y-69673339D01*
X162536535Y-69718674D01*
X162525101Y-69756367D01*
X162506534Y-69791103D01*
X162481548Y-69821548D01*
X162451103Y-69846534D01*
X162416367Y-69865101D01*
X162378674Y-69876535D01*
X162333339Y-69881000D01*
X161496661Y-69881000D01*
X161451326Y-69876535D01*
X161413633Y-69865101D01*
X161378897Y-69846534D01*
X161348452Y-69821548D01*
X161323466Y-69791103D01*
X161304899Y-69756367D01*
X161293465Y-69718674D01*
X161289000Y-69673339D01*
X161289000Y-68586661D01*
X161293465Y-68541326D01*
X161304899Y-68503633D01*
X161323466Y-68468897D01*
X161348452Y-68438452D01*
X161378897Y-68413466D01*
X161413633Y-68394899D01*
X161451326Y-68383465D01*
X161496661Y-68379000D01*
X162333339Y-68379000D01*
X162378674Y-68383465D01*
G37*
G36*
X159128674Y-68383465D02*
G01*
X159166367Y-68394899D01*
X159201103Y-68413466D01*
X159231548Y-68438452D01*
X159256534Y-68468897D01*
X159275101Y-68503633D01*
X159286535Y-68541326D01*
X159291000Y-68586661D01*
X159291000Y-69673339D01*
X159286535Y-69718674D01*
X159275101Y-69756367D01*
X159256534Y-69791103D01*
X159231548Y-69821548D01*
X159201103Y-69846534D01*
X159166367Y-69865101D01*
X159128674Y-69876535D01*
X159083339Y-69881000D01*
X158246661Y-69881000D01*
X158201326Y-69876535D01*
X158163633Y-69865101D01*
X158128897Y-69846534D01*
X158098452Y-69821548D01*
X158073466Y-69791103D01*
X158054899Y-69756367D01*
X158043465Y-69718674D01*
X158039000Y-69673339D01*
X158039000Y-68586661D01*
X158043465Y-68541326D01*
X158054899Y-68503633D01*
X158073466Y-68468897D01*
X158098452Y-68438452D01*
X158128897Y-68413466D01*
X158163633Y-68394899D01*
X158201326Y-68383465D01*
X158246661Y-68379000D01*
X159083339Y-68379000D01*
X159128674Y-68383465D01*
G37*
G36*
X157078674Y-68383465D02*
G01*
X157116367Y-68394899D01*
X157151103Y-68413466D01*
X157181548Y-68438452D01*
X157206534Y-68468897D01*
X157225101Y-68503633D01*
X157236535Y-68541326D01*
X157241000Y-68586661D01*
X157241000Y-69673339D01*
X157236535Y-69718674D01*
X157225101Y-69756367D01*
X157206534Y-69791103D01*
X157181548Y-69821548D01*
X157151103Y-69846534D01*
X157116367Y-69865101D01*
X157078674Y-69876535D01*
X157033339Y-69881000D01*
X156196661Y-69881000D01*
X156151326Y-69876535D01*
X156113633Y-69865101D01*
X156078897Y-69846534D01*
X156048452Y-69821548D01*
X156023466Y-69791103D01*
X156004899Y-69756367D01*
X155993465Y-69718674D01*
X155989000Y-69673339D01*
X155989000Y-68586661D01*
X155993465Y-68541326D01*
X156004899Y-68503633D01*
X156023466Y-68468897D01*
X156048452Y-68438452D01*
X156078897Y-68413466D01*
X156113633Y-68394899D01*
X156151326Y-68383465D01*
X156196661Y-68379000D01*
X157033339Y-68379000D01*
X157078674Y-68383465D01*
G37*
G36*
X164428674Y-68383465D02*
G01*
X164466367Y-68394899D01*
X164501103Y-68413466D01*
X164531548Y-68438452D01*
X164556534Y-68468897D01*
X164575101Y-68503633D01*
X164586535Y-68541326D01*
X164591000Y-68586661D01*
X164591000Y-69673339D01*
X164586535Y-69718674D01*
X164575101Y-69756367D01*
X164556534Y-69791103D01*
X164531548Y-69821548D01*
X164501103Y-69846534D01*
X164466367Y-69865101D01*
X164428674Y-69876535D01*
X164383339Y-69881000D01*
X163546661Y-69881000D01*
X163501326Y-69876535D01*
X163463633Y-69865101D01*
X163428897Y-69846534D01*
X163398452Y-69821548D01*
X163373466Y-69791103D01*
X163354899Y-69756367D01*
X163343465Y-69718674D01*
X163339000Y-69673339D01*
X163339000Y-68586661D01*
X163343465Y-68541326D01*
X163354899Y-68503633D01*
X163373466Y-68468897D01*
X163398452Y-68438452D01*
X163428897Y-68413466D01*
X163463633Y-68394899D01*
X163501326Y-68383465D01*
X163546661Y-68379000D01*
X164383339Y-68379000D01*
X164428674Y-68383465D01*
G37*
G36*
X141951600Y-69701600D02*
G01*
X138748400Y-69701600D01*
X138748400Y-64498400D01*
X141951600Y-64498400D01*
X141951600Y-69701600D01*
G37*
G36*
X125526000Y-69381000D02*
G01*
X122874000Y-69381000D01*
X122874000Y-68219000D01*
X125526000Y-68219000D01*
X125526000Y-69381000D01*
G37*
G36*
X128888674Y-68103465D02*
G01*
X128926367Y-68114899D01*
X128961103Y-68133466D01*
X128991548Y-68158452D01*
X129016534Y-68188897D01*
X129035101Y-68223633D01*
X129046535Y-68261326D01*
X129051000Y-68306661D01*
X129051000Y-69143339D01*
X129046535Y-69188674D01*
X129035101Y-69226367D01*
X129016534Y-69261103D01*
X128991548Y-69291548D01*
X128961103Y-69316534D01*
X128926367Y-69335101D01*
X128888674Y-69346535D01*
X128843339Y-69351000D01*
X127756661Y-69351000D01*
X127711326Y-69346535D01*
X127673633Y-69335101D01*
X127638897Y-69316534D01*
X127608452Y-69291548D01*
X127583466Y-69261103D01*
X127564899Y-69226367D01*
X127553465Y-69188674D01*
X127549000Y-69143339D01*
X127549000Y-68306661D01*
X127553465Y-68261326D01*
X127564899Y-68223633D01*
X127583466Y-68188897D01*
X127608452Y-68158452D01*
X127638897Y-68133466D01*
X127673633Y-68114899D01*
X127711326Y-68103465D01*
X127756661Y-68099000D01*
X128843339Y-68099000D01*
X128888674Y-68103465D01*
G37*
G36*
X120951000Y-68951000D02*
G01*
X119949000Y-68951000D01*
X119949000Y-66449000D01*
X120951000Y-66449000D01*
X120951000Y-68951000D01*
G37*
G36*
X118251000Y-68951000D02*
G01*
X117249000Y-68951000D01*
X117249000Y-66449000D01*
X118251000Y-66449000D01*
X118251000Y-68951000D01*
G37*
G36*
X146438674Y-66633465D02*
G01*
X146476367Y-66644899D01*
X146511103Y-66663466D01*
X146541548Y-66688452D01*
X146566534Y-66718897D01*
X146585101Y-66753633D01*
X146596535Y-66791326D01*
X146601000Y-66836661D01*
X146601000Y-67923339D01*
X146596535Y-67968674D01*
X146585101Y-68006367D01*
X146566534Y-68041103D01*
X146541548Y-68071548D01*
X146511103Y-68096534D01*
X146476367Y-68115101D01*
X146438674Y-68126535D01*
X146393339Y-68131000D01*
X145556661Y-68131000D01*
X145511326Y-68126535D01*
X145473633Y-68115101D01*
X145438897Y-68096534D01*
X145408452Y-68071548D01*
X145383466Y-68041103D01*
X145364899Y-68006367D01*
X145353465Y-67968674D01*
X145349000Y-67923339D01*
X145349000Y-66836661D01*
X145353465Y-66791326D01*
X145364899Y-66753633D01*
X145383466Y-66718897D01*
X145408452Y-66688452D01*
X145438897Y-66663466D01*
X145473633Y-66644899D01*
X145511326Y-66633465D01*
X145556661Y-66629000D01*
X146393339Y-66629000D01*
X146438674Y-66633465D01*
G37*
G36*
X148488674Y-66633465D02*
G01*
X148526367Y-66644899D01*
X148561103Y-66663466D01*
X148591548Y-66688452D01*
X148616534Y-66718897D01*
X148635101Y-66753633D01*
X148646535Y-66791326D01*
X148651000Y-66836661D01*
X148651000Y-67923339D01*
X148646535Y-67968674D01*
X148635101Y-68006367D01*
X148616534Y-68041103D01*
X148591548Y-68071548D01*
X148561103Y-68096534D01*
X148526367Y-68115101D01*
X148488674Y-68126535D01*
X148443339Y-68131000D01*
X147606661Y-68131000D01*
X147561326Y-68126535D01*
X147523633Y-68115101D01*
X147488897Y-68096534D01*
X147458452Y-68071548D01*
X147433466Y-68041103D01*
X147414899Y-68006367D01*
X147403465Y-67968674D01*
X147399000Y-67923339D01*
X147399000Y-66836661D01*
X147403465Y-66791326D01*
X147414899Y-66753633D01*
X147433466Y-66718897D01*
X147458452Y-66688452D01*
X147488897Y-66663466D01*
X147523633Y-66644899D01*
X147561326Y-66633465D01*
X147606661Y-66629000D01*
X148443339Y-66629000D01*
X148488674Y-66633465D01*
G37*
G36*
X153658674Y-66623465D02*
G01*
X153696367Y-66634899D01*
X153731103Y-66653466D01*
X153761548Y-66678452D01*
X153786534Y-66708897D01*
X153805101Y-66743633D01*
X153816535Y-66781326D01*
X153821000Y-66826661D01*
X153821000Y-67913339D01*
X153816535Y-67958674D01*
X153805101Y-67996367D01*
X153786534Y-68031103D01*
X153761548Y-68061548D01*
X153731103Y-68086534D01*
X153696367Y-68105101D01*
X153658674Y-68116535D01*
X153613339Y-68121000D01*
X152776661Y-68121000D01*
X152731326Y-68116535D01*
X152693633Y-68105101D01*
X152658897Y-68086534D01*
X152628452Y-68061548D01*
X152603466Y-68031103D01*
X152584899Y-67996367D01*
X152573465Y-67958674D01*
X152569000Y-67913339D01*
X152569000Y-66826661D01*
X152573465Y-66781326D01*
X152584899Y-66743633D01*
X152603466Y-66708897D01*
X152628452Y-66678452D01*
X152658897Y-66653466D01*
X152693633Y-66634899D01*
X152731326Y-66623465D01*
X152776661Y-66619000D01*
X153613339Y-66619000D01*
X153658674Y-66623465D01*
G37*
G36*
X151608674Y-66623465D02*
G01*
X151646367Y-66634899D01*
X151681103Y-66653466D01*
X151711548Y-66678452D01*
X151736534Y-66708897D01*
X151755101Y-66743633D01*
X151766535Y-66781326D01*
X151771000Y-66826661D01*
X151771000Y-67913339D01*
X151766535Y-67958674D01*
X151755101Y-67996367D01*
X151736534Y-68031103D01*
X151711548Y-68061548D01*
X151681103Y-68086534D01*
X151646367Y-68105101D01*
X151608674Y-68116535D01*
X151563339Y-68121000D01*
X150726661Y-68121000D01*
X150681326Y-68116535D01*
X150643633Y-68105101D01*
X150608897Y-68086534D01*
X150578452Y-68061548D01*
X150553466Y-68031103D01*
X150534899Y-67996367D01*
X150523465Y-67958674D01*
X150519000Y-67913339D01*
X150519000Y-66826661D01*
X150523465Y-66781326D01*
X150534899Y-66743633D01*
X150553466Y-66708897D01*
X150578452Y-66678452D01*
X150608897Y-66653466D01*
X150643633Y-66634899D01*
X150681326Y-66623465D01*
X150726661Y-66619000D01*
X151563339Y-66619000D01*
X151608674Y-66623465D01*
G37*
G36*
X136025949Y-64728800D02*
G01*
X136285463Y-64836294D01*
X136285464Y-64836295D01*
X136519022Y-64992353D01*
X136717647Y-65190978D01*
X136717648Y-65190980D01*
X136873706Y-65424537D01*
X136981200Y-65684051D01*
X137036000Y-65959550D01*
X137036000Y-66240450D01*
X136981200Y-66515949D01*
X136873706Y-66775463D01*
X136832815Y-66836661D01*
X136717647Y-67009022D01*
X136519022Y-67207647D01*
X136447957Y-67255131D01*
X136285463Y-67363706D01*
X136025949Y-67471200D01*
X135750450Y-67526000D01*
X135469550Y-67526000D01*
X135194051Y-67471200D01*
X134934537Y-67363706D01*
X134772043Y-67255131D01*
X134700978Y-67207647D01*
X134502353Y-67009022D01*
X134387185Y-66836661D01*
X134346294Y-66775463D01*
X134238800Y-66515949D01*
X134184000Y-66240450D01*
X134184000Y-65959550D01*
X134238800Y-65684051D01*
X134346294Y-65424537D01*
X134502352Y-65190980D01*
X134502353Y-65190978D01*
X134700978Y-64992353D01*
X134934536Y-64836295D01*
X134934537Y-64836294D01*
X135194051Y-64728800D01*
X135469550Y-64674000D01*
X135750450Y-64674000D01*
X136025949Y-64728800D01*
G37*
G36*
X128888674Y-66053465D02*
G01*
X128926367Y-66064899D01*
X128961103Y-66083466D01*
X128991548Y-66108452D01*
X129016534Y-66138897D01*
X129035101Y-66173633D01*
X129046535Y-66211326D01*
X129051000Y-66256661D01*
X129051000Y-67093339D01*
X129046535Y-67138674D01*
X129035101Y-67176367D01*
X129016534Y-67211103D01*
X128991548Y-67241548D01*
X128961103Y-67266534D01*
X128926367Y-67285101D01*
X128888674Y-67296535D01*
X128843339Y-67301000D01*
X127756661Y-67301000D01*
X127711326Y-67296535D01*
X127673633Y-67285101D01*
X127638897Y-67266534D01*
X127608452Y-67241548D01*
X127583466Y-67211103D01*
X127564899Y-67176367D01*
X127553465Y-67138674D01*
X127549000Y-67093339D01*
X127549000Y-66256661D01*
X127553465Y-66211326D01*
X127564899Y-66173633D01*
X127583466Y-66138897D01*
X127608452Y-66108452D01*
X127638897Y-66083466D01*
X127673633Y-66064899D01*
X127711326Y-66053465D01*
X127756661Y-66049000D01*
X128843339Y-66049000D01*
X128888674Y-66053465D01*
G37*
G36*
X125526000Y-67181000D02*
G01*
X122874000Y-67181000D01*
X122874000Y-66019000D01*
X125526000Y-66019000D01*
X125526000Y-67181000D01*
G37*
G36*
X164428674Y-64958465D02*
G01*
X164466367Y-64969899D01*
X164501103Y-64988466D01*
X164531548Y-65013452D01*
X164556534Y-65043897D01*
X164575101Y-65078633D01*
X164586535Y-65116326D01*
X164591000Y-65161661D01*
X164591000Y-66248339D01*
X164586535Y-66293674D01*
X164575101Y-66331367D01*
X164556534Y-66366103D01*
X164531548Y-66396548D01*
X164501103Y-66421534D01*
X164466367Y-66440101D01*
X164428674Y-66451535D01*
X164383339Y-66456000D01*
X163546661Y-66456000D01*
X163501326Y-66451535D01*
X163463633Y-66440101D01*
X163428897Y-66421534D01*
X163398452Y-66396548D01*
X163373466Y-66366103D01*
X163354899Y-66331367D01*
X163343465Y-66293674D01*
X163339000Y-66248339D01*
X163339000Y-65161661D01*
X163343465Y-65116326D01*
X163354899Y-65078633D01*
X163373466Y-65043897D01*
X163398452Y-65013452D01*
X163428897Y-64988466D01*
X163463633Y-64969899D01*
X163501326Y-64958465D01*
X163546661Y-64954000D01*
X164383339Y-64954000D01*
X164428674Y-64958465D01*
G37*
G36*
X159128674Y-64958465D02*
G01*
X159166367Y-64969899D01*
X159201103Y-64988466D01*
X159231548Y-65013452D01*
X159256534Y-65043897D01*
X159275101Y-65078633D01*
X159286535Y-65116326D01*
X159291000Y-65161661D01*
X159291000Y-66248339D01*
X159286535Y-66293674D01*
X159275101Y-66331367D01*
X159256534Y-66366103D01*
X159231548Y-66396548D01*
X159201103Y-66421534D01*
X159166367Y-66440101D01*
X159128674Y-66451535D01*
X159083339Y-66456000D01*
X158246661Y-66456000D01*
X158201326Y-66451535D01*
X158163633Y-66440101D01*
X158128897Y-66421534D01*
X158098452Y-66396548D01*
X158073466Y-66366103D01*
X158054899Y-66331367D01*
X158043465Y-66293674D01*
X158039000Y-66248339D01*
X158039000Y-65161661D01*
X158043465Y-65116326D01*
X158054899Y-65078633D01*
X158073466Y-65043897D01*
X158098452Y-65013452D01*
X158128897Y-64988466D01*
X158163633Y-64969899D01*
X158201326Y-64958465D01*
X158246661Y-64954000D01*
X159083339Y-64954000D01*
X159128674Y-64958465D01*
G37*
G36*
X157078674Y-64958465D02*
G01*
X157116367Y-64969899D01*
X157151103Y-64988466D01*
X157181548Y-65013452D01*
X157206534Y-65043897D01*
X157225101Y-65078633D01*
X157236535Y-65116326D01*
X157241000Y-65161661D01*
X157241000Y-66248339D01*
X157236535Y-66293674D01*
X157225101Y-66331367D01*
X157206534Y-66366103D01*
X157181548Y-66396548D01*
X157151103Y-66421534D01*
X157116367Y-66440101D01*
X157078674Y-66451535D01*
X157033339Y-66456000D01*
X156196661Y-66456000D01*
X156151326Y-66451535D01*
X156113633Y-66440101D01*
X156078897Y-66421534D01*
X156048452Y-66396548D01*
X156023466Y-66366103D01*
X156004899Y-66331367D01*
X155993465Y-66293674D01*
X155989000Y-66248339D01*
X155989000Y-65161661D01*
X155993465Y-65116326D01*
X156004899Y-65078633D01*
X156023466Y-65043897D01*
X156048452Y-65013452D01*
X156078897Y-64988466D01*
X156113633Y-64969899D01*
X156151326Y-64958465D01*
X156196661Y-64954000D01*
X157033339Y-64954000D01*
X157078674Y-64958465D01*
G37*
G36*
X162378674Y-64958465D02*
G01*
X162416367Y-64969899D01*
X162451103Y-64988466D01*
X162481548Y-65013452D01*
X162506534Y-65043897D01*
X162525101Y-65078633D01*
X162536535Y-65116326D01*
X162541000Y-65161661D01*
X162541000Y-66248339D01*
X162536535Y-66293674D01*
X162525101Y-66331367D01*
X162506534Y-66366103D01*
X162481548Y-66396548D01*
X162451103Y-66421534D01*
X162416367Y-66440101D01*
X162378674Y-66451535D01*
X162333339Y-66456000D01*
X161496661Y-66456000D01*
X161451326Y-66451535D01*
X161413633Y-66440101D01*
X161378897Y-66421534D01*
X161348452Y-66396548D01*
X161323466Y-66366103D01*
X161304899Y-66331367D01*
X161293465Y-66293674D01*
X161289000Y-66248339D01*
X161289000Y-65161661D01*
X161293465Y-65116326D01*
X161304899Y-65078633D01*
X161323466Y-65043897D01*
X161348452Y-65013452D01*
X161378897Y-64988466D01*
X161413633Y-64969899D01*
X161451326Y-64958465D01*
X161496661Y-64954000D01*
X162333339Y-64954000D01*
X162378674Y-64958465D01*
G37*
G36*
X146438674Y-63133465D02*
G01*
X146476367Y-63144899D01*
X146511103Y-63163466D01*
X146541548Y-63188452D01*
X146566534Y-63218897D01*
X146585101Y-63253633D01*
X146596535Y-63291326D01*
X146601000Y-63336661D01*
X146601000Y-64423339D01*
X146596535Y-64468674D01*
X146585101Y-64506367D01*
X146566534Y-64541103D01*
X146541548Y-64571548D01*
X146511103Y-64596534D01*
X146476367Y-64615101D01*
X146438674Y-64626535D01*
X146393339Y-64631000D01*
X145556661Y-64631000D01*
X145511326Y-64626535D01*
X145473633Y-64615101D01*
X145438897Y-64596534D01*
X145408452Y-64571548D01*
X145383466Y-64541103D01*
X145364899Y-64506367D01*
X145353465Y-64468674D01*
X145349000Y-64423339D01*
X145349000Y-63336661D01*
X145353465Y-63291326D01*
X145364899Y-63253633D01*
X145383466Y-63218897D01*
X145408452Y-63188452D01*
X145438897Y-63163466D01*
X145473633Y-63144899D01*
X145511326Y-63133465D01*
X145556661Y-63129000D01*
X146393339Y-63129000D01*
X146438674Y-63133465D01*
G37*
G36*
X148488674Y-63133465D02*
G01*
X148526367Y-63144899D01*
X148561103Y-63163466D01*
X148591548Y-63188452D01*
X148616534Y-63218897D01*
X148635101Y-63253633D01*
X148646535Y-63291326D01*
X148651000Y-63336661D01*
X148651000Y-64423339D01*
X148646535Y-64468674D01*
X148635101Y-64506367D01*
X148616534Y-64541103D01*
X148591548Y-64571548D01*
X148561103Y-64596534D01*
X148526367Y-64615101D01*
X148488674Y-64626535D01*
X148443339Y-64631000D01*
X147606661Y-64631000D01*
X147561326Y-64626535D01*
X147523633Y-64615101D01*
X147488897Y-64596534D01*
X147458452Y-64571548D01*
X147433466Y-64541103D01*
X147414899Y-64506367D01*
X147403465Y-64468674D01*
X147399000Y-64423339D01*
X147399000Y-63336661D01*
X147403465Y-63291326D01*
X147414899Y-63253633D01*
X147433466Y-63218897D01*
X147458452Y-63188452D01*
X147488897Y-63163466D01*
X147523633Y-63144899D01*
X147561326Y-63133465D01*
X147606661Y-63129000D01*
X148443339Y-63129000D01*
X148488674Y-63133465D01*
G37*
G36*
X151608674Y-63123465D02*
G01*
X151646367Y-63134899D01*
X151681103Y-63153466D01*
X151711548Y-63178452D01*
X151736534Y-63208897D01*
X151755101Y-63243633D01*
X151766535Y-63281326D01*
X151771000Y-63326661D01*
X151771000Y-64413339D01*
X151766535Y-64458674D01*
X151755101Y-64496367D01*
X151736534Y-64531103D01*
X151711548Y-64561548D01*
X151681103Y-64586534D01*
X151646367Y-64605101D01*
X151608674Y-64616535D01*
X151563339Y-64621000D01*
X150726661Y-64621000D01*
X150681326Y-64616535D01*
X150643633Y-64605101D01*
X150608897Y-64586534D01*
X150578452Y-64561548D01*
X150553466Y-64531103D01*
X150534899Y-64496367D01*
X150523465Y-64458674D01*
X150519000Y-64413339D01*
X150519000Y-63326661D01*
X150523465Y-63281326D01*
X150534899Y-63243633D01*
X150553466Y-63208897D01*
X150578452Y-63178452D01*
X150608897Y-63153466D01*
X150643633Y-63134899D01*
X150681326Y-63123465D01*
X150726661Y-63119000D01*
X151563339Y-63119000D01*
X151608674Y-63123465D01*
G37*
G36*
X153658674Y-63123465D02*
G01*
X153696367Y-63134899D01*
X153731103Y-63153466D01*
X153761548Y-63178452D01*
X153786534Y-63208897D01*
X153805101Y-63243633D01*
X153816535Y-63281326D01*
X153821000Y-63326661D01*
X153821000Y-64413339D01*
X153816535Y-64458674D01*
X153805101Y-64496367D01*
X153786534Y-64531103D01*
X153761548Y-64561548D01*
X153731103Y-64586534D01*
X153696367Y-64605101D01*
X153658674Y-64616535D01*
X153613339Y-64621000D01*
X152776661Y-64621000D01*
X152731326Y-64616535D01*
X152693633Y-64605101D01*
X152658897Y-64586534D01*
X152628452Y-64561548D01*
X152603466Y-64531103D01*
X152584899Y-64496367D01*
X152573465Y-64458674D01*
X152569000Y-64413339D01*
X152569000Y-63326661D01*
X152573465Y-63281326D01*
X152584899Y-63243633D01*
X152603466Y-63208897D01*
X152628452Y-63178452D01*
X152658897Y-63153466D01*
X152693633Y-63134899D01*
X152731326Y-63123465D01*
X152776661Y-63119000D01*
X153613339Y-63119000D01*
X153658674Y-63123465D01*
G37*
G36*
X172801600Y-64451600D02*
G01*
X167598400Y-64451600D01*
X167598400Y-61248400D01*
X172801600Y-61248400D01*
X172801600Y-64451600D01*
G37*
G36*
X128888674Y-63003465D02*
G01*
X128926367Y-63014899D01*
X128961103Y-63033466D01*
X128991548Y-63058452D01*
X129016534Y-63088897D01*
X129035101Y-63123633D01*
X129046535Y-63161326D01*
X129051000Y-63206661D01*
X129051000Y-64043339D01*
X129046535Y-64088674D01*
X129035101Y-64126367D01*
X129016534Y-64161103D01*
X128991548Y-64191548D01*
X128961103Y-64216534D01*
X128926367Y-64235101D01*
X128888674Y-64246535D01*
X128843339Y-64251000D01*
X127756661Y-64251000D01*
X127711326Y-64246535D01*
X127673633Y-64235101D01*
X127638897Y-64216534D01*
X127608452Y-64191548D01*
X127583466Y-64161103D01*
X127564899Y-64126367D01*
X127553465Y-64088674D01*
X127549000Y-64043339D01*
X127549000Y-63206661D01*
X127553465Y-63161326D01*
X127564899Y-63123633D01*
X127583466Y-63088897D01*
X127608452Y-63058452D01*
X127638897Y-63033466D01*
X127673633Y-63014899D01*
X127711326Y-63003465D01*
X127756661Y-62999000D01*
X128843339Y-62999000D01*
X128888674Y-63003465D01*
G37*
G36*
X125688674Y-61853465D02*
G01*
X125726367Y-61864899D01*
X125761103Y-61883466D01*
X125791548Y-61908452D01*
X125816534Y-61938897D01*
X125835101Y-61973633D01*
X125846535Y-62011326D01*
X125851000Y-62056661D01*
X125851000Y-63143339D01*
X125846535Y-63188674D01*
X125835101Y-63226367D01*
X125816534Y-63261103D01*
X125791548Y-63291548D01*
X125761103Y-63316534D01*
X125726367Y-63335101D01*
X125688674Y-63346535D01*
X125643339Y-63351000D01*
X124806661Y-63351000D01*
X124761326Y-63346535D01*
X124723633Y-63335101D01*
X124688897Y-63316534D01*
X124658452Y-63291548D01*
X124633466Y-63261103D01*
X124614899Y-63226367D01*
X124603465Y-63188674D01*
X124599000Y-63143339D01*
X124599000Y-62056661D01*
X124603465Y-62011326D01*
X124614899Y-61973633D01*
X124633466Y-61938897D01*
X124658452Y-61908452D01*
X124688897Y-61883466D01*
X124723633Y-61864899D01*
X124761326Y-61853465D01*
X124806661Y-61849000D01*
X125643339Y-61849000D01*
X125688674Y-61853465D01*
G37*
G36*
X123638674Y-61853465D02*
G01*
X123676367Y-61864899D01*
X123711103Y-61883466D01*
X123741548Y-61908452D01*
X123766534Y-61938897D01*
X123785101Y-61973633D01*
X123796535Y-62011326D01*
X123801000Y-62056661D01*
X123801000Y-63143339D01*
X123796535Y-63188674D01*
X123785101Y-63226367D01*
X123766534Y-63261103D01*
X123741548Y-63291548D01*
X123711103Y-63316534D01*
X123676367Y-63335101D01*
X123638674Y-63346535D01*
X123593339Y-63351000D01*
X122756661Y-63351000D01*
X122711326Y-63346535D01*
X122673633Y-63335101D01*
X122638897Y-63316534D01*
X122608452Y-63291548D01*
X122583466Y-63261103D01*
X122564899Y-63226367D01*
X122553465Y-63188674D01*
X122549000Y-63143339D01*
X122549000Y-62056661D01*
X122553465Y-62011326D01*
X122564899Y-61973633D01*
X122583466Y-61938897D01*
X122608452Y-61908452D01*
X122638897Y-61883466D01*
X122673633Y-61864899D01*
X122711326Y-61853465D01*
X122756661Y-61849000D01*
X123593339Y-61849000D01*
X123638674Y-61853465D01*
G37*
G36*
X159128674Y-61533465D02*
G01*
X159166367Y-61544899D01*
X159201103Y-61563466D01*
X159231548Y-61588452D01*
X159256534Y-61618897D01*
X159275101Y-61653633D01*
X159286535Y-61691326D01*
X159291000Y-61736661D01*
X159291000Y-62823339D01*
X159286535Y-62868674D01*
X159275101Y-62906367D01*
X159256534Y-62941103D01*
X159231548Y-62971548D01*
X159201103Y-62996534D01*
X159166367Y-63015101D01*
X159128674Y-63026535D01*
X159083339Y-63031000D01*
X158246661Y-63031000D01*
X158201326Y-63026535D01*
X158163633Y-63015101D01*
X158128897Y-62996534D01*
X158098452Y-62971548D01*
X158073466Y-62941103D01*
X158054899Y-62906367D01*
X158043465Y-62868674D01*
X158039000Y-62823339D01*
X158039000Y-61736661D01*
X158043465Y-61691326D01*
X158054899Y-61653633D01*
X158073466Y-61618897D01*
X158098452Y-61588452D01*
X158128897Y-61563466D01*
X158163633Y-61544899D01*
X158201326Y-61533465D01*
X158246661Y-61529000D01*
X159083339Y-61529000D01*
X159128674Y-61533465D01*
G37*
G36*
X157078674Y-61533465D02*
G01*
X157116367Y-61544899D01*
X157151103Y-61563466D01*
X157181548Y-61588452D01*
X157206534Y-61618897D01*
X157225101Y-61653633D01*
X157236535Y-61691326D01*
X157241000Y-61736661D01*
X157241000Y-62823339D01*
X157236535Y-62868674D01*
X157225101Y-62906367D01*
X157206534Y-62941103D01*
X157181548Y-62971548D01*
X157151103Y-62996534D01*
X157116367Y-63015101D01*
X157078674Y-63026535D01*
X157033339Y-63031000D01*
X156196661Y-63031000D01*
X156151326Y-63026535D01*
X156113633Y-63015101D01*
X156078897Y-62996534D01*
X156048452Y-62971548D01*
X156023466Y-62941103D01*
X156004899Y-62906367D01*
X155993465Y-62868674D01*
X155989000Y-62823339D01*
X155989000Y-61736661D01*
X155993465Y-61691326D01*
X156004899Y-61653633D01*
X156023466Y-61618897D01*
X156048452Y-61588452D01*
X156078897Y-61563466D01*
X156113633Y-61544899D01*
X156151326Y-61533465D01*
X156196661Y-61529000D01*
X157033339Y-61529000D01*
X157078674Y-61533465D01*
G37*
G36*
X164428674Y-61503465D02*
G01*
X164466367Y-61514899D01*
X164501103Y-61533466D01*
X164531548Y-61558452D01*
X164556534Y-61588897D01*
X164575101Y-61623633D01*
X164586535Y-61661326D01*
X164591000Y-61706661D01*
X164591000Y-62793339D01*
X164586535Y-62838674D01*
X164575101Y-62876367D01*
X164556534Y-62911103D01*
X164531548Y-62941548D01*
X164501103Y-62966534D01*
X164466367Y-62985101D01*
X164428674Y-62996535D01*
X164383339Y-63001000D01*
X163546661Y-63001000D01*
X163501326Y-62996535D01*
X163463633Y-62985101D01*
X163428897Y-62966534D01*
X163398452Y-62941548D01*
X163373466Y-62911103D01*
X163354899Y-62876367D01*
X163343465Y-62838674D01*
X163339000Y-62793339D01*
X163339000Y-61706661D01*
X163343465Y-61661326D01*
X163354899Y-61623633D01*
X163373466Y-61588897D01*
X163398452Y-61558452D01*
X163428897Y-61533466D01*
X163463633Y-61514899D01*
X163501326Y-61503465D01*
X163546661Y-61499000D01*
X164383339Y-61499000D01*
X164428674Y-61503465D01*
G37*
G36*
X162378674Y-61503465D02*
G01*
X162416367Y-61514899D01*
X162451103Y-61533466D01*
X162481548Y-61558452D01*
X162506534Y-61588897D01*
X162525101Y-61623633D01*
X162536535Y-61661326D01*
X162541000Y-61706661D01*
X162541000Y-62793339D01*
X162536535Y-62838674D01*
X162525101Y-62876367D01*
X162506534Y-62911103D01*
X162481548Y-62941548D01*
X162451103Y-62966534D01*
X162416367Y-62985101D01*
X162378674Y-62996535D01*
X162333339Y-63001000D01*
X161496661Y-63001000D01*
X161451326Y-62996535D01*
X161413633Y-62985101D01*
X161378897Y-62966534D01*
X161348452Y-62941548D01*
X161323466Y-62911103D01*
X161304899Y-62876367D01*
X161293465Y-62838674D01*
X161289000Y-62793339D01*
X161289000Y-61706661D01*
X161293465Y-61661326D01*
X161304899Y-61623633D01*
X161323466Y-61588897D01*
X161348452Y-61558452D01*
X161378897Y-61533466D01*
X161413633Y-61514899D01*
X161451326Y-61503465D01*
X161496661Y-61499000D01*
X162333339Y-61499000D01*
X162378674Y-61503465D01*
G37*
G36*
X136025949Y-60128800D02*
G01*
X136285463Y-60236294D01*
X136285464Y-60236295D01*
X136519022Y-60392353D01*
X136717647Y-60590978D01*
X136717648Y-60590980D01*
X136873706Y-60824537D01*
X136981200Y-61084051D01*
X137036000Y-61359550D01*
X137036000Y-61640450D01*
X136981200Y-61915949D01*
X136873706Y-62175463D01*
X136796206Y-62291450D01*
X136717647Y-62409022D01*
X136519022Y-62607647D01*
X136401450Y-62686206D01*
X136285463Y-62763706D01*
X136025949Y-62871200D01*
X135750450Y-62926000D01*
X135469550Y-62926000D01*
X135194051Y-62871200D01*
X134934537Y-62763706D01*
X134818550Y-62686206D01*
X134700978Y-62607647D01*
X134502353Y-62409022D01*
X134423794Y-62291450D01*
X134346294Y-62175463D01*
X134238800Y-61915949D01*
X134184000Y-61640450D01*
X134184000Y-61359550D01*
X134238800Y-61084051D01*
X134346294Y-60824537D01*
X134502352Y-60590980D01*
X134502353Y-60590978D01*
X134700978Y-60392353D01*
X134934536Y-60236295D01*
X134934537Y-60236294D01*
X135194051Y-60128800D01*
X135469550Y-60074000D01*
X135750450Y-60074000D01*
X136025949Y-60128800D01*
G37*
G36*
X128888674Y-60953465D02*
G01*
X128926367Y-60964899D01*
X128961103Y-60983466D01*
X128991548Y-61008452D01*
X129016534Y-61038897D01*
X129035101Y-61073633D01*
X129046535Y-61111326D01*
X129051000Y-61156661D01*
X129051000Y-61993339D01*
X129046535Y-62038674D01*
X129035101Y-62076367D01*
X129016534Y-62111103D01*
X128991548Y-62141548D01*
X128961103Y-62166534D01*
X128926367Y-62185101D01*
X128888674Y-62196535D01*
X128843339Y-62201000D01*
X127756661Y-62201000D01*
X127711326Y-62196535D01*
X127673633Y-62185101D01*
X127638897Y-62166534D01*
X127608452Y-62141548D01*
X127583466Y-62111103D01*
X127564899Y-62076367D01*
X127553465Y-62038674D01*
X127549000Y-61993339D01*
X127549000Y-61156661D01*
X127553465Y-61111326D01*
X127564899Y-61073633D01*
X127583466Y-61038897D01*
X127608452Y-61008452D01*
X127638897Y-60983466D01*
X127673633Y-60964899D01*
X127711326Y-60953465D01*
X127756661Y-60949000D01*
X128843339Y-60949000D01*
X128888674Y-60953465D01*
G37*
G36*
X149788674Y-58293465D02*
G01*
X149826367Y-58304899D01*
X149861103Y-58323466D01*
X149891548Y-58348452D01*
X149916534Y-58378897D01*
X149935101Y-58413633D01*
X149946535Y-58451326D01*
X149951000Y-58496661D01*
X149951000Y-59583339D01*
X149946535Y-59628674D01*
X149935101Y-59666367D01*
X149916534Y-59701103D01*
X149891548Y-59731548D01*
X149861103Y-59756534D01*
X149826367Y-59775101D01*
X149788674Y-59786535D01*
X149743339Y-59791000D01*
X148906661Y-59791000D01*
X148861326Y-59786535D01*
X148823633Y-59775101D01*
X148788897Y-59756534D01*
X148758452Y-59731548D01*
X148733466Y-59701103D01*
X148714899Y-59666367D01*
X148703465Y-59628674D01*
X148699000Y-59583339D01*
X148699000Y-58496661D01*
X148703465Y-58451326D01*
X148714899Y-58413633D01*
X148733466Y-58378897D01*
X148758452Y-58348452D01*
X148788897Y-58323466D01*
X148823633Y-58304899D01*
X148861326Y-58293465D01*
X148906661Y-58289000D01*
X149743339Y-58289000D01*
X149788674Y-58293465D01*
G37*
G36*
X147738674Y-58293465D02*
G01*
X147776367Y-58304899D01*
X147811103Y-58323466D01*
X147841548Y-58348452D01*
X147866534Y-58378897D01*
X147885101Y-58413633D01*
X147896535Y-58451326D01*
X147901000Y-58496661D01*
X147901000Y-59583339D01*
X147896535Y-59628674D01*
X147885101Y-59666367D01*
X147866534Y-59701103D01*
X147841548Y-59731548D01*
X147811103Y-59756534D01*
X147776367Y-59775101D01*
X147738674Y-59786535D01*
X147693339Y-59791000D01*
X146856661Y-59791000D01*
X146811326Y-59786535D01*
X146773633Y-59775101D01*
X146738897Y-59756534D01*
X146708452Y-59731548D01*
X146683466Y-59701103D01*
X146664899Y-59666367D01*
X146653465Y-59628674D01*
X146649000Y-59583339D01*
X146649000Y-58496661D01*
X146653465Y-58451326D01*
X146664899Y-58413633D01*
X146683466Y-58378897D01*
X146708452Y-58348452D01*
X146738897Y-58323466D01*
X146773633Y-58304899D01*
X146811326Y-58293465D01*
X146856661Y-58289000D01*
X147693339Y-58289000D01*
X147738674Y-58293465D01*
G37*
G36*
X153528674Y-58293465D02*
G01*
X153566367Y-58304899D01*
X153601103Y-58323466D01*
X153631548Y-58348452D01*
X153656534Y-58378897D01*
X153675101Y-58413633D01*
X153686535Y-58451326D01*
X153691000Y-58496661D01*
X153691000Y-59583339D01*
X153686535Y-59628674D01*
X153675101Y-59666367D01*
X153656534Y-59701103D01*
X153631548Y-59731548D01*
X153601103Y-59756534D01*
X153566367Y-59775101D01*
X153528674Y-59786535D01*
X153483339Y-59791000D01*
X152646661Y-59791000D01*
X152601326Y-59786535D01*
X152563633Y-59775101D01*
X152528897Y-59756534D01*
X152498452Y-59731548D01*
X152473466Y-59701103D01*
X152454899Y-59666367D01*
X152443465Y-59628674D01*
X152439000Y-59583339D01*
X152439000Y-58496661D01*
X152443465Y-58451326D01*
X152454899Y-58413633D01*
X152473466Y-58378897D01*
X152498452Y-58348452D01*
X152528897Y-58323466D01*
X152563633Y-58304899D01*
X152601326Y-58293465D01*
X152646661Y-58289000D01*
X153483339Y-58289000D01*
X153528674Y-58293465D01*
G37*
G36*
X155578674Y-58293465D02*
G01*
X155616367Y-58304899D01*
X155651103Y-58323466D01*
X155681548Y-58348452D01*
X155706534Y-58378897D01*
X155725101Y-58413633D01*
X155736535Y-58451326D01*
X155741000Y-58496661D01*
X155741000Y-59583339D01*
X155736535Y-59628674D01*
X155725101Y-59666367D01*
X155706534Y-59701103D01*
X155681548Y-59731548D01*
X155651103Y-59756534D01*
X155616367Y-59775101D01*
X155578674Y-59786535D01*
X155533339Y-59791000D01*
X154696661Y-59791000D01*
X154651326Y-59786535D01*
X154613633Y-59775101D01*
X154578897Y-59756534D01*
X154548452Y-59731548D01*
X154523466Y-59701103D01*
X154504899Y-59666367D01*
X154493465Y-59628674D01*
X154489000Y-59583339D01*
X154489000Y-58496661D01*
X154493465Y-58451326D01*
X154504899Y-58413633D01*
X154523466Y-58378897D01*
X154548452Y-58348452D01*
X154578897Y-58323466D01*
X154613633Y-58304899D01*
X154651326Y-58293465D01*
X154696661Y-58289000D01*
X155533339Y-58289000D01*
X155578674Y-58293465D01*
G37*
G36*
X163659672Y-56608449D02*
G01*
X163659674Y-56608450D01*
X163659675Y-56608450D01*
X163728103Y-56636793D01*
X163789686Y-56677942D01*
X163842058Y-56730314D01*
X163883207Y-56791897D01*
X163911550Y-56860325D01*
X163926000Y-56932967D01*
X163926000Y-57007033D01*
X163911550Y-57079675D01*
X163883207Y-57148103D01*
X163842058Y-57209686D01*
X163838859Y-57214473D01*
X163830585Y-57224555D01*
X163819034Y-57246166D01*
X163811921Y-57269615D01*
X163809519Y-57294001D01*
X163811921Y-57318387D01*
X163819034Y-57341836D01*
X163830585Y-57363447D01*
X163846130Y-57382389D01*
X163865072Y-57397934D01*
X163886683Y-57409485D01*
X163910132Y-57416598D01*
X163934518Y-57419000D01*
X168945482Y-57419000D01*
X168969868Y-57416598D01*
X168993317Y-57409485D01*
X169014928Y-57397934D01*
X169033870Y-57382389D01*
X169049415Y-57363447D01*
X169060966Y-57341836D01*
X169068079Y-57318387D01*
X169070481Y-57294001D01*
X169068079Y-57269615D01*
X169060966Y-57246166D01*
X169049415Y-57224555D01*
X169041141Y-57214473D01*
X169037942Y-57209686D01*
X168996793Y-57148103D01*
X168968450Y-57079675D01*
X168954000Y-57007033D01*
X168954000Y-56932967D01*
X168968450Y-56860325D01*
X168996793Y-56791897D01*
X169037942Y-56730314D01*
X169090314Y-56677942D01*
X169151897Y-56636793D01*
X169220325Y-56608450D01*
X169220326Y-56608450D01*
X169220328Y-56608449D01*
X169292966Y-56594000D01*
X169367034Y-56594000D01*
X169439672Y-56608449D01*
X169439674Y-56608450D01*
X169439675Y-56608450D01*
X169508103Y-56636793D01*
X169569686Y-56677942D01*
X169622058Y-56730314D01*
X169663207Y-56791897D01*
X169691550Y-56860325D01*
X169706000Y-56932967D01*
X169706000Y-57007033D01*
X169691550Y-57079675D01*
X169663207Y-57148103D01*
X169622058Y-57209686D01*
X169618859Y-57214473D01*
X169610585Y-57224555D01*
X169599034Y-57246166D01*
X169591921Y-57269615D01*
X169589519Y-57294001D01*
X169591921Y-57318387D01*
X169599034Y-57341836D01*
X169610585Y-57363447D01*
X169626130Y-57382389D01*
X169645072Y-57397934D01*
X169666683Y-57409485D01*
X169690132Y-57416598D01*
X169714518Y-57419000D01*
X169991000Y-57419000D01*
X169991000Y-58671000D01*
X162889000Y-58671000D01*
X162889000Y-57419000D01*
X163165482Y-57419000D01*
X163189868Y-57416598D01*
X163213317Y-57409485D01*
X163234928Y-57397934D01*
X163253870Y-57382389D01*
X163269415Y-57363447D01*
X163280966Y-57341836D01*
X163288079Y-57318387D01*
X163290481Y-57294001D01*
X163288079Y-57269615D01*
X163280966Y-57246166D01*
X163269415Y-57224555D01*
X163261141Y-57214473D01*
X163257942Y-57209686D01*
X163216793Y-57148103D01*
X163188450Y-57079675D01*
X163174000Y-57007033D01*
X163174000Y-56932967D01*
X163188450Y-56860325D01*
X163216793Y-56791897D01*
X163257942Y-56730314D01*
X163310314Y-56677942D01*
X163371897Y-56636793D01*
X163440325Y-56608450D01*
X163440326Y-56608450D01*
X163440328Y-56608449D01*
X163512966Y-56594000D01*
X163587034Y-56594000D01*
X163659672Y-56608449D01*
G37*
G36*
X141951600Y-58601600D02*
G01*
X138748400Y-58601600D01*
X138748400Y-53398400D01*
X141951600Y-53398400D01*
X141951600Y-58601600D01*
G37*
G36*
X128601600Y-58601600D02*
G01*
X125398400Y-58601600D01*
X125398400Y-53398400D01*
X128601600Y-53398400D01*
X128601600Y-58601600D01*
G37*
G36*
X121101600Y-58601600D02*
G01*
X117898400Y-58601600D01*
X117898400Y-53398400D01*
X121101600Y-53398400D01*
X121101600Y-58601600D01*
G37*
G36*
X162471000Y-58521000D02*
G01*
X160189000Y-58521000D01*
X160189000Y-56419000D01*
X162471000Y-56419000D01*
X162471000Y-58521000D01*
G37*
G36*
X172691000Y-58521000D02*
G01*
X170409000Y-58521000D01*
X170409000Y-56419000D01*
X172691000Y-56419000D01*
X172691000Y-58521000D01*
G37*
G36*
X149958300Y-55880701D02*
G01*
X148332300Y-55880701D01*
X148332300Y-53499299D01*
X149958300Y-53499299D01*
X149958300Y-55880701D01*
G37*
G36*
X154047700Y-55880701D02*
G01*
X152421700Y-55880701D01*
X152421700Y-53499299D01*
X154047700Y-53499299D01*
X154047700Y-55880701D01*
G37*
G36*
X162471000Y-54591000D02*
G01*
X160189000Y-54591000D01*
X160189000Y-52489000D01*
X162471000Y-52489000D01*
X162471000Y-54591000D01*
G37*
G36*
X172691000Y-54591000D02*
G01*
X170409000Y-54591000D01*
X170409000Y-52489000D01*
X172691000Y-52489000D01*
X172691000Y-54591000D01*
G37*
M02*
