G04 #@! TF.GenerationSoftware,KiCad,Pcbnew,(5.1.5)-3*
G04 #@! TF.CreationDate,2020-06-11T09:31:08-05:00*
G04 #@! TF.ProjectId,Li-ion 5A Boost 1A Charge Protect,4c692d69-6f6e-4203-9541-20426f6f7374,rev?*
G04 #@! TF.SameCoordinates,Original*
G04 #@! TF.FileFunction,Legend,Bot*
G04 #@! TF.FilePolarity,Positive*
%FSLAX46Y46*%
G04 Gerber Fmt 4.6, Leading zero omitted, Abs format (unit mm)*
G04 Created by KiCad (PCBNEW (5.1.5)-3) date 2020-06-11 09:31:08*
%MOMM*%
%LPD*%
G04 APERTURE LIST*
%ADD10C,0.250000*%
%ADD11C,1.000000*%
%ADD12C,0.150000*%
%ADD13C,0.200000*%
G04 APERTURE END LIST*
D10*
X118678572Y-59997142D02*
X118892858Y-59925714D01*
X118964286Y-59854285D01*
X119035715Y-59711428D01*
X119035715Y-59497142D01*
X118964286Y-59354285D01*
X118892858Y-59282857D01*
X118750001Y-59211428D01*
X118178572Y-59211428D01*
X118178572Y-60711428D01*
X118678572Y-60711428D01*
X118821429Y-60640000D01*
X118892858Y-60568571D01*
X118964286Y-60425714D01*
X118964286Y-60282857D01*
X118892858Y-60140000D01*
X118821429Y-60068571D01*
X118678572Y-59997142D01*
X118178572Y-59997142D01*
X119678572Y-59782857D02*
X120821429Y-59782857D01*
X166307142Y-61219642D02*
X166307142Y-62362500D01*
X166878571Y-61791071D02*
X165735714Y-61791071D01*
X166307142Y-69319642D02*
X166307142Y-70462500D01*
X165378571Y-63841071D02*
X165378571Y-63126785D01*
X166092857Y-63055357D01*
X166021428Y-63126785D01*
X165950000Y-63269643D01*
X165950000Y-63626785D01*
X166021428Y-63769643D01*
X166092857Y-63841071D01*
X166235714Y-63912500D01*
X166592857Y-63912500D01*
X166735714Y-63841071D01*
X166807142Y-63769643D01*
X166878571Y-63626785D01*
X166878571Y-63269643D01*
X166807142Y-63126785D01*
X166735714Y-63055357D01*
X165378571Y-64341071D02*
X166878571Y-64841071D01*
X165378571Y-65341071D01*
X166878571Y-66983928D02*
X165378571Y-66983928D01*
X166878571Y-67698214D02*
X165378571Y-67698214D01*
X166878571Y-68555357D01*
X165378571Y-68555357D01*
D11*
X152800000Y-53716190D02*
G75*
G03X152800000Y-53716190I-500000J0D01*
G01*
D12*
X153225000Y-58516190D02*
G75*
G03X153225000Y-58516190I-925000J0D01*
G01*
X153225000Y-56116190D02*
G75*
G03X153225000Y-56116190I-925000J0D01*
G01*
D13*
X152210714Y-60614285D02*
X152210714Y-60197619D01*
X152865476Y-60197619D02*
X151615476Y-60197619D01*
X151615476Y-60792857D01*
X152508333Y-61209523D02*
X152508333Y-61804761D01*
X152865476Y-61090476D02*
X151615476Y-61507142D01*
X152865476Y-61923809D01*
X151615476Y-62340476D02*
X152627380Y-62340476D01*
X152746428Y-62400000D01*
X152805952Y-62459523D01*
X152865476Y-62578571D01*
X152865476Y-62816666D01*
X152805952Y-62935714D01*
X152746428Y-62995238D01*
X152627380Y-63054761D01*
X151615476Y-63054761D01*
X152865476Y-64245238D02*
X152865476Y-63650000D01*
X151615476Y-63650000D01*
X151615476Y-64483333D02*
X151615476Y-65197619D01*
X152865476Y-64840476D02*
X151615476Y-64840476D01*
D10*
X126178572Y-59997142D02*
X126392858Y-59925714D01*
X126464286Y-59854285D01*
X126535715Y-59711428D01*
X126535715Y-59497142D01*
X126464286Y-59354285D01*
X126392858Y-59282857D01*
X126250001Y-59211428D01*
X125678572Y-59211428D01*
X125678572Y-60711428D01*
X126178572Y-60711428D01*
X126321429Y-60640000D01*
X126392858Y-60568571D01*
X126464286Y-60425714D01*
X126464286Y-60282857D01*
X126392858Y-60140000D01*
X126321429Y-60068571D01*
X126178572Y-59997142D01*
X125678572Y-59997142D01*
X127178572Y-59782857D02*
X128321429Y-59782857D01*
X127750001Y-59211428D02*
X127750001Y-60354285D01*
X138860000Y-63791428D02*
X139145714Y-63791428D01*
X139288571Y-63720000D01*
X139431428Y-63577142D01*
X139502857Y-63291428D01*
X139502857Y-62791428D01*
X139431428Y-62505714D01*
X139288571Y-62362857D01*
X139145714Y-62291428D01*
X138860000Y-62291428D01*
X138717142Y-62362857D01*
X138574285Y-62505714D01*
X138502857Y-62791428D01*
X138502857Y-63291428D01*
X138574285Y-63577142D01*
X138717142Y-63720000D01*
X138860000Y-63791428D01*
X140145714Y-63791428D02*
X140145714Y-62577142D01*
X140217142Y-62434285D01*
X140288571Y-62362857D01*
X140431428Y-62291428D01*
X140717142Y-62291428D01*
X140860000Y-62362857D01*
X140931428Y-62434285D01*
X141002857Y-62577142D01*
X141002857Y-63791428D01*
X141502857Y-63791428D02*
X142360000Y-63791428D01*
X141931428Y-62291428D02*
X141931428Y-63791428D01*
X139574285Y-59271428D02*
X139574285Y-60771428D01*
X140288571Y-59271428D02*
X140288571Y-60771428D01*
X141145714Y-59271428D01*
X141145714Y-60771428D01*
X159109642Y-82792857D02*
X160252500Y-82792857D01*
X159681071Y-82221428D02*
X159681071Y-83364285D01*
X162823928Y-83721428D02*
X162109642Y-83721428D01*
X162038214Y-83007142D01*
X162109642Y-83078571D01*
X162252500Y-83150000D01*
X162609642Y-83150000D01*
X162752500Y-83078571D01*
X162823928Y-83007142D01*
X162895357Y-82864285D01*
X162895357Y-82507142D01*
X162823928Y-82364285D01*
X162752500Y-82292857D01*
X162609642Y-82221428D01*
X162252500Y-82221428D01*
X162109642Y-82292857D01*
X162038214Y-82364285D01*
X163323928Y-83721428D02*
X163823928Y-82221428D01*
X164323928Y-83721428D01*
X166252500Y-83721428D02*
X166538214Y-83721428D01*
X166681071Y-83650000D01*
X166823928Y-83507142D01*
X166895357Y-83221428D01*
X166895357Y-82721428D01*
X166823928Y-82435714D01*
X166681071Y-82292857D01*
X166538214Y-82221428D01*
X166252500Y-82221428D01*
X166109642Y-82292857D01*
X165966785Y-82435714D01*
X165895357Y-82721428D01*
X165895357Y-83221428D01*
X165966785Y-83507142D01*
X166109642Y-83650000D01*
X166252500Y-83721428D01*
X167538214Y-83721428D02*
X167538214Y-82507142D01*
X167609642Y-82364285D01*
X167681071Y-82292857D01*
X167823928Y-82221428D01*
X168109642Y-82221428D01*
X168252500Y-82292857D01*
X168323928Y-82364285D01*
X168395357Y-82507142D01*
X168395357Y-83721428D01*
X168895357Y-83721428D02*
X169752500Y-83721428D01*
X169323928Y-82221428D02*
X169323928Y-83721428D01*
X171395357Y-82792857D02*
X172538214Y-82792857D01*
X118123928Y-88341428D02*
X117409642Y-88341428D01*
X117409642Y-89841428D01*
X118623928Y-88341428D02*
X118623928Y-89341428D01*
X118623928Y-89841428D02*
X118552500Y-89770000D01*
X118623928Y-89698571D01*
X118695357Y-89770000D01*
X118623928Y-89841428D01*
X118623928Y-89698571D01*
X119338214Y-88912857D02*
X120481071Y-88912857D01*
X121195357Y-88341428D02*
X121195357Y-89841428D01*
X122123928Y-88341428D02*
X121981071Y-88412857D01*
X121909642Y-88484285D01*
X121838214Y-88627142D01*
X121838214Y-89055714D01*
X121909642Y-89198571D01*
X121981071Y-89270000D01*
X122123928Y-89341428D01*
X122338214Y-89341428D01*
X122481071Y-89270000D01*
X122552500Y-89198571D01*
X122623928Y-89055714D01*
X122623928Y-88627142D01*
X122552500Y-88484285D01*
X122481071Y-88412857D01*
X122338214Y-88341428D01*
X122123928Y-88341428D01*
X123266785Y-89341428D02*
X123266785Y-88341428D01*
X123266785Y-89198571D02*
X123338214Y-89270000D01*
X123481071Y-89341428D01*
X123695357Y-89341428D01*
X123838214Y-89270000D01*
X123909642Y-89127142D01*
X123909642Y-88341428D01*
X126481071Y-89841428D02*
X125766785Y-89841428D01*
X125695357Y-89127142D01*
X125766785Y-89198571D01*
X125909642Y-89270000D01*
X126266785Y-89270000D01*
X126409642Y-89198571D01*
X126481071Y-89127142D01*
X126552500Y-88984285D01*
X126552500Y-88627142D01*
X126481071Y-88484285D01*
X126409642Y-88412857D01*
X126266785Y-88341428D01*
X125909642Y-88341428D01*
X125766785Y-88412857D01*
X125695357Y-88484285D01*
X126981071Y-89841428D02*
X127481071Y-88341428D01*
X127981071Y-89841428D01*
X130338214Y-89841428D02*
X129623928Y-89841428D01*
X129552500Y-89127142D01*
X129623928Y-89198571D01*
X129766785Y-89270000D01*
X130123928Y-89270000D01*
X130266785Y-89198571D01*
X130338214Y-89127142D01*
X130409642Y-88984285D01*
X130409642Y-88627142D01*
X130338214Y-88484285D01*
X130266785Y-88412857D01*
X130123928Y-88341428D01*
X129766785Y-88341428D01*
X129623928Y-88412857D01*
X129552500Y-88484285D01*
X130981071Y-88770000D02*
X131695357Y-88770000D01*
X130838214Y-88341428D02*
X131338214Y-89841428D01*
X131838214Y-88341428D01*
X133766785Y-89841428D02*
X134052500Y-89841428D01*
X134195357Y-89770000D01*
X134338214Y-89627142D01*
X134409642Y-89341428D01*
X134409642Y-88841428D01*
X134338214Y-88555714D01*
X134195357Y-88412857D01*
X134052500Y-88341428D01*
X133766785Y-88341428D01*
X133623928Y-88412857D01*
X133481071Y-88555714D01*
X133409642Y-88841428D01*
X133409642Y-89341428D01*
X133481071Y-89627142D01*
X133623928Y-89770000D01*
X133766785Y-89841428D01*
X135695357Y-89341428D02*
X135695357Y-88341428D01*
X135052500Y-89341428D02*
X135052500Y-88555714D01*
X135123928Y-88412857D01*
X135266785Y-88341428D01*
X135481071Y-88341428D01*
X135623928Y-88412857D01*
X135695357Y-88484285D01*
X136195357Y-89341428D02*
X136766785Y-89341428D01*
X136409642Y-89841428D02*
X136409642Y-88555714D01*
X136481071Y-88412857D01*
X136623928Y-88341428D01*
X136766785Y-88341428D01*
X137266785Y-89341428D02*
X137266785Y-87841428D01*
X137266785Y-89270000D02*
X137409642Y-89341428D01*
X137695357Y-89341428D01*
X137838214Y-89270000D01*
X137909642Y-89198571D01*
X137981071Y-89055714D01*
X137981071Y-88627142D01*
X137909642Y-88484285D01*
X137838214Y-88412857D01*
X137695357Y-88341428D01*
X137409642Y-88341428D01*
X137266785Y-88412857D01*
X139266785Y-89341428D02*
X139266785Y-88341428D01*
X138623928Y-89341428D02*
X138623928Y-88555714D01*
X138695357Y-88412857D01*
X138838214Y-88341428D01*
X139052500Y-88341428D01*
X139195357Y-88412857D01*
X139266785Y-88484285D01*
X139766785Y-89341428D02*
X140338214Y-89341428D01*
X139981071Y-89841428D02*
X139981071Y-88555714D01*
X140052500Y-88412857D01*
X140195357Y-88341428D01*
X140338214Y-88341428D01*
X142766785Y-88341428D02*
X141909642Y-88341428D01*
X142338214Y-88341428D02*
X142338214Y-89841428D01*
X142195357Y-89627142D01*
X142052500Y-89484285D01*
X141909642Y-89412857D01*
X143338214Y-88770000D02*
X144052500Y-88770000D01*
X143195357Y-88341428D02*
X143695357Y-89841428D01*
X144195357Y-88341428D01*
X146695357Y-88484285D02*
X146623928Y-88412857D01*
X146409642Y-88341428D01*
X146266785Y-88341428D01*
X146052500Y-88412857D01*
X145909642Y-88555714D01*
X145838214Y-88698571D01*
X145766785Y-88984285D01*
X145766785Y-89198571D01*
X145838214Y-89484285D01*
X145909642Y-89627142D01*
X146052500Y-89770000D01*
X146266785Y-89841428D01*
X146409642Y-89841428D01*
X146623928Y-89770000D01*
X146695357Y-89698571D01*
X147338214Y-88341428D02*
X147338214Y-89841428D01*
X147981071Y-88341428D02*
X147981071Y-89127142D01*
X147909642Y-89270000D01*
X147766785Y-89341428D01*
X147552500Y-89341428D01*
X147409642Y-89270000D01*
X147338214Y-89198571D01*
X149338214Y-88341428D02*
X149338214Y-89127142D01*
X149266785Y-89270000D01*
X149123928Y-89341428D01*
X148838214Y-89341428D01*
X148695357Y-89270000D01*
X149338214Y-88412857D02*
X149195357Y-88341428D01*
X148838214Y-88341428D01*
X148695357Y-88412857D01*
X148623928Y-88555714D01*
X148623928Y-88698571D01*
X148695357Y-88841428D01*
X148838214Y-88912857D01*
X149195357Y-88912857D01*
X149338214Y-88984285D01*
X150052500Y-88341428D02*
X150052500Y-89341428D01*
X150052500Y-89055714D02*
X150123928Y-89198571D01*
X150195357Y-89270000D01*
X150338214Y-89341428D01*
X150481071Y-89341428D01*
X151623928Y-89341428D02*
X151623928Y-88127142D01*
X151552500Y-87984285D01*
X151481071Y-87912857D01*
X151338214Y-87841428D01*
X151123928Y-87841428D01*
X150981071Y-87912857D01*
X151623928Y-88412857D02*
X151481071Y-88341428D01*
X151195357Y-88341428D01*
X151052500Y-88412857D01*
X150981071Y-88484285D01*
X150909642Y-88627142D01*
X150909642Y-89055714D01*
X150981071Y-89198571D01*
X151052500Y-89270000D01*
X151195357Y-89341428D01*
X151481071Y-89341428D01*
X151623928Y-89270000D01*
X152909642Y-88412857D02*
X152766785Y-88341428D01*
X152481071Y-88341428D01*
X152338214Y-88412857D01*
X152266785Y-88555714D01*
X152266785Y-89127142D01*
X152338214Y-89270000D01*
X152481071Y-89341428D01*
X152766785Y-89341428D01*
X152909642Y-89270000D01*
X152981071Y-89127142D01*
X152981071Y-88984285D01*
X152266785Y-88841428D01*
X117195357Y-87431428D02*
X117695357Y-85931428D01*
X118195357Y-87431428D01*
X119481071Y-85931428D02*
X118623928Y-85931428D01*
X119052500Y-85931428D02*
X119052500Y-87431428D01*
X118909642Y-87217142D01*
X118766785Y-87074285D01*
X118623928Y-87002857D01*
X120123928Y-86074285D02*
X120195357Y-86002857D01*
X120123928Y-85931428D01*
X120052500Y-86002857D01*
X120123928Y-86074285D01*
X120123928Y-85931428D01*
X121123928Y-87431428D02*
X121266785Y-87431428D01*
X121409642Y-87360000D01*
X121481071Y-87288571D01*
X121552500Y-87145714D01*
X121623928Y-86860000D01*
X121623928Y-86502857D01*
X121552500Y-86217142D01*
X121481071Y-86074285D01*
X121409642Y-86002857D01*
X121266785Y-85931428D01*
X121123928Y-85931428D01*
X120981071Y-86002857D01*
X120909642Y-86074285D01*
X120838214Y-86217142D01*
X120766785Y-86502857D01*
X120766785Y-86860000D01*
X120838214Y-87145714D01*
X120909642Y-87288571D01*
X120981071Y-87360000D01*
X121123928Y-87431428D01*
X122266785Y-86074285D02*
X122338214Y-86002857D01*
X122266785Y-85931428D01*
X122195357Y-86002857D01*
X122266785Y-86074285D01*
X122266785Y-85931428D01*
X123266785Y-87431428D02*
X123409642Y-87431428D01*
X123552500Y-87360000D01*
X123623928Y-87288571D01*
X123695357Y-87145714D01*
X123766785Y-86860000D01*
X123766785Y-86502857D01*
X123695357Y-86217142D01*
X123623928Y-86074285D01*
X123552500Y-86002857D01*
X123409642Y-85931428D01*
X123266785Y-85931428D01*
X123123928Y-86002857D01*
X123052500Y-86074285D01*
X122981071Y-86217142D01*
X122909642Y-86502857D01*
X122909642Y-86860000D01*
X122981071Y-87145714D01*
X123052500Y-87288571D01*
X123123928Y-87360000D01*
X123266785Y-87431428D01*
X165406785Y-52924285D02*
X165335357Y-52852857D01*
X165121071Y-52781428D01*
X164978214Y-52781428D01*
X164763928Y-52852857D01*
X164621071Y-52995714D01*
X164549642Y-53138571D01*
X164478214Y-53424285D01*
X164478214Y-53638571D01*
X164549642Y-53924285D01*
X164621071Y-54067142D01*
X164763928Y-54210000D01*
X164978214Y-54281428D01*
X165121071Y-54281428D01*
X165335357Y-54210000D01*
X165406785Y-54138571D01*
X166049642Y-52781428D02*
X166049642Y-54281428D01*
X166049642Y-53567142D02*
X166906785Y-53567142D01*
X166906785Y-52781428D02*
X166906785Y-54281428D01*
X167549642Y-53210000D02*
X168263928Y-53210000D01*
X167406785Y-52781428D02*
X167906785Y-54281428D01*
X168406785Y-52781428D01*
X169763928Y-52781428D02*
X169263928Y-53495714D01*
X168906785Y-52781428D02*
X168906785Y-54281428D01*
X169478214Y-54281428D01*
X169621071Y-54210000D01*
X169692500Y-54138571D01*
X169763928Y-53995714D01*
X169763928Y-53781428D01*
X169692500Y-53638571D01*
X169621071Y-53567142D01*
X169478214Y-53495714D01*
X168906785Y-53495714D01*
X171192500Y-54210000D02*
X171049642Y-54281428D01*
X170835357Y-54281428D01*
X170621071Y-54210000D01*
X170478214Y-54067142D01*
X170406785Y-53924285D01*
X170335357Y-53638571D01*
X170335357Y-53424285D01*
X170406785Y-53138571D01*
X170478214Y-52995714D01*
X170621071Y-52852857D01*
X170835357Y-52781428D01*
X170978214Y-52781428D01*
X171192500Y-52852857D01*
X171263928Y-52924285D01*
X171263928Y-53424285D01*
X170978214Y-53424285D01*
X171906785Y-53567142D02*
X172406785Y-53567142D01*
X172621071Y-52781428D02*
X171906785Y-52781428D01*
X171906785Y-54281428D01*
X172621071Y-54281428D01*
X132857142Y-58248214D02*
X132928571Y-58462500D01*
X132928571Y-58819642D01*
X132857142Y-58962500D01*
X132785714Y-59033928D01*
X132642857Y-59105357D01*
X132500000Y-59105357D01*
X132357142Y-59033928D01*
X132285714Y-58962500D01*
X132214285Y-58819642D01*
X132142857Y-58533928D01*
X132071428Y-58391071D01*
X132000000Y-58319642D01*
X131857142Y-58248214D01*
X131714285Y-58248214D01*
X131571428Y-58319642D01*
X131500000Y-58391071D01*
X131428571Y-58533928D01*
X131428571Y-58891071D01*
X131500000Y-59105357D01*
X131428571Y-59605357D02*
X132928571Y-59962500D01*
X131857142Y-60248214D01*
X132928571Y-60533928D01*
X131428571Y-60891071D01*
X132928571Y-61462500D02*
X131428571Y-61462500D01*
X131428571Y-61962500D02*
X131428571Y-62819642D01*
X132928571Y-62391071D02*
X131428571Y-62391071D01*
X132785714Y-64176785D02*
X132857142Y-64105357D01*
X132928571Y-63891071D01*
X132928571Y-63748214D01*
X132857142Y-63533928D01*
X132714285Y-63391071D01*
X132571428Y-63319642D01*
X132285714Y-63248214D01*
X132071428Y-63248214D01*
X131785714Y-63319642D01*
X131642857Y-63391071D01*
X131500000Y-63533928D01*
X131428571Y-63748214D01*
X131428571Y-63891071D01*
X131500000Y-64105357D01*
X131571428Y-64176785D01*
X132928571Y-64819642D02*
X131428571Y-64819642D01*
X132142857Y-64819642D02*
X132142857Y-65676785D01*
X132928571Y-65676785D02*
X131428571Y-65676785D01*
X118290000Y-68671428D02*
X118290000Y-70171428D01*
X118861428Y-70171428D01*
X119004285Y-70100000D01*
X119075714Y-70028571D01*
X119147142Y-69885714D01*
X119147142Y-69671428D01*
X119075714Y-69528571D01*
X119004285Y-69457142D01*
X118861428Y-69385714D01*
X118290000Y-69385714D01*
X120647142Y-68671428D02*
X120147142Y-69385714D01*
X119790000Y-68671428D02*
X119790000Y-70171428D01*
X120361428Y-70171428D01*
X120504285Y-70100000D01*
X120575714Y-70028571D01*
X120647142Y-69885714D01*
X120647142Y-69671428D01*
X120575714Y-69528571D01*
X120504285Y-69457142D01*
X120361428Y-69385714D01*
X119790000Y-69385714D01*
X121575714Y-70171428D02*
X121861428Y-70171428D01*
X122004285Y-70100000D01*
X122147142Y-69957142D01*
X122218571Y-69671428D01*
X122218571Y-69171428D01*
X122147142Y-68885714D01*
X122004285Y-68742857D01*
X121861428Y-68671428D01*
X121575714Y-68671428D01*
X121432857Y-68742857D01*
X121290000Y-68885714D01*
X121218571Y-69171428D01*
X121218571Y-69671428D01*
X121290000Y-69957142D01*
X121432857Y-70100000D01*
X121575714Y-70171428D01*
X122647142Y-70171428D02*
X123504285Y-70171428D01*
X123075714Y-68671428D02*
X123075714Y-70171428D01*
X124004285Y-69457142D02*
X124504285Y-69457142D01*
X124718571Y-68671428D02*
X124004285Y-68671428D01*
X124004285Y-70171428D01*
X124718571Y-70171428D01*
X126218571Y-68814285D02*
X126147142Y-68742857D01*
X125932857Y-68671428D01*
X125790000Y-68671428D01*
X125575714Y-68742857D01*
X125432857Y-68885714D01*
X125361428Y-69028571D01*
X125290000Y-69314285D01*
X125290000Y-69528571D01*
X125361428Y-69814285D01*
X125432857Y-69957142D01*
X125575714Y-70100000D01*
X125790000Y-70171428D01*
X125932857Y-70171428D01*
X126147142Y-70100000D01*
X126218571Y-70028571D01*
X126647142Y-70171428D02*
X127504285Y-70171428D01*
X127075714Y-68671428D02*
X127075714Y-70171428D01*
X118829642Y-72367142D02*
X119043928Y-72295714D01*
X119115357Y-72224285D01*
X119186785Y-72081428D01*
X119186785Y-71867142D01*
X119115357Y-71724285D01*
X119043928Y-71652857D01*
X118901071Y-71581428D01*
X118329642Y-71581428D01*
X118329642Y-73081428D01*
X118829642Y-73081428D01*
X118972500Y-73010000D01*
X119043928Y-72938571D01*
X119115357Y-72795714D01*
X119115357Y-72652857D01*
X119043928Y-72510000D01*
X118972500Y-72438571D01*
X118829642Y-72367142D01*
X118329642Y-72367142D01*
X120115357Y-73081428D02*
X120401071Y-73081428D01*
X120543928Y-73010000D01*
X120686785Y-72867142D01*
X120758214Y-72581428D01*
X120758214Y-72081428D01*
X120686785Y-71795714D01*
X120543928Y-71652857D01*
X120401071Y-71581428D01*
X120115357Y-71581428D01*
X119972500Y-71652857D01*
X119829642Y-71795714D01*
X119758214Y-72081428D01*
X119758214Y-72581428D01*
X119829642Y-72867142D01*
X119972500Y-73010000D01*
X120115357Y-73081428D01*
X121686785Y-73081428D02*
X121972500Y-73081428D01*
X122115357Y-73010000D01*
X122258214Y-72867142D01*
X122329642Y-72581428D01*
X122329642Y-72081428D01*
X122258214Y-71795714D01*
X122115357Y-71652857D01*
X121972500Y-71581428D01*
X121686785Y-71581428D01*
X121543928Y-71652857D01*
X121401071Y-71795714D01*
X121329642Y-72081428D01*
X121329642Y-72581428D01*
X121401071Y-72867142D01*
X121543928Y-73010000D01*
X121686785Y-73081428D01*
X122901071Y-71652857D02*
X123115357Y-71581428D01*
X123472500Y-71581428D01*
X123615357Y-71652857D01*
X123686785Y-71724285D01*
X123758214Y-71867142D01*
X123758214Y-72010000D01*
X123686785Y-72152857D01*
X123615357Y-72224285D01*
X123472500Y-72295714D01*
X123186785Y-72367142D01*
X123043928Y-72438571D01*
X122972500Y-72510000D01*
X122901071Y-72652857D01*
X122901071Y-72795714D01*
X122972500Y-72938571D01*
X123043928Y-73010000D01*
X123186785Y-73081428D01*
X123543928Y-73081428D01*
X123758214Y-73010000D01*
X124186785Y-73081428D02*
X125043928Y-73081428D01*
X124615357Y-71581428D02*
X124615357Y-73081428D01*
D13*
X130500000Y-71000000D02*
X130500000Y-52000000D01*
X143500000Y-71000000D02*
X143500000Y-52000000D01*
X174000000Y-71000000D02*
X116000000Y-71000000D01*
D12*
X148155000Y-53716190D02*
G75*
G03X148155000Y-53716190I-925000J0D01*
G01*
D13*
X147735952Y-60138095D02*
X147795476Y-60316666D01*
X147795476Y-60614285D01*
X147735952Y-60733333D01*
X147676428Y-60792857D01*
X147557380Y-60852380D01*
X147438333Y-60852380D01*
X147319285Y-60792857D01*
X147259761Y-60733333D01*
X147200238Y-60614285D01*
X147140714Y-60376190D01*
X147081190Y-60257142D01*
X147021666Y-60197619D01*
X146902619Y-60138095D01*
X146783571Y-60138095D01*
X146664523Y-60197619D01*
X146605000Y-60257142D01*
X146545476Y-60376190D01*
X146545476Y-60673809D01*
X146605000Y-60852380D01*
X147795476Y-61388095D02*
X146545476Y-61388095D01*
X147140714Y-61388095D02*
X147140714Y-62102380D01*
X147795476Y-62102380D02*
X146545476Y-62102380D01*
X146545476Y-62697619D02*
X147557380Y-62697619D01*
X147676428Y-62757142D01*
X147735952Y-62816666D01*
X147795476Y-62935714D01*
X147795476Y-63173809D01*
X147735952Y-63292857D01*
X147676428Y-63352380D01*
X147557380Y-63411904D01*
X146545476Y-63411904D01*
X146545476Y-63828571D02*
X146545476Y-64542857D01*
X147795476Y-64185714D02*
X146545476Y-64185714D01*
X147795476Y-64959523D02*
X146545476Y-64959523D01*
X146545476Y-65257142D01*
X146605000Y-65435714D01*
X146724047Y-65554761D01*
X146843095Y-65614285D01*
X147081190Y-65673809D01*
X147259761Y-65673809D01*
X147497857Y-65614285D01*
X147616904Y-65554761D01*
X147735952Y-65435714D01*
X147795476Y-65257142D01*
X147795476Y-64959523D01*
X146545476Y-66447619D02*
X146545476Y-66685714D01*
X146605000Y-66804761D01*
X146724047Y-66923809D01*
X146962142Y-66983333D01*
X147378809Y-66983333D01*
X147616904Y-66923809D01*
X147735952Y-66804761D01*
X147795476Y-66685714D01*
X147795476Y-66447619D01*
X147735952Y-66328571D01*
X147616904Y-66209523D01*
X147378809Y-66150000D01*
X146962142Y-66150000D01*
X146724047Y-66209523D01*
X146605000Y-66328571D01*
X146545476Y-66447619D01*
X146545476Y-67400000D02*
X147795476Y-67697619D01*
X146902619Y-67935714D01*
X147795476Y-68173809D01*
X146545476Y-68471428D01*
X147795476Y-68947619D02*
X146545476Y-68947619D01*
X147795476Y-69661904D01*
X146545476Y-69661904D01*
D12*
X148155000Y-58516190D02*
G75*
G03X148155000Y-58516190I-925000J0D01*
G01*
X148155000Y-56116190D02*
G75*
G03X148155000Y-56116190I-925000J0D01*
G01*
D11*
X155230000Y-53716190D02*
G75*
G03X155230000Y-53716190I-500000J0D01*
G01*
D12*
X150655000Y-58516190D02*
G75*
G03X150655000Y-58516190I-925000J0D01*
G01*
D13*
X150235952Y-60138095D02*
X150295476Y-60316666D01*
X150295476Y-60614285D01*
X150235952Y-60733333D01*
X150176428Y-60792857D01*
X150057380Y-60852380D01*
X149938333Y-60852380D01*
X149819285Y-60792857D01*
X149759761Y-60733333D01*
X149700238Y-60614285D01*
X149640714Y-60376190D01*
X149581190Y-60257142D01*
X149521666Y-60197619D01*
X149402619Y-60138095D01*
X149283571Y-60138095D01*
X149164523Y-60197619D01*
X149105000Y-60257142D01*
X149045476Y-60376190D01*
X149045476Y-60673809D01*
X149105000Y-60852380D01*
X149045476Y-61209523D02*
X149045476Y-61923809D01*
X150295476Y-61566666D02*
X149045476Y-61566666D01*
X149938333Y-62280952D02*
X149938333Y-62876190D01*
X150295476Y-62161904D02*
X149045476Y-62578571D01*
X150295476Y-62995238D01*
X150295476Y-63411904D02*
X149045476Y-63411904D01*
X150295476Y-64126190D01*
X149045476Y-64126190D01*
X150295476Y-64721428D02*
X149045476Y-64721428D01*
X149045476Y-65019047D01*
X149105000Y-65197619D01*
X149224047Y-65316666D01*
X149343095Y-65376190D01*
X149581190Y-65435714D01*
X149759761Y-65435714D01*
X149997857Y-65376190D01*
X150116904Y-65316666D01*
X150235952Y-65197619D01*
X150295476Y-65019047D01*
X150295476Y-64721428D01*
X149640714Y-66388095D02*
X149700238Y-66566666D01*
X149759761Y-66626190D01*
X149878809Y-66685714D01*
X150057380Y-66685714D01*
X150176428Y-66626190D01*
X150235952Y-66566666D01*
X150295476Y-66447619D01*
X150295476Y-65971428D01*
X149045476Y-65971428D01*
X149045476Y-66388095D01*
X149105000Y-66507142D01*
X149164523Y-66566666D01*
X149283571Y-66626190D01*
X149402619Y-66626190D01*
X149521666Y-66566666D01*
X149581190Y-66507142D01*
X149640714Y-66388095D01*
X149640714Y-65971428D01*
X149700238Y-67459523D02*
X150295476Y-67459523D01*
X149045476Y-67042857D02*
X149700238Y-67459523D01*
X149045476Y-67876190D01*
D11*
X150230000Y-53716190D02*
G75*
G03X150230000Y-53716190I-500000J0D01*
G01*
D12*
X150655000Y-56116190D02*
G75*
G03X150655000Y-56116190I-925000J0D01*
G01*
D13*
X155176428Y-60911904D02*
X155235952Y-60852380D01*
X155295476Y-60673809D01*
X155295476Y-60554761D01*
X155235952Y-60376190D01*
X155116904Y-60257142D01*
X154997857Y-60197619D01*
X154759761Y-60138095D01*
X154581190Y-60138095D01*
X154343095Y-60197619D01*
X154224047Y-60257142D01*
X154105000Y-60376190D01*
X154045476Y-60554761D01*
X154045476Y-60673809D01*
X154105000Y-60852380D01*
X154164523Y-60911904D01*
X155295476Y-61447619D02*
X154045476Y-61447619D01*
X154640714Y-61447619D02*
X154640714Y-62161904D01*
X155295476Y-62161904D02*
X154045476Y-62161904D01*
X154938333Y-62697619D02*
X154938333Y-63292857D01*
X155295476Y-62578571D02*
X154045476Y-62995238D01*
X155295476Y-63411904D01*
X155295476Y-64542857D02*
X154700238Y-64126190D01*
X155295476Y-63828571D02*
X154045476Y-63828571D01*
X154045476Y-64304761D01*
X154105000Y-64423809D01*
X154164523Y-64483333D01*
X154283571Y-64542857D01*
X154462142Y-64542857D01*
X154581190Y-64483333D01*
X154640714Y-64423809D01*
X154700238Y-64304761D01*
X154700238Y-63828571D01*
X154105000Y-65733333D02*
X154045476Y-65614285D01*
X154045476Y-65435714D01*
X154105000Y-65257142D01*
X154224047Y-65138095D01*
X154343095Y-65078571D01*
X154581190Y-65019047D01*
X154759761Y-65019047D01*
X154997857Y-65078571D01*
X155116904Y-65138095D01*
X155235952Y-65257142D01*
X155295476Y-65435714D01*
X155295476Y-65554761D01*
X155235952Y-65733333D01*
X155176428Y-65792857D01*
X154759761Y-65792857D01*
X154759761Y-65554761D01*
X155295476Y-66328571D02*
X154045476Y-66328571D01*
X155295476Y-66923809D02*
X154045476Y-66923809D01*
X155295476Y-67638095D01*
X154045476Y-67638095D01*
X154105000Y-68888095D02*
X154045476Y-68769047D01*
X154045476Y-68590476D01*
X154105000Y-68411904D01*
X154224047Y-68292857D01*
X154343095Y-68233333D01*
X154581190Y-68173809D01*
X154759761Y-68173809D01*
X154997857Y-68233333D01*
X155116904Y-68292857D01*
X155235952Y-68411904D01*
X155295476Y-68590476D01*
X155295476Y-68709523D01*
X155235952Y-68888095D01*
X155176428Y-68947619D01*
X154759761Y-68947619D01*
X154759761Y-68709523D01*
D11*
X155230000Y-56116190D02*
G75*
G03X155230000Y-56116190I-500000J0D01*
G01*
D12*
X155655000Y-58516190D02*
G75*
G03X155655000Y-58516190I-925000J0D01*
G01*
D13*
X157746428Y-60911904D02*
X157805952Y-60852380D01*
X157865476Y-60673809D01*
X157865476Y-60554761D01*
X157805952Y-60376190D01*
X157686904Y-60257142D01*
X157567857Y-60197619D01*
X157329761Y-60138095D01*
X157151190Y-60138095D01*
X156913095Y-60197619D01*
X156794047Y-60257142D01*
X156675000Y-60376190D01*
X156615476Y-60554761D01*
X156615476Y-60673809D01*
X156675000Y-60852380D01*
X156734523Y-60911904D01*
X156615476Y-61685714D02*
X156615476Y-61923809D01*
X156675000Y-62042857D01*
X156794047Y-62161904D01*
X157032142Y-62221428D01*
X157448809Y-62221428D01*
X157686904Y-62161904D01*
X157805952Y-62042857D01*
X157865476Y-61923809D01*
X157865476Y-61685714D01*
X157805952Y-61566666D01*
X157686904Y-61447619D01*
X157448809Y-61388095D01*
X157032142Y-61388095D01*
X156794047Y-61447619D01*
X156675000Y-61566666D01*
X156615476Y-61685714D01*
X157865476Y-62757142D02*
X156615476Y-62757142D01*
X157508333Y-63173809D01*
X156615476Y-63590476D01*
X157865476Y-63590476D01*
X157865476Y-64185714D02*
X156615476Y-64185714D01*
X156615476Y-64661904D01*
X156675000Y-64780952D01*
X156734523Y-64840476D01*
X156853571Y-64900000D01*
X157032142Y-64900000D01*
X157151190Y-64840476D01*
X157210714Y-64780952D01*
X157270238Y-64661904D01*
X157270238Y-64185714D01*
X157865476Y-66030952D02*
X157865476Y-65435714D01*
X156615476Y-65435714D01*
X157210714Y-66447619D02*
X157210714Y-66864285D01*
X157865476Y-67042857D02*
X157865476Y-66447619D01*
X156615476Y-66447619D01*
X156615476Y-67042857D01*
X156615476Y-67400000D02*
X156615476Y-68114285D01*
X157865476Y-67757142D02*
X156615476Y-67757142D01*
X157210714Y-68530952D02*
X157210714Y-68947619D01*
X157865476Y-69126190D02*
X157865476Y-68530952D01*
X156615476Y-68530952D01*
X156615476Y-69126190D01*
D12*
X158155000Y-56116190D02*
G75*
G03X158155000Y-56116190I-925000J0D01*
G01*
D11*
X157730000Y-58516190D02*
G75*
G03X157730000Y-58516190I-500000J0D01*
G01*
X157730000Y-53716190D02*
G75*
G03X157730000Y-53716190I-500000J0D01*
G01*
D13*
X145565476Y-53418809D02*
X144315476Y-53418809D01*
X144315476Y-53894999D01*
X144375000Y-54014047D01*
X144434523Y-54073570D01*
X144553571Y-54133094D01*
X144732142Y-54133094D01*
X144851190Y-54073570D01*
X144910714Y-54014047D01*
X144970238Y-53894999D01*
X144970238Y-53418809D01*
X144434523Y-58189047D02*
X144375000Y-58248571D01*
X144315476Y-58367618D01*
X144315476Y-58665237D01*
X144375000Y-58784285D01*
X144434523Y-58843809D01*
X144553571Y-58903332D01*
X144672619Y-58903332D01*
X144851190Y-58843809D01*
X145565476Y-58129523D01*
X145565476Y-58903332D01*
X145565476Y-56503332D02*
X145565476Y-55789047D01*
X145565476Y-56146190D02*
X144315476Y-56146190D01*
X144494047Y-56027142D01*
X144613095Y-55908094D01*
X144672619Y-55789047D01*
X159045476Y-60019047D02*
X159045476Y-60733333D01*
X160295476Y-60376190D02*
X159045476Y-60376190D01*
X159640714Y-61150000D02*
X159640714Y-61566666D01*
X160295476Y-61745238D02*
X160295476Y-61150000D01*
X159045476Y-61150000D01*
X159045476Y-61745238D01*
X160235952Y-62221428D02*
X160295476Y-62400000D01*
X160295476Y-62697619D01*
X160235952Y-62816666D01*
X160176428Y-62876190D01*
X160057380Y-62935714D01*
X159938333Y-62935714D01*
X159819285Y-62876190D01*
X159759761Y-62816666D01*
X159700238Y-62697619D01*
X159640714Y-62459523D01*
X159581190Y-62340476D01*
X159521666Y-62280952D01*
X159402619Y-62221428D01*
X159283571Y-62221428D01*
X159164523Y-62280952D01*
X159105000Y-62340476D01*
X159045476Y-62459523D01*
X159045476Y-62757142D01*
X159105000Y-62935714D01*
X159045476Y-63292857D02*
X159045476Y-64007142D01*
X160295476Y-63650000D02*
X159045476Y-63650000D01*
D11*
X160230000Y-56116190D02*
G75*
G03X160230000Y-56116190I-500000J0D01*
G01*
X160230000Y-58516190D02*
G75*
G03X160230000Y-58516190I-500000J0D01*
G01*
X160230000Y-53716190D02*
G75*
G03X160230000Y-53716190I-500000J0D01*
G01*
M02*
