G04 #@! TF.GenerationSoftware,KiCad,Pcbnew,(5.1.5)-3*
G04 #@! TF.CreationDate,2020-06-11T09:31:08-05:00*
G04 #@! TF.ProjectId,Li-ion 5A Boost 1A Charge Protect,4c692d69-6f6e-4203-9541-20426f6f7374,rev?*
G04 #@! TF.SameCoordinates,Original*
G04 #@! TF.FileFunction,Copper,L2,Bot*
G04 #@! TF.FilePolarity,Positive*
%FSLAX46Y46*%
G04 Gerber Fmt 4.6, Leading zero omitted, Abs format (unit mm)*
G04 Created by KiCad (PCBNEW (5.1.5)-3) date 2020-06-11 09:31:08*
%MOMM*%
%LPD*%
G04 APERTURE LIST*
%ADD10R,3.000000X5.000000*%
%ADD11R,5.000000X3.000000*%
%ADD12C,2.750000*%
%ADD13C,1.000000*%
%ADD14C,0.800000*%
%ADD15C,0.250000*%
%ADD16C,0.800000*%
%ADD17C,1.600000*%
%ADD18C,0.254000*%
G04 APERTURE END LIST*
D10*
X169900000Y-87105000D03*
X161750000Y-87105000D03*
X119500000Y-56000000D03*
X140350000Y-56000000D03*
X140350000Y-67100000D03*
X127000000Y-56000000D03*
D11*
X170250000Y-68850000D03*
X170200000Y-62850000D03*
D12*
X135610000Y-61500000D03*
X135610000Y-66100000D03*
D13*
X121500000Y-60250000D03*
X121500000Y-64750000D03*
X117750000Y-64750000D03*
X117750000Y-60250000D03*
X133500000Y-56000000D03*
X166440000Y-53980000D03*
X159040000Y-53980000D03*
X160310000Y-63990000D03*
X166250000Y-59500000D03*
X166250000Y-65000000D03*
D14*
X145980000Y-65610000D03*
X146673897Y-54122449D03*
D13*
X118000000Y-89260000D03*
D14*
X131925000Y-88000000D03*
X138625000Y-83900000D03*
X148800000Y-84950000D03*
X146411000Y-88889000D03*
D13*
X167490000Y-73500000D03*
X172500000Y-73500000D03*
X172500000Y-81580000D03*
X167490000Y-81580000D03*
D14*
X155150002Y-53180000D03*
X153200000Y-65630000D03*
X147990000Y-65630000D03*
D13*
X122000000Y-73500000D03*
X118000000Y-73500000D03*
X118000000Y-79850000D03*
X122000000Y-79850000D03*
D14*
X170080000Y-55979999D03*
D13*
X118000000Y-84555000D03*
D14*
X151199999Y-59020000D03*
D13*
X163250000Y-59500000D03*
D14*
X151500000Y-55670000D03*
X156600000Y-67729999D03*
X156830000Y-54170000D03*
X157580000Y-61330000D03*
X155649998Y-64720000D03*
X155650000Y-54867411D03*
D13*
X126480000Y-79850000D03*
X126480000Y-73500000D03*
X136330000Y-73470000D03*
X138500000Y-79850000D03*
X141250000Y-73500000D03*
X148250000Y-73500000D03*
X141250000Y-79850000D03*
X148250000Y-79500000D03*
D14*
X152750000Y-76750000D03*
X152750000Y-74750000D03*
D13*
X163000000Y-79850000D03*
X163000000Y-73500000D03*
X158750000Y-73500000D03*
X158750000Y-79850000D03*
D14*
X146810000Y-55070000D03*
X146810002Y-61940000D03*
X121775000Y-67375000D03*
X119260000Y-67370000D03*
X117750000Y-70050000D03*
X125149996Y-70050000D03*
D15*
X145980000Y-65610000D02*
X145980000Y-54816346D01*
X145980000Y-54816346D02*
X146673897Y-54122449D01*
D16*
X163749999Y-59000001D02*
X163250000Y-59500000D01*
D17*
X163250000Y-60207106D02*
X163250000Y-59500000D01*
X163240000Y-66500000D02*
X163250000Y-66490000D01*
D16*
X170080000Y-55979999D02*
X166770001Y-55979999D01*
D17*
X163250000Y-66490000D02*
X163250000Y-60207106D01*
D16*
X166770001Y-55979999D02*
X163749999Y-59000001D01*
D15*
X151500000Y-55670000D02*
X154630000Y-58800000D01*
X156200001Y-67330000D02*
X156600000Y-67729999D01*
X154630000Y-65759999D02*
X156200001Y-67330000D01*
X154630000Y-58800000D02*
X154630000Y-65759999D01*
X157580000Y-54920000D02*
X157580000Y-61330000D01*
X156830000Y-54170000D02*
X157580000Y-54920000D01*
X155649998Y-54867413D02*
X155650000Y-54867411D01*
X155649998Y-64720000D02*
X155649998Y-54867413D01*
X146810000Y-61939998D02*
X146810002Y-61940000D01*
X146810000Y-55070000D02*
X146810000Y-61939998D01*
X121775000Y-67375000D02*
X119265000Y-67375000D01*
X119265000Y-67375000D02*
X119260000Y-67370000D01*
X117780000Y-70080000D02*
X117750000Y-70050000D01*
X125149996Y-70050000D02*
X125119996Y-70080000D01*
X125119996Y-70080000D02*
X117780000Y-70080000D01*
D18*
G36*
X173822999Y-65373000D02*
G01*
X164377000Y-65373000D01*
X164377000Y-64350000D01*
X167170450Y-64350000D01*
X167180625Y-64453310D01*
X167210760Y-64552650D01*
X167259695Y-64644202D01*
X167325552Y-64724448D01*
X167405798Y-64790305D01*
X167497350Y-64839240D01*
X167596690Y-64869375D01*
X167700000Y-64879550D01*
X169445250Y-64877000D01*
X169577000Y-64745250D01*
X169577000Y-63473000D01*
X170823000Y-63473000D01*
X170823000Y-64745250D01*
X170954750Y-64877000D01*
X172700000Y-64879550D01*
X172803310Y-64869375D01*
X172902650Y-64839240D01*
X172994202Y-64790305D01*
X173074448Y-64724448D01*
X173140305Y-64644202D01*
X173189240Y-64552650D01*
X173219375Y-64453310D01*
X173229550Y-64350000D01*
X173227000Y-63604750D01*
X173095250Y-63473000D01*
X170823000Y-63473000D01*
X169577000Y-63473000D01*
X167304750Y-63473000D01*
X167173000Y-63604750D01*
X167170450Y-64350000D01*
X164377000Y-64350000D01*
X164377000Y-61350000D01*
X167170450Y-61350000D01*
X167173000Y-62095250D01*
X167304750Y-62227000D01*
X169577000Y-62227000D01*
X169577000Y-60954750D01*
X170823000Y-60954750D01*
X170823000Y-62227000D01*
X173095250Y-62227000D01*
X173227000Y-62095250D01*
X173229550Y-61350000D01*
X173219375Y-61246690D01*
X173189240Y-61147350D01*
X173140305Y-61055798D01*
X173074448Y-60975552D01*
X172994202Y-60909695D01*
X172902650Y-60860760D01*
X172803310Y-60830625D01*
X172700000Y-60820450D01*
X170954750Y-60823000D01*
X170823000Y-60954750D01*
X169577000Y-60954750D01*
X169445250Y-60823000D01*
X167700000Y-60820450D01*
X167596690Y-60830625D01*
X167497350Y-60860760D01*
X167405798Y-60909695D01*
X167325552Y-60975552D01*
X167259695Y-61055798D01*
X167210760Y-61147350D01*
X167180625Y-61246690D01*
X167170450Y-61350000D01*
X164377000Y-61350000D01*
X164377000Y-59444636D01*
X164373099Y-59405033D01*
X167071135Y-56706999D01*
X168733219Y-56706999D01*
X168703056Y-56779819D01*
X168678000Y-56905784D01*
X168678000Y-57034216D01*
X168703056Y-57160181D01*
X168752205Y-57278838D01*
X168823558Y-57385626D01*
X168914374Y-57476442D01*
X169021162Y-57547795D01*
X169139819Y-57596944D01*
X169265784Y-57622000D01*
X169394216Y-57622000D01*
X169520181Y-57596944D01*
X169638838Y-57547795D01*
X169745626Y-57476442D01*
X169836442Y-57385626D01*
X169907795Y-57278838D01*
X169956944Y-57160181D01*
X169982000Y-57034216D01*
X169982000Y-56905784D01*
X169956944Y-56779819D01*
X169926781Y-56706999D01*
X170151603Y-56706999D01*
X170186810Y-56699996D01*
X170222517Y-56696479D01*
X170256851Y-56686064D01*
X170292058Y-56679061D01*
X170325220Y-56665325D01*
X170359557Y-56654909D01*
X170391203Y-56637994D01*
X170424364Y-56624258D01*
X170454210Y-56604316D01*
X170485853Y-56587402D01*
X170513588Y-56564641D01*
X170543436Y-56544697D01*
X170568817Y-56519316D01*
X170596554Y-56496553D01*
X170619317Y-56468816D01*
X170644698Y-56443435D01*
X170664642Y-56413587D01*
X170687403Y-56385852D01*
X170704317Y-56354209D01*
X170724259Y-56324363D01*
X170737995Y-56291202D01*
X170754910Y-56259556D01*
X170765326Y-56225219D01*
X170779062Y-56192057D01*
X170786065Y-56156850D01*
X170796480Y-56122516D01*
X170799997Y-56086809D01*
X170807000Y-56051602D01*
X170807000Y-56015707D01*
X170810517Y-55979999D01*
X170807000Y-55944291D01*
X170807000Y-55908396D01*
X170799997Y-55873189D01*
X170796480Y-55837482D01*
X170786065Y-55803148D01*
X170779062Y-55767941D01*
X170765326Y-55734779D01*
X170754910Y-55700442D01*
X170737995Y-55668796D01*
X170724259Y-55635635D01*
X170704317Y-55605789D01*
X170687403Y-55574146D01*
X170664642Y-55546411D01*
X170644698Y-55516563D01*
X170619317Y-55491182D01*
X170596554Y-55463445D01*
X170568817Y-55440682D01*
X170543436Y-55415301D01*
X170513588Y-55395357D01*
X170485853Y-55372596D01*
X170454210Y-55355682D01*
X170424364Y-55335740D01*
X170391203Y-55322004D01*
X170359557Y-55305089D01*
X170325220Y-55294673D01*
X170292058Y-55280937D01*
X170256851Y-55273934D01*
X170222517Y-55263519D01*
X170186810Y-55260002D01*
X170151603Y-55252999D01*
X166805709Y-55252999D01*
X166770001Y-55249482D01*
X166627483Y-55263519D01*
X166514994Y-55297642D01*
X166490444Y-55305089D01*
X166364148Y-55372596D01*
X166253447Y-55463445D01*
X166230684Y-55491182D01*
X163344967Y-58376901D01*
X163250000Y-58367547D01*
X163029070Y-58389307D01*
X162816630Y-58453750D01*
X162620844Y-58558400D01*
X162449236Y-58699235D01*
X162308401Y-58870843D01*
X162203751Y-59066629D01*
X162139307Y-59279069D01*
X162123000Y-59444635D01*
X162123000Y-60262470D01*
X162123001Y-60262480D01*
X162123000Y-65373000D01*
X157512509Y-65373000D01*
X157453881Y-65361338D01*
X157414785Y-65335215D01*
X157388662Y-65296119D01*
X157377000Y-65237491D01*
X157377000Y-62030864D01*
X157508397Y-62057000D01*
X157651603Y-62057000D01*
X157792058Y-62029062D01*
X157924364Y-61974259D01*
X158043436Y-61894698D01*
X158144698Y-61793436D01*
X158224259Y-61674364D01*
X158279062Y-61542058D01*
X158307000Y-61401603D01*
X158307000Y-61258397D01*
X158279062Y-61117942D01*
X158224259Y-60985636D01*
X158144698Y-60866564D01*
X158043436Y-60765302D01*
X158032000Y-60757661D01*
X158032000Y-56905784D01*
X162898000Y-56905784D01*
X162898000Y-57034216D01*
X162923056Y-57160181D01*
X162972205Y-57278838D01*
X163043558Y-57385626D01*
X163134374Y-57476442D01*
X163241162Y-57547795D01*
X163359819Y-57596944D01*
X163485784Y-57622000D01*
X163614216Y-57622000D01*
X163740181Y-57596944D01*
X163858838Y-57547795D01*
X163965626Y-57476442D01*
X164056442Y-57385626D01*
X164127795Y-57278838D01*
X164176944Y-57160181D01*
X164202000Y-57034216D01*
X164202000Y-56905784D01*
X164176944Y-56779819D01*
X164127795Y-56661162D01*
X164056442Y-56554374D01*
X163965626Y-56463558D01*
X163858838Y-56392205D01*
X163740181Y-56343056D01*
X163614216Y-56318000D01*
X163485784Y-56318000D01*
X163359819Y-56343056D01*
X163241162Y-56392205D01*
X163134374Y-56463558D01*
X163043558Y-56554374D01*
X162972205Y-56661162D01*
X162923056Y-56779819D01*
X162898000Y-56905784D01*
X158032000Y-56905784D01*
X158032000Y-54942204D01*
X158034187Y-54919999D01*
X158025460Y-54831392D01*
X157999614Y-54746190D01*
X157993471Y-54734698D01*
X157957643Y-54667667D01*
X157901159Y-54598841D01*
X157883911Y-54584686D01*
X157554317Y-54255093D01*
X157557000Y-54241603D01*
X157557000Y-54098397D01*
X157529062Y-53957942D01*
X157474259Y-53825636D01*
X157394698Y-53706564D01*
X157377000Y-53688866D01*
X157377000Y-52177001D01*
X173822999Y-52177001D01*
X173822999Y-65373000D01*
G37*
X173822999Y-65373000D02*
X164377000Y-65373000D01*
X164377000Y-64350000D01*
X167170450Y-64350000D01*
X167180625Y-64453310D01*
X167210760Y-64552650D01*
X167259695Y-64644202D01*
X167325552Y-64724448D01*
X167405798Y-64790305D01*
X167497350Y-64839240D01*
X167596690Y-64869375D01*
X167700000Y-64879550D01*
X169445250Y-64877000D01*
X169577000Y-64745250D01*
X169577000Y-63473000D01*
X170823000Y-63473000D01*
X170823000Y-64745250D01*
X170954750Y-64877000D01*
X172700000Y-64879550D01*
X172803310Y-64869375D01*
X172902650Y-64839240D01*
X172994202Y-64790305D01*
X173074448Y-64724448D01*
X173140305Y-64644202D01*
X173189240Y-64552650D01*
X173219375Y-64453310D01*
X173229550Y-64350000D01*
X173227000Y-63604750D01*
X173095250Y-63473000D01*
X170823000Y-63473000D01*
X169577000Y-63473000D01*
X167304750Y-63473000D01*
X167173000Y-63604750D01*
X167170450Y-64350000D01*
X164377000Y-64350000D01*
X164377000Y-61350000D01*
X167170450Y-61350000D01*
X167173000Y-62095250D01*
X167304750Y-62227000D01*
X169577000Y-62227000D01*
X169577000Y-60954750D01*
X170823000Y-60954750D01*
X170823000Y-62227000D01*
X173095250Y-62227000D01*
X173227000Y-62095250D01*
X173229550Y-61350000D01*
X173219375Y-61246690D01*
X173189240Y-61147350D01*
X173140305Y-61055798D01*
X173074448Y-60975552D01*
X172994202Y-60909695D01*
X172902650Y-60860760D01*
X172803310Y-60830625D01*
X172700000Y-60820450D01*
X170954750Y-60823000D01*
X170823000Y-60954750D01*
X169577000Y-60954750D01*
X169445250Y-60823000D01*
X167700000Y-60820450D01*
X167596690Y-60830625D01*
X167497350Y-60860760D01*
X167405798Y-60909695D01*
X167325552Y-60975552D01*
X167259695Y-61055798D01*
X167210760Y-61147350D01*
X167180625Y-61246690D01*
X167170450Y-61350000D01*
X164377000Y-61350000D01*
X164377000Y-59444636D01*
X164373099Y-59405033D01*
X167071135Y-56706999D01*
X168733219Y-56706999D01*
X168703056Y-56779819D01*
X168678000Y-56905784D01*
X168678000Y-57034216D01*
X168703056Y-57160181D01*
X168752205Y-57278838D01*
X168823558Y-57385626D01*
X168914374Y-57476442D01*
X169021162Y-57547795D01*
X169139819Y-57596944D01*
X169265784Y-57622000D01*
X169394216Y-57622000D01*
X169520181Y-57596944D01*
X169638838Y-57547795D01*
X169745626Y-57476442D01*
X169836442Y-57385626D01*
X169907795Y-57278838D01*
X169956944Y-57160181D01*
X169982000Y-57034216D01*
X169982000Y-56905784D01*
X169956944Y-56779819D01*
X169926781Y-56706999D01*
X170151603Y-56706999D01*
X170186810Y-56699996D01*
X170222517Y-56696479D01*
X170256851Y-56686064D01*
X170292058Y-56679061D01*
X170325220Y-56665325D01*
X170359557Y-56654909D01*
X170391203Y-56637994D01*
X170424364Y-56624258D01*
X170454210Y-56604316D01*
X170485853Y-56587402D01*
X170513588Y-56564641D01*
X170543436Y-56544697D01*
X170568817Y-56519316D01*
X170596554Y-56496553D01*
X170619317Y-56468816D01*
X170644698Y-56443435D01*
X170664642Y-56413587D01*
X170687403Y-56385852D01*
X170704317Y-56354209D01*
X170724259Y-56324363D01*
X170737995Y-56291202D01*
X170754910Y-56259556D01*
X170765326Y-56225219D01*
X170779062Y-56192057D01*
X170786065Y-56156850D01*
X170796480Y-56122516D01*
X170799997Y-56086809D01*
X170807000Y-56051602D01*
X170807000Y-56015707D01*
X170810517Y-55979999D01*
X170807000Y-55944291D01*
X170807000Y-55908396D01*
X170799997Y-55873189D01*
X170796480Y-55837482D01*
X170786065Y-55803148D01*
X170779062Y-55767941D01*
X170765326Y-55734779D01*
X170754910Y-55700442D01*
X170737995Y-55668796D01*
X170724259Y-55635635D01*
X170704317Y-55605789D01*
X170687403Y-55574146D01*
X170664642Y-55546411D01*
X170644698Y-55516563D01*
X170619317Y-55491182D01*
X170596554Y-55463445D01*
X170568817Y-55440682D01*
X170543436Y-55415301D01*
X170513588Y-55395357D01*
X170485853Y-55372596D01*
X170454210Y-55355682D01*
X170424364Y-55335740D01*
X170391203Y-55322004D01*
X170359557Y-55305089D01*
X170325220Y-55294673D01*
X170292058Y-55280937D01*
X170256851Y-55273934D01*
X170222517Y-55263519D01*
X170186810Y-55260002D01*
X170151603Y-55252999D01*
X166805709Y-55252999D01*
X166770001Y-55249482D01*
X166627483Y-55263519D01*
X166514994Y-55297642D01*
X166490444Y-55305089D01*
X166364148Y-55372596D01*
X166253447Y-55463445D01*
X166230684Y-55491182D01*
X163344967Y-58376901D01*
X163250000Y-58367547D01*
X163029070Y-58389307D01*
X162816630Y-58453750D01*
X162620844Y-58558400D01*
X162449236Y-58699235D01*
X162308401Y-58870843D01*
X162203751Y-59066629D01*
X162139307Y-59279069D01*
X162123000Y-59444635D01*
X162123000Y-60262470D01*
X162123001Y-60262480D01*
X162123000Y-65373000D01*
X157512509Y-65373000D01*
X157453881Y-65361338D01*
X157414785Y-65335215D01*
X157388662Y-65296119D01*
X157377000Y-65237491D01*
X157377000Y-62030864D01*
X157508397Y-62057000D01*
X157651603Y-62057000D01*
X157792058Y-62029062D01*
X157924364Y-61974259D01*
X158043436Y-61894698D01*
X158144698Y-61793436D01*
X158224259Y-61674364D01*
X158279062Y-61542058D01*
X158307000Y-61401603D01*
X158307000Y-61258397D01*
X158279062Y-61117942D01*
X158224259Y-60985636D01*
X158144698Y-60866564D01*
X158043436Y-60765302D01*
X158032000Y-60757661D01*
X158032000Y-56905784D01*
X162898000Y-56905784D01*
X162898000Y-57034216D01*
X162923056Y-57160181D01*
X162972205Y-57278838D01*
X163043558Y-57385626D01*
X163134374Y-57476442D01*
X163241162Y-57547795D01*
X163359819Y-57596944D01*
X163485784Y-57622000D01*
X163614216Y-57622000D01*
X163740181Y-57596944D01*
X163858838Y-57547795D01*
X163965626Y-57476442D01*
X164056442Y-57385626D01*
X164127795Y-57278838D01*
X164176944Y-57160181D01*
X164202000Y-57034216D01*
X164202000Y-56905784D01*
X164176944Y-56779819D01*
X164127795Y-56661162D01*
X164056442Y-56554374D01*
X163965626Y-56463558D01*
X163858838Y-56392205D01*
X163740181Y-56343056D01*
X163614216Y-56318000D01*
X163485784Y-56318000D01*
X163359819Y-56343056D01*
X163241162Y-56392205D01*
X163134374Y-56463558D01*
X163043558Y-56554374D01*
X162972205Y-56661162D01*
X162923056Y-56779819D01*
X162898000Y-56905784D01*
X158032000Y-56905784D01*
X158032000Y-54942204D01*
X158034187Y-54919999D01*
X158025460Y-54831392D01*
X157999614Y-54746190D01*
X157993471Y-54734698D01*
X157957643Y-54667667D01*
X157901159Y-54598841D01*
X157883911Y-54584686D01*
X157554317Y-54255093D01*
X157557000Y-54241603D01*
X157557000Y-54098397D01*
X157529062Y-53957942D01*
X157474259Y-53825636D01*
X157394698Y-53706564D01*
X157377000Y-53688866D01*
X157377000Y-52177001D01*
X173822999Y-52177001D01*
X173822999Y-65373000D01*
G36*
X143046119Y-63888662D02*
G01*
X143085215Y-63914785D01*
X143111338Y-63953881D01*
X143123000Y-64012509D01*
X143123000Y-70737491D01*
X143111338Y-70796119D01*
X143085215Y-70835215D01*
X143046119Y-70861338D01*
X142987491Y-70873000D01*
X139750000Y-70873000D01*
X139725224Y-70875440D01*
X139629553Y-70894470D01*
X139605728Y-70901697D01*
X139583772Y-70913433D01*
X139502666Y-70967626D01*
X139483421Y-70983420D01*
X139467626Y-71002666D01*
X139413433Y-71083772D01*
X139401697Y-71105729D01*
X139394470Y-71129553D01*
X139375440Y-71225224D01*
X139373000Y-71250000D01*
X139373000Y-80487491D01*
X139361338Y-80546119D01*
X139335215Y-80585215D01*
X139296119Y-80611338D01*
X139237491Y-80623000D01*
X124262509Y-80623000D01*
X124203881Y-80611338D01*
X124164785Y-80585215D01*
X124138662Y-80546119D01*
X124127000Y-80487491D01*
X124127000Y-72012509D01*
X124138662Y-71953881D01*
X124164785Y-71914785D01*
X124203881Y-71888662D01*
X124262509Y-71877000D01*
X130500000Y-71877000D01*
X130524776Y-71874560D01*
X130620447Y-71855530D01*
X130644272Y-71848303D01*
X130666228Y-71836567D01*
X130747334Y-71782374D01*
X130766579Y-71766580D01*
X130782374Y-71747334D01*
X130836567Y-71666228D01*
X130848303Y-71644271D01*
X130855530Y-71620447D01*
X130874560Y-71524776D01*
X130877000Y-71500000D01*
X130877000Y-69600000D01*
X138320450Y-69600000D01*
X138330625Y-69703310D01*
X138360760Y-69802650D01*
X138409695Y-69894202D01*
X138475552Y-69974448D01*
X138555798Y-70040305D01*
X138647350Y-70089240D01*
X138746690Y-70119375D01*
X138850000Y-70129550D01*
X139595250Y-70127000D01*
X139727000Y-69995250D01*
X139727000Y-67723000D01*
X140973000Y-67723000D01*
X140973000Y-69995250D01*
X141104750Y-70127000D01*
X141850000Y-70129550D01*
X141953310Y-70119375D01*
X142052650Y-70089240D01*
X142144202Y-70040305D01*
X142224448Y-69974448D01*
X142290305Y-69894202D01*
X142339240Y-69802650D01*
X142369375Y-69703310D01*
X142379550Y-69600000D01*
X142377000Y-67854750D01*
X142245250Y-67723000D01*
X140973000Y-67723000D01*
X139727000Y-67723000D01*
X138454750Y-67723000D01*
X138323000Y-67854750D01*
X138320450Y-69600000D01*
X130877000Y-69600000D01*
X130877000Y-67474632D01*
X134480027Y-67474632D01*
X134631195Y-67741535D01*
X134970251Y-67900949D01*
X135333891Y-67991152D01*
X135708142Y-68008681D01*
X136078622Y-67952859D01*
X136431092Y-67825834D01*
X136588805Y-67741535D01*
X136739973Y-67474632D01*
X135610000Y-66344659D01*
X134480027Y-67474632D01*
X130877000Y-67474632D01*
X130877000Y-66198142D01*
X133701319Y-66198142D01*
X133757141Y-66568622D01*
X133884166Y-66921092D01*
X133968465Y-67078805D01*
X134235368Y-67229973D01*
X135365341Y-66100000D01*
X135854659Y-66100000D01*
X136984632Y-67229973D01*
X137251535Y-67078805D01*
X137410949Y-66739749D01*
X137501152Y-66376109D01*
X137518681Y-66001858D01*
X137462859Y-65631378D01*
X137335834Y-65278908D01*
X137251535Y-65121195D01*
X136984632Y-64970027D01*
X135854659Y-66100000D01*
X135365341Y-66100000D01*
X134235368Y-64970027D01*
X133968465Y-65121195D01*
X133809051Y-65460251D01*
X133718848Y-65823891D01*
X133701319Y-66198142D01*
X130877000Y-66198142D01*
X130877000Y-64725368D01*
X134480027Y-64725368D01*
X135610000Y-65855341D01*
X136739973Y-64725368D01*
X136668968Y-64600000D01*
X138320450Y-64600000D01*
X138323000Y-66345250D01*
X138454750Y-66477000D01*
X139727000Y-66477000D01*
X139727000Y-64204750D01*
X140973000Y-64204750D01*
X140973000Y-66477000D01*
X142245250Y-66477000D01*
X142377000Y-66345250D01*
X142379550Y-64600000D01*
X142369375Y-64496690D01*
X142339240Y-64397350D01*
X142290305Y-64305798D01*
X142224448Y-64225552D01*
X142144202Y-64159695D01*
X142052650Y-64110760D01*
X141953310Y-64080625D01*
X141850000Y-64070450D01*
X141104750Y-64073000D01*
X140973000Y-64204750D01*
X139727000Y-64204750D01*
X139595250Y-64073000D01*
X138850000Y-64070450D01*
X138746690Y-64080625D01*
X138647350Y-64110760D01*
X138555798Y-64159695D01*
X138475552Y-64225552D01*
X138409695Y-64305798D01*
X138360760Y-64397350D01*
X138330625Y-64496690D01*
X138320450Y-64600000D01*
X136668968Y-64600000D01*
X136588805Y-64458465D01*
X136249749Y-64299051D01*
X135886109Y-64208848D01*
X135511858Y-64191319D01*
X135141378Y-64247141D01*
X134788908Y-64374166D01*
X134631195Y-64458465D01*
X134480027Y-64725368D01*
X130877000Y-64725368D01*
X130877000Y-64012509D01*
X130888662Y-63953881D01*
X130914785Y-63914785D01*
X130953881Y-63888662D01*
X131012509Y-63877000D01*
X142987491Y-63877000D01*
X143046119Y-63888662D01*
G37*
X143046119Y-63888662D02*
X143085215Y-63914785D01*
X143111338Y-63953881D01*
X143123000Y-64012509D01*
X143123000Y-70737491D01*
X143111338Y-70796119D01*
X143085215Y-70835215D01*
X143046119Y-70861338D01*
X142987491Y-70873000D01*
X139750000Y-70873000D01*
X139725224Y-70875440D01*
X139629553Y-70894470D01*
X139605728Y-70901697D01*
X139583772Y-70913433D01*
X139502666Y-70967626D01*
X139483421Y-70983420D01*
X139467626Y-71002666D01*
X139413433Y-71083772D01*
X139401697Y-71105729D01*
X139394470Y-71129553D01*
X139375440Y-71225224D01*
X139373000Y-71250000D01*
X139373000Y-80487491D01*
X139361338Y-80546119D01*
X139335215Y-80585215D01*
X139296119Y-80611338D01*
X139237491Y-80623000D01*
X124262509Y-80623000D01*
X124203881Y-80611338D01*
X124164785Y-80585215D01*
X124138662Y-80546119D01*
X124127000Y-80487491D01*
X124127000Y-72012509D01*
X124138662Y-71953881D01*
X124164785Y-71914785D01*
X124203881Y-71888662D01*
X124262509Y-71877000D01*
X130500000Y-71877000D01*
X130524776Y-71874560D01*
X130620447Y-71855530D01*
X130644272Y-71848303D01*
X130666228Y-71836567D01*
X130747334Y-71782374D01*
X130766579Y-71766580D01*
X130782374Y-71747334D01*
X130836567Y-71666228D01*
X130848303Y-71644271D01*
X130855530Y-71620447D01*
X130874560Y-71524776D01*
X130877000Y-71500000D01*
X130877000Y-69600000D01*
X138320450Y-69600000D01*
X138330625Y-69703310D01*
X138360760Y-69802650D01*
X138409695Y-69894202D01*
X138475552Y-69974448D01*
X138555798Y-70040305D01*
X138647350Y-70089240D01*
X138746690Y-70119375D01*
X138850000Y-70129550D01*
X139595250Y-70127000D01*
X139727000Y-69995250D01*
X139727000Y-67723000D01*
X140973000Y-67723000D01*
X140973000Y-69995250D01*
X141104750Y-70127000D01*
X141850000Y-70129550D01*
X141953310Y-70119375D01*
X142052650Y-70089240D01*
X142144202Y-70040305D01*
X142224448Y-69974448D01*
X142290305Y-69894202D01*
X142339240Y-69802650D01*
X142369375Y-69703310D01*
X142379550Y-69600000D01*
X142377000Y-67854750D01*
X142245250Y-67723000D01*
X140973000Y-67723000D01*
X139727000Y-67723000D01*
X138454750Y-67723000D01*
X138323000Y-67854750D01*
X138320450Y-69600000D01*
X130877000Y-69600000D01*
X130877000Y-67474632D01*
X134480027Y-67474632D01*
X134631195Y-67741535D01*
X134970251Y-67900949D01*
X135333891Y-67991152D01*
X135708142Y-68008681D01*
X136078622Y-67952859D01*
X136431092Y-67825834D01*
X136588805Y-67741535D01*
X136739973Y-67474632D01*
X135610000Y-66344659D01*
X134480027Y-67474632D01*
X130877000Y-67474632D01*
X130877000Y-66198142D01*
X133701319Y-66198142D01*
X133757141Y-66568622D01*
X133884166Y-66921092D01*
X133968465Y-67078805D01*
X134235368Y-67229973D01*
X135365341Y-66100000D01*
X135854659Y-66100000D01*
X136984632Y-67229973D01*
X137251535Y-67078805D01*
X137410949Y-66739749D01*
X137501152Y-66376109D01*
X137518681Y-66001858D01*
X137462859Y-65631378D01*
X137335834Y-65278908D01*
X137251535Y-65121195D01*
X136984632Y-64970027D01*
X135854659Y-66100000D01*
X135365341Y-66100000D01*
X134235368Y-64970027D01*
X133968465Y-65121195D01*
X133809051Y-65460251D01*
X133718848Y-65823891D01*
X133701319Y-66198142D01*
X130877000Y-66198142D01*
X130877000Y-64725368D01*
X134480027Y-64725368D01*
X135610000Y-65855341D01*
X136739973Y-64725368D01*
X136668968Y-64600000D01*
X138320450Y-64600000D01*
X138323000Y-66345250D01*
X138454750Y-66477000D01*
X139727000Y-66477000D01*
X139727000Y-64204750D01*
X140973000Y-64204750D01*
X140973000Y-66477000D01*
X142245250Y-66477000D01*
X142377000Y-66345250D01*
X142379550Y-64600000D01*
X142369375Y-64496690D01*
X142339240Y-64397350D01*
X142290305Y-64305798D01*
X142224448Y-64225552D01*
X142144202Y-64159695D01*
X142052650Y-64110760D01*
X141953310Y-64080625D01*
X141850000Y-64070450D01*
X141104750Y-64073000D01*
X140973000Y-64204750D01*
X139727000Y-64204750D01*
X139595250Y-64073000D01*
X138850000Y-64070450D01*
X138746690Y-64080625D01*
X138647350Y-64110760D01*
X138555798Y-64159695D01*
X138475552Y-64225552D01*
X138409695Y-64305798D01*
X138360760Y-64397350D01*
X138330625Y-64496690D01*
X138320450Y-64600000D01*
X136668968Y-64600000D01*
X136588805Y-64458465D01*
X136249749Y-64299051D01*
X135886109Y-64208848D01*
X135511858Y-64191319D01*
X135141378Y-64247141D01*
X134788908Y-64374166D01*
X134631195Y-64458465D01*
X134480027Y-64725368D01*
X130877000Y-64725368D01*
X130877000Y-64012509D01*
X130888662Y-63953881D01*
X130914785Y-63914785D01*
X130953881Y-63888662D01*
X131012509Y-63877000D01*
X142987491Y-63877000D01*
X143046119Y-63888662D01*
G36*
X143123000Y-63237735D02*
G01*
X143111352Y-63296330D01*
X143085257Y-63335413D01*
X143046197Y-63361546D01*
X142987617Y-63373249D01*
X135898697Y-63379969D01*
X136078622Y-63352859D01*
X136431092Y-63225834D01*
X136588805Y-63141535D01*
X136739973Y-62874632D01*
X135610000Y-61744659D01*
X134480027Y-62874632D01*
X134631195Y-63141535D01*
X134970251Y-63300949D01*
X135291131Y-63380545D01*
X124262631Y-63391000D01*
X124203964Y-63379381D01*
X124164829Y-63353265D01*
X124138676Y-63314154D01*
X124127000Y-63255494D01*
X124127000Y-61598142D01*
X133701319Y-61598142D01*
X133757141Y-61968622D01*
X133884166Y-62321092D01*
X133968465Y-62478805D01*
X134235368Y-62629973D01*
X135365341Y-61500000D01*
X135854659Y-61500000D01*
X136984632Y-62629973D01*
X137251535Y-62478805D01*
X137410949Y-62139749D01*
X137501152Y-61776109D01*
X137518681Y-61401858D01*
X137462859Y-61031378D01*
X137335834Y-60678908D01*
X137251535Y-60521195D01*
X136984632Y-60370027D01*
X135854659Y-61500000D01*
X135365341Y-61500000D01*
X134235368Y-60370027D01*
X133968465Y-60521195D01*
X133809051Y-60860251D01*
X133718848Y-61223891D01*
X133701319Y-61598142D01*
X124127000Y-61598142D01*
X124127000Y-60125368D01*
X134480027Y-60125368D01*
X135610000Y-61255341D01*
X136739973Y-60125368D01*
X136588805Y-59858465D01*
X136249749Y-59699051D01*
X135886109Y-59608848D01*
X135511858Y-59591319D01*
X135141378Y-59647141D01*
X134788908Y-59774166D01*
X134631195Y-59858465D01*
X134480027Y-60125368D01*
X124127000Y-60125368D01*
X124127000Y-58500000D01*
X124970450Y-58500000D01*
X124980625Y-58603310D01*
X125010760Y-58702650D01*
X125059695Y-58794202D01*
X125125552Y-58874448D01*
X125205798Y-58940305D01*
X125297350Y-58989240D01*
X125396690Y-59019375D01*
X125500000Y-59029550D01*
X126245250Y-59027000D01*
X126377000Y-58895250D01*
X126377000Y-56623000D01*
X127623000Y-56623000D01*
X127623000Y-58895250D01*
X127754750Y-59027000D01*
X128500000Y-59029550D01*
X128603310Y-59019375D01*
X128702650Y-58989240D01*
X128794202Y-58940305D01*
X128874448Y-58874448D01*
X128940305Y-58794202D01*
X128989240Y-58702650D01*
X129019375Y-58603310D01*
X129029550Y-58500000D01*
X138320450Y-58500000D01*
X138330625Y-58603310D01*
X138360760Y-58702650D01*
X138409695Y-58794202D01*
X138475552Y-58874448D01*
X138555798Y-58940305D01*
X138647350Y-58989240D01*
X138746690Y-59019375D01*
X138850000Y-59029550D01*
X139595250Y-59027000D01*
X139727000Y-58895250D01*
X139727000Y-56623000D01*
X140973000Y-56623000D01*
X140973000Y-58895250D01*
X141104750Y-59027000D01*
X141850000Y-59029550D01*
X141953310Y-59019375D01*
X142052650Y-58989240D01*
X142144202Y-58940305D01*
X142224448Y-58874448D01*
X142290305Y-58794202D01*
X142339240Y-58702650D01*
X142369375Y-58603310D01*
X142379550Y-58500000D01*
X142377000Y-56754750D01*
X142245250Y-56623000D01*
X140973000Y-56623000D01*
X139727000Y-56623000D01*
X138454750Y-56623000D01*
X138323000Y-56754750D01*
X138320450Y-58500000D01*
X129029550Y-58500000D01*
X129027000Y-56754750D01*
X128895250Y-56623000D01*
X127623000Y-56623000D01*
X126377000Y-56623000D01*
X125104750Y-56623000D01*
X124973000Y-56754750D01*
X124970450Y-58500000D01*
X124127000Y-58500000D01*
X124127000Y-53500000D01*
X124970450Y-53500000D01*
X124973000Y-55245250D01*
X125104750Y-55377000D01*
X126377000Y-55377000D01*
X126377000Y-53104750D01*
X127623000Y-53104750D01*
X127623000Y-55377000D01*
X128895250Y-55377000D01*
X129027000Y-55245250D01*
X129029550Y-53500000D01*
X138320450Y-53500000D01*
X138323000Y-55245250D01*
X138454750Y-55377000D01*
X139727000Y-55377000D01*
X139727000Y-53104750D01*
X140973000Y-53104750D01*
X140973000Y-55377000D01*
X142245250Y-55377000D01*
X142377000Y-55245250D01*
X142379550Y-53500000D01*
X142369375Y-53396690D01*
X142339240Y-53297350D01*
X142290305Y-53205798D01*
X142224448Y-53125552D01*
X142144202Y-53059695D01*
X142052650Y-53010760D01*
X141953310Y-52980625D01*
X141850000Y-52970450D01*
X141104750Y-52973000D01*
X140973000Y-53104750D01*
X139727000Y-53104750D01*
X139595250Y-52973000D01*
X138850000Y-52970450D01*
X138746690Y-52980625D01*
X138647350Y-53010760D01*
X138555798Y-53059695D01*
X138475552Y-53125552D01*
X138409695Y-53205798D01*
X138360760Y-53297350D01*
X138330625Y-53396690D01*
X138320450Y-53500000D01*
X129029550Y-53500000D01*
X129019375Y-53396690D01*
X128989240Y-53297350D01*
X128940305Y-53205798D01*
X128874448Y-53125552D01*
X128794202Y-53059695D01*
X128702650Y-53010760D01*
X128603310Y-52980625D01*
X128500000Y-52970450D01*
X127754750Y-52973000D01*
X127623000Y-53104750D01*
X126377000Y-53104750D01*
X126245250Y-52973000D01*
X125500000Y-52970450D01*
X125396690Y-52980625D01*
X125297350Y-53010760D01*
X125205798Y-53059695D01*
X125125552Y-53125552D01*
X125059695Y-53205798D01*
X125010760Y-53297350D01*
X124980625Y-53396690D01*
X124970450Y-53500000D01*
X124127000Y-53500000D01*
X124127000Y-52177001D01*
X143123000Y-52177001D01*
X143123000Y-63237735D01*
G37*
X143123000Y-63237735D02*
X143111352Y-63296330D01*
X143085257Y-63335413D01*
X143046197Y-63361546D01*
X142987617Y-63373249D01*
X135898697Y-63379969D01*
X136078622Y-63352859D01*
X136431092Y-63225834D01*
X136588805Y-63141535D01*
X136739973Y-62874632D01*
X135610000Y-61744659D01*
X134480027Y-62874632D01*
X134631195Y-63141535D01*
X134970251Y-63300949D01*
X135291131Y-63380545D01*
X124262631Y-63391000D01*
X124203964Y-63379381D01*
X124164829Y-63353265D01*
X124138676Y-63314154D01*
X124127000Y-63255494D01*
X124127000Y-61598142D01*
X133701319Y-61598142D01*
X133757141Y-61968622D01*
X133884166Y-62321092D01*
X133968465Y-62478805D01*
X134235368Y-62629973D01*
X135365341Y-61500000D01*
X135854659Y-61500000D01*
X136984632Y-62629973D01*
X137251535Y-62478805D01*
X137410949Y-62139749D01*
X137501152Y-61776109D01*
X137518681Y-61401858D01*
X137462859Y-61031378D01*
X137335834Y-60678908D01*
X137251535Y-60521195D01*
X136984632Y-60370027D01*
X135854659Y-61500000D01*
X135365341Y-61500000D01*
X134235368Y-60370027D01*
X133968465Y-60521195D01*
X133809051Y-60860251D01*
X133718848Y-61223891D01*
X133701319Y-61598142D01*
X124127000Y-61598142D01*
X124127000Y-60125368D01*
X134480027Y-60125368D01*
X135610000Y-61255341D01*
X136739973Y-60125368D01*
X136588805Y-59858465D01*
X136249749Y-59699051D01*
X135886109Y-59608848D01*
X135511858Y-59591319D01*
X135141378Y-59647141D01*
X134788908Y-59774166D01*
X134631195Y-59858465D01*
X134480027Y-60125368D01*
X124127000Y-60125368D01*
X124127000Y-58500000D01*
X124970450Y-58500000D01*
X124980625Y-58603310D01*
X125010760Y-58702650D01*
X125059695Y-58794202D01*
X125125552Y-58874448D01*
X125205798Y-58940305D01*
X125297350Y-58989240D01*
X125396690Y-59019375D01*
X125500000Y-59029550D01*
X126245250Y-59027000D01*
X126377000Y-58895250D01*
X126377000Y-56623000D01*
X127623000Y-56623000D01*
X127623000Y-58895250D01*
X127754750Y-59027000D01*
X128500000Y-59029550D01*
X128603310Y-59019375D01*
X128702650Y-58989240D01*
X128794202Y-58940305D01*
X128874448Y-58874448D01*
X128940305Y-58794202D01*
X128989240Y-58702650D01*
X129019375Y-58603310D01*
X129029550Y-58500000D01*
X138320450Y-58500000D01*
X138330625Y-58603310D01*
X138360760Y-58702650D01*
X138409695Y-58794202D01*
X138475552Y-58874448D01*
X138555798Y-58940305D01*
X138647350Y-58989240D01*
X138746690Y-59019375D01*
X138850000Y-59029550D01*
X139595250Y-59027000D01*
X139727000Y-58895250D01*
X139727000Y-56623000D01*
X140973000Y-56623000D01*
X140973000Y-58895250D01*
X141104750Y-59027000D01*
X141850000Y-59029550D01*
X141953310Y-59019375D01*
X142052650Y-58989240D01*
X142144202Y-58940305D01*
X142224448Y-58874448D01*
X142290305Y-58794202D01*
X142339240Y-58702650D01*
X142369375Y-58603310D01*
X142379550Y-58500000D01*
X142377000Y-56754750D01*
X142245250Y-56623000D01*
X140973000Y-56623000D01*
X139727000Y-56623000D01*
X138454750Y-56623000D01*
X138323000Y-56754750D01*
X138320450Y-58500000D01*
X129029550Y-58500000D01*
X129027000Y-56754750D01*
X128895250Y-56623000D01*
X127623000Y-56623000D01*
X126377000Y-56623000D01*
X125104750Y-56623000D01*
X124973000Y-56754750D01*
X124970450Y-58500000D01*
X124127000Y-58500000D01*
X124127000Y-53500000D01*
X124970450Y-53500000D01*
X124973000Y-55245250D01*
X125104750Y-55377000D01*
X126377000Y-55377000D01*
X126377000Y-53104750D01*
X127623000Y-53104750D01*
X127623000Y-55377000D01*
X128895250Y-55377000D01*
X129027000Y-55245250D01*
X129029550Y-53500000D01*
X138320450Y-53500000D01*
X138323000Y-55245250D01*
X138454750Y-55377000D01*
X139727000Y-55377000D01*
X139727000Y-53104750D01*
X140973000Y-53104750D01*
X140973000Y-55377000D01*
X142245250Y-55377000D01*
X142377000Y-55245250D01*
X142379550Y-53500000D01*
X142369375Y-53396690D01*
X142339240Y-53297350D01*
X142290305Y-53205798D01*
X142224448Y-53125552D01*
X142144202Y-53059695D01*
X142052650Y-53010760D01*
X141953310Y-52980625D01*
X141850000Y-52970450D01*
X141104750Y-52973000D01*
X140973000Y-53104750D01*
X139727000Y-53104750D01*
X139595250Y-52973000D01*
X138850000Y-52970450D01*
X138746690Y-52980625D01*
X138647350Y-53010760D01*
X138555798Y-53059695D01*
X138475552Y-53125552D01*
X138409695Y-53205798D01*
X138360760Y-53297350D01*
X138330625Y-53396690D01*
X138320450Y-53500000D01*
X129029550Y-53500000D01*
X129019375Y-53396690D01*
X128989240Y-53297350D01*
X128940305Y-53205798D01*
X128874448Y-53125552D01*
X128794202Y-53059695D01*
X128702650Y-53010760D01*
X128603310Y-52980625D01*
X128500000Y-52970450D01*
X127754750Y-52973000D01*
X127623000Y-53104750D01*
X126377000Y-53104750D01*
X126245250Y-52973000D01*
X125500000Y-52970450D01*
X125396690Y-52980625D01*
X125297350Y-53010760D01*
X125205798Y-53059695D01*
X125125552Y-53125552D01*
X125059695Y-53205798D01*
X125010760Y-53297350D01*
X124980625Y-53396690D01*
X124970450Y-53500000D01*
X124127000Y-53500000D01*
X124127000Y-52177001D01*
X143123000Y-52177001D01*
X143123000Y-63237735D01*
G36*
X123373000Y-66737632D02*
G01*
X123361347Y-66796237D01*
X123335239Y-66835327D01*
X123296163Y-66861456D01*
X123237564Y-66873141D01*
X122301777Y-66873643D01*
X122238436Y-66810302D01*
X122119364Y-66730741D01*
X121987058Y-66675938D01*
X121846603Y-66648000D01*
X121703397Y-66648000D01*
X121562942Y-66675938D01*
X121430636Y-66730741D01*
X121311564Y-66810302D01*
X121247657Y-66874209D01*
X119793124Y-66874990D01*
X119723436Y-66805302D01*
X119604364Y-66725741D01*
X119472058Y-66670938D01*
X119331603Y-66643000D01*
X119188397Y-66643000D01*
X119047942Y-66670938D01*
X118915636Y-66725741D01*
X118796564Y-66805302D01*
X118726303Y-66875563D01*
X116177001Y-66876931D01*
X116177001Y-58500000D01*
X117470450Y-58500000D01*
X117480625Y-58603310D01*
X117510760Y-58702650D01*
X117559695Y-58794202D01*
X117625552Y-58874448D01*
X117705798Y-58940305D01*
X117797350Y-58989240D01*
X117896690Y-59019375D01*
X118000000Y-59029550D01*
X118745250Y-59027000D01*
X118877000Y-58895250D01*
X118877000Y-56623000D01*
X120123000Y-56623000D01*
X120123000Y-58895250D01*
X120254750Y-59027000D01*
X121000000Y-59029550D01*
X121103310Y-59019375D01*
X121202650Y-58989240D01*
X121294202Y-58940305D01*
X121374448Y-58874448D01*
X121440305Y-58794202D01*
X121489240Y-58702650D01*
X121519375Y-58603310D01*
X121529550Y-58500000D01*
X121527000Y-56754750D01*
X121395250Y-56623000D01*
X120123000Y-56623000D01*
X118877000Y-56623000D01*
X117604750Y-56623000D01*
X117473000Y-56754750D01*
X117470450Y-58500000D01*
X116177001Y-58500000D01*
X116177001Y-53500000D01*
X117470450Y-53500000D01*
X117473000Y-55245250D01*
X117604750Y-55377000D01*
X118877000Y-55377000D01*
X118877000Y-53104750D01*
X120123000Y-53104750D01*
X120123000Y-55377000D01*
X121395250Y-55377000D01*
X121527000Y-55245250D01*
X121529550Y-53500000D01*
X121519375Y-53396690D01*
X121489240Y-53297350D01*
X121440305Y-53205798D01*
X121374448Y-53125552D01*
X121294202Y-53059695D01*
X121202650Y-53010760D01*
X121103310Y-52980625D01*
X121000000Y-52970450D01*
X120254750Y-52973000D01*
X120123000Y-53104750D01*
X118877000Y-53104750D01*
X118745250Y-52973000D01*
X118000000Y-52970450D01*
X117896690Y-52980625D01*
X117797350Y-53010760D01*
X117705798Y-53059695D01*
X117625552Y-53125552D01*
X117559695Y-53205798D01*
X117510760Y-53297350D01*
X117480625Y-53396690D01*
X117470450Y-53500000D01*
X116177001Y-53500000D01*
X116177001Y-52177001D01*
X123373000Y-52177001D01*
X123373000Y-66737632D01*
G37*
X123373000Y-66737632D02*
X123361347Y-66796237D01*
X123335239Y-66835327D01*
X123296163Y-66861456D01*
X123237564Y-66873141D01*
X122301777Y-66873643D01*
X122238436Y-66810302D01*
X122119364Y-66730741D01*
X121987058Y-66675938D01*
X121846603Y-66648000D01*
X121703397Y-66648000D01*
X121562942Y-66675938D01*
X121430636Y-66730741D01*
X121311564Y-66810302D01*
X121247657Y-66874209D01*
X119793124Y-66874990D01*
X119723436Y-66805302D01*
X119604364Y-66725741D01*
X119472058Y-66670938D01*
X119331603Y-66643000D01*
X119188397Y-66643000D01*
X119047942Y-66670938D01*
X118915636Y-66725741D01*
X118796564Y-66805302D01*
X118726303Y-66875563D01*
X116177001Y-66876931D01*
X116177001Y-58500000D01*
X117470450Y-58500000D01*
X117480625Y-58603310D01*
X117510760Y-58702650D01*
X117559695Y-58794202D01*
X117625552Y-58874448D01*
X117705798Y-58940305D01*
X117797350Y-58989240D01*
X117896690Y-59019375D01*
X118000000Y-59029550D01*
X118745250Y-59027000D01*
X118877000Y-58895250D01*
X118877000Y-56623000D01*
X120123000Y-56623000D01*
X120123000Y-58895250D01*
X120254750Y-59027000D01*
X121000000Y-59029550D01*
X121103310Y-59019375D01*
X121202650Y-58989240D01*
X121294202Y-58940305D01*
X121374448Y-58874448D01*
X121440305Y-58794202D01*
X121489240Y-58702650D01*
X121519375Y-58603310D01*
X121529550Y-58500000D01*
X121527000Y-56754750D01*
X121395250Y-56623000D01*
X120123000Y-56623000D01*
X118877000Y-56623000D01*
X117604750Y-56623000D01*
X117473000Y-56754750D01*
X117470450Y-58500000D01*
X116177001Y-58500000D01*
X116177001Y-53500000D01*
X117470450Y-53500000D01*
X117473000Y-55245250D01*
X117604750Y-55377000D01*
X118877000Y-55377000D01*
X118877000Y-53104750D01*
X120123000Y-53104750D01*
X120123000Y-55377000D01*
X121395250Y-55377000D01*
X121527000Y-55245250D01*
X121529550Y-53500000D01*
X121519375Y-53396690D01*
X121489240Y-53297350D01*
X121440305Y-53205798D01*
X121374448Y-53125552D01*
X121294202Y-53059695D01*
X121202650Y-53010760D01*
X121103310Y-52980625D01*
X121000000Y-52970450D01*
X120254750Y-52973000D01*
X120123000Y-53104750D01*
X118877000Y-53104750D01*
X118745250Y-52973000D01*
X118000000Y-52970450D01*
X117896690Y-52980625D01*
X117797350Y-53010760D01*
X117705798Y-53059695D01*
X117625552Y-53125552D01*
X117559695Y-53205798D01*
X117510760Y-53297350D01*
X117480625Y-53396690D01*
X117470450Y-53500000D01*
X116177001Y-53500000D01*
X116177001Y-52177001D01*
X123373000Y-52177001D01*
X123373000Y-66737632D01*
G36*
X156873000Y-53443000D02*
G01*
X156758397Y-53443000D01*
X156617942Y-53470938D01*
X156485636Y-53525741D01*
X156366564Y-53605302D01*
X156265302Y-53706564D01*
X156185741Y-53825636D01*
X156130938Y-53957942D01*
X156103000Y-54098397D01*
X156103000Y-54241603D01*
X156115582Y-54304859D01*
X156113436Y-54302713D01*
X155994364Y-54223152D01*
X155862058Y-54168349D01*
X155721603Y-54140411D01*
X155578397Y-54140411D01*
X155437942Y-54168349D01*
X155305636Y-54223152D01*
X155186564Y-54302713D01*
X155085302Y-54403975D01*
X155005741Y-54523047D01*
X154950938Y-54655353D01*
X154923000Y-54795808D01*
X154923000Y-54939014D01*
X154950938Y-55079469D01*
X155005741Y-55211775D01*
X155085302Y-55330847D01*
X155186564Y-55432109D01*
X155197999Y-55439750D01*
X155197998Y-64147661D01*
X155186562Y-64155302D01*
X155085300Y-64256564D01*
X155082000Y-64261503D01*
X155082000Y-58822202D01*
X155084187Y-58799999D01*
X155077523Y-58732343D01*
X155075460Y-58711393D01*
X155049614Y-58626190D01*
X155007643Y-58547667D01*
X154951159Y-58478841D01*
X154933912Y-58464687D01*
X152224317Y-55755093D01*
X152227000Y-55741603D01*
X152227000Y-55598397D01*
X152199062Y-55457942D01*
X152144259Y-55325636D01*
X152064698Y-55206564D01*
X151963436Y-55105302D01*
X151844364Y-55025741D01*
X151712058Y-54970938D01*
X151571603Y-54943000D01*
X151428397Y-54943000D01*
X151287942Y-54970938D01*
X151155636Y-55025741D01*
X151036564Y-55105302D01*
X150935302Y-55206564D01*
X150855741Y-55325636D01*
X150800938Y-55457942D01*
X150773000Y-55598397D01*
X150773000Y-55741603D01*
X150800938Y-55882058D01*
X150855741Y-56014364D01*
X150935302Y-56133436D01*
X151036564Y-56234698D01*
X151155636Y-56314259D01*
X151287942Y-56369062D01*
X151428397Y-56397000D01*
X151571603Y-56397000D01*
X151585093Y-56394317D01*
X154178000Y-58987225D01*
X154178001Y-65737784D01*
X154175813Y-65759999D01*
X154184540Y-65848606D01*
X154210386Y-65933808D01*
X154252358Y-66012332D01*
X154308842Y-66081158D01*
X154326096Y-66095318D01*
X155875683Y-67644906D01*
X155873000Y-67658396D01*
X155873000Y-67801602D01*
X155900938Y-67942057D01*
X155955741Y-68074363D01*
X156035302Y-68193435D01*
X156136564Y-68294697D01*
X156255636Y-68374258D01*
X156387942Y-68429061D01*
X156528397Y-68456999D01*
X156671603Y-68456999D01*
X156812058Y-68429061D01*
X156944364Y-68374258D01*
X157063436Y-68294697D01*
X157164698Y-68193435D01*
X157244259Y-68074363D01*
X157299062Y-67942057D01*
X157327000Y-67801602D01*
X157327000Y-67658396D01*
X157299062Y-67517941D01*
X157244259Y-67385635D01*
X157220449Y-67350000D01*
X167220450Y-67350000D01*
X167223000Y-68095250D01*
X167354750Y-68227000D01*
X169627000Y-68227000D01*
X169627000Y-66954750D01*
X170873000Y-66954750D01*
X170873000Y-68227000D01*
X173145250Y-68227000D01*
X173277000Y-68095250D01*
X173279550Y-67350000D01*
X173269375Y-67246690D01*
X173239240Y-67147350D01*
X173190305Y-67055798D01*
X173124448Y-66975552D01*
X173044202Y-66909695D01*
X172952650Y-66860760D01*
X172853310Y-66830625D01*
X172750000Y-66820450D01*
X171004750Y-66823000D01*
X170873000Y-66954750D01*
X169627000Y-66954750D01*
X169495250Y-66823000D01*
X167750000Y-66820450D01*
X167646690Y-66830625D01*
X167547350Y-66860760D01*
X167455798Y-66909695D01*
X167375552Y-66975552D01*
X167309695Y-67055798D01*
X167260760Y-67147350D01*
X167230625Y-67246690D01*
X167220450Y-67350000D01*
X157220449Y-67350000D01*
X157164698Y-67266563D01*
X157063436Y-67165301D01*
X156944364Y-67085740D01*
X156812058Y-67030937D01*
X156671603Y-67002999D01*
X156528397Y-67002999D01*
X156514907Y-67005682D01*
X155082000Y-65572776D01*
X155082000Y-65178497D01*
X155085300Y-65183436D01*
X155186562Y-65284698D01*
X155305634Y-65364259D01*
X155437940Y-65419062D01*
X155578395Y-65447000D01*
X155721601Y-65447000D01*
X155862056Y-65419062D01*
X155994362Y-65364259D01*
X156113434Y-65284698D01*
X156214696Y-65183436D01*
X156294257Y-65064364D01*
X156349060Y-64932058D01*
X156376998Y-64791603D01*
X156376998Y-64648397D01*
X156349060Y-64507942D01*
X156294257Y-64375636D01*
X156214696Y-64256564D01*
X156113434Y-64155302D01*
X156101998Y-64147661D01*
X156101998Y-55439752D01*
X156113436Y-55432109D01*
X156214698Y-55330847D01*
X156294259Y-55211775D01*
X156349062Y-55079469D01*
X156377000Y-54939014D01*
X156377000Y-54795808D01*
X156364418Y-54732552D01*
X156366564Y-54734698D01*
X156485636Y-54814259D01*
X156617942Y-54869062D01*
X156758397Y-54897000D01*
X156873000Y-54897000D01*
X156873000Y-61157849D01*
X156853000Y-61258397D01*
X156853000Y-61401603D01*
X156873000Y-61502151D01*
X156873000Y-65500000D01*
X156875440Y-65524776D01*
X156894470Y-65620447D01*
X156901697Y-65644272D01*
X156913433Y-65666228D01*
X156967626Y-65747334D01*
X156983420Y-65766579D01*
X157002666Y-65782374D01*
X157083772Y-65836567D01*
X157105729Y-65848303D01*
X157129553Y-65855530D01*
X157225224Y-65874560D01*
X157250000Y-65877000D01*
X173822999Y-65877000D01*
X173823000Y-90822999D01*
X116177001Y-90822999D01*
X116177001Y-84605000D01*
X159921418Y-84605000D01*
X159921418Y-89605000D01*
X159927732Y-89669103D01*
X159946430Y-89730743D01*
X159976794Y-89787550D01*
X160017657Y-89837343D01*
X160067450Y-89878206D01*
X160124257Y-89908570D01*
X160185897Y-89927268D01*
X160250000Y-89933582D01*
X163250000Y-89933582D01*
X163314103Y-89927268D01*
X163375743Y-89908570D01*
X163432550Y-89878206D01*
X163482343Y-89837343D01*
X163523206Y-89787550D01*
X163553570Y-89730743D01*
X163572268Y-89669103D01*
X163578582Y-89605000D01*
X167870450Y-89605000D01*
X167880625Y-89708310D01*
X167910760Y-89807650D01*
X167959695Y-89899202D01*
X168025552Y-89979448D01*
X168105798Y-90045305D01*
X168197350Y-90094240D01*
X168296690Y-90124375D01*
X168400000Y-90134550D01*
X169145250Y-90132000D01*
X169277000Y-90000250D01*
X169277000Y-87728000D01*
X170523000Y-87728000D01*
X170523000Y-90000250D01*
X170654750Y-90132000D01*
X171400000Y-90134550D01*
X171503310Y-90124375D01*
X171602650Y-90094240D01*
X171694202Y-90045305D01*
X171774448Y-89979448D01*
X171840305Y-89899202D01*
X171889240Y-89807650D01*
X171919375Y-89708310D01*
X171929550Y-89605000D01*
X171927000Y-87859750D01*
X171795250Y-87728000D01*
X170523000Y-87728000D01*
X169277000Y-87728000D01*
X168004750Y-87728000D01*
X167873000Y-87859750D01*
X167870450Y-89605000D01*
X163578582Y-89605000D01*
X163578582Y-84605000D01*
X167870450Y-84605000D01*
X167873000Y-86350250D01*
X168004750Y-86482000D01*
X169277000Y-86482000D01*
X169277000Y-84209750D01*
X170523000Y-84209750D01*
X170523000Y-86482000D01*
X171795250Y-86482000D01*
X171927000Y-86350250D01*
X171929550Y-84605000D01*
X171919375Y-84501690D01*
X171889240Y-84402350D01*
X171840305Y-84310798D01*
X171774448Y-84230552D01*
X171694202Y-84164695D01*
X171602650Y-84115760D01*
X171503310Y-84085625D01*
X171400000Y-84075450D01*
X170654750Y-84078000D01*
X170523000Y-84209750D01*
X169277000Y-84209750D01*
X169145250Y-84078000D01*
X168400000Y-84075450D01*
X168296690Y-84085625D01*
X168197350Y-84115760D01*
X168105798Y-84164695D01*
X168025552Y-84230552D01*
X167959695Y-84310798D01*
X167910760Y-84402350D01*
X167880625Y-84501690D01*
X167870450Y-84605000D01*
X163578582Y-84605000D01*
X163572268Y-84540897D01*
X163553570Y-84479257D01*
X163523206Y-84422450D01*
X163482343Y-84372657D01*
X163432550Y-84331794D01*
X163375743Y-84301430D01*
X163314103Y-84282732D01*
X163250000Y-84276418D01*
X160250000Y-84276418D01*
X160185897Y-84282732D01*
X160124257Y-84301430D01*
X160067450Y-84331794D01*
X160017657Y-84372657D01*
X159976794Y-84422450D01*
X159946430Y-84479257D01*
X159927732Y-84540897D01*
X159921418Y-84605000D01*
X116177001Y-84605000D01*
X116177001Y-69978397D01*
X117023000Y-69978397D01*
X117023000Y-70121603D01*
X117050938Y-70262058D01*
X117105741Y-70394364D01*
X117185302Y-70513436D01*
X117286564Y-70614698D01*
X117405636Y-70694259D01*
X117537942Y-70749062D01*
X117678397Y-70777000D01*
X117821603Y-70777000D01*
X117962058Y-70749062D01*
X118094364Y-70694259D01*
X118213436Y-70614698D01*
X118296134Y-70532000D01*
X124603862Y-70532000D01*
X124686560Y-70614698D01*
X124805632Y-70694259D01*
X124937938Y-70749062D01*
X125078393Y-70777000D01*
X125221599Y-70777000D01*
X125362054Y-70749062D01*
X125494360Y-70694259D01*
X125613432Y-70614698D01*
X125714694Y-70513436D01*
X125794255Y-70394364D01*
X125849058Y-70262058D01*
X125876996Y-70121603D01*
X125876996Y-69978397D01*
X125849058Y-69837942D01*
X125794255Y-69705636D01*
X125714694Y-69586564D01*
X125613432Y-69485302D01*
X125494360Y-69405741D01*
X125362054Y-69350938D01*
X125221599Y-69323000D01*
X125078393Y-69323000D01*
X124937938Y-69350938D01*
X124805632Y-69405741D01*
X124686560Y-69485302D01*
X124585298Y-69586564D01*
X124557611Y-69628000D01*
X118342385Y-69628000D01*
X118314698Y-69586564D01*
X118213436Y-69485302D01*
X118094364Y-69405741D01*
X117962058Y-69350938D01*
X117821603Y-69323000D01*
X117678397Y-69323000D01*
X117537942Y-69350938D01*
X117405636Y-69405741D01*
X117286564Y-69485302D01*
X117185302Y-69586564D01*
X117105741Y-69705636D01*
X117050938Y-69837942D01*
X117023000Y-69978397D01*
X116177001Y-69978397D01*
X116177001Y-67627000D01*
X118579554Y-67627000D01*
X118615741Y-67714364D01*
X118695302Y-67833436D01*
X118796564Y-67934698D01*
X118915636Y-68014259D01*
X119047942Y-68069062D01*
X119188397Y-68097000D01*
X119331603Y-68097000D01*
X119472058Y-68069062D01*
X119604364Y-68014259D01*
X119723436Y-67934698D01*
X119824698Y-67833436D01*
X119828998Y-67827000D01*
X121202661Y-67827000D01*
X121210302Y-67838436D01*
X121311564Y-67939698D01*
X121430636Y-68019259D01*
X121562942Y-68074062D01*
X121703397Y-68102000D01*
X121846603Y-68102000D01*
X121987058Y-68074062D01*
X122119364Y-68019259D01*
X122238436Y-67939698D01*
X122339698Y-67838436D01*
X122419259Y-67719364D01*
X122457517Y-67627000D01*
X123750000Y-67627000D01*
X123774776Y-67624560D01*
X123870447Y-67605530D01*
X123894272Y-67598303D01*
X123916228Y-67586567D01*
X123997334Y-67532374D01*
X124016579Y-67516580D01*
X124032374Y-67497334D01*
X124086567Y-67416228D01*
X124098303Y-67394271D01*
X124105530Y-67370447D01*
X124124560Y-67274776D01*
X124127000Y-67250000D01*
X124127000Y-64012509D01*
X124138662Y-63953881D01*
X124164785Y-63914785D01*
X124203881Y-63888662D01*
X124262509Y-63877000D01*
X130237491Y-63877000D01*
X130296119Y-63888662D01*
X130335215Y-63914785D01*
X130361338Y-63953881D01*
X130373000Y-64012509D01*
X130373000Y-71237491D01*
X130361338Y-71296119D01*
X130335215Y-71335215D01*
X130296119Y-71361338D01*
X130237491Y-71373000D01*
X124000000Y-71373000D01*
X123975224Y-71375440D01*
X123879553Y-71394470D01*
X123855728Y-71401697D01*
X123833772Y-71413433D01*
X123752666Y-71467626D01*
X123733421Y-71483420D01*
X123717626Y-71502666D01*
X123663433Y-71583772D01*
X123651697Y-71605729D01*
X123644470Y-71629553D01*
X123625440Y-71725224D01*
X123623000Y-71750000D01*
X123623000Y-80750000D01*
X123625440Y-80774776D01*
X123644470Y-80870447D01*
X123651697Y-80894272D01*
X123663433Y-80916228D01*
X123717626Y-80997334D01*
X123733420Y-81016579D01*
X123752666Y-81032374D01*
X123833772Y-81086567D01*
X123855729Y-81098303D01*
X123879553Y-81105530D01*
X123975224Y-81124560D01*
X124000000Y-81127000D01*
X165500000Y-81127000D01*
X165524776Y-81124560D01*
X165620447Y-81105530D01*
X165644272Y-81098303D01*
X165666228Y-81086567D01*
X165747334Y-81032374D01*
X165766579Y-81016580D01*
X165782374Y-80997334D01*
X165836567Y-80916228D01*
X165848303Y-80894271D01*
X165855530Y-80870447D01*
X165874560Y-80774776D01*
X165877000Y-80750000D01*
X165877000Y-74347746D01*
X165874801Y-74324216D01*
X165857637Y-74233181D01*
X165850649Y-74209285D01*
X165840501Y-74189351D01*
X165791366Y-74110816D01*
X165777021Y-74092034D01*
X162917563Y-70994288D01*
X162897934Y-70976996D01*
X162814502Y-70917555D01*
X162792907Y-70905166D01*
X162766832Y-70896683D01*
X162666563Y-70875694D01*
X162640542Y-70873000D01*
X143762509Y-70873000D01*
X143703881Y-70861338D01*
X143664785Y-70835215D01*
X143638662Y-70796119D01*
X143627000Y-70737491D01*
X143627000Y-70350000D01*
X167220450Y-70350000D01*
X167230625Y-70453310D01*
X167260760Y-70552650D01*
X167309695Y-70644202D01*
X167375552Y-70724448D01*
X167455798Y-70790305D01*
X167547350Y-70839240D01*
X167646690Y-70869375D01*
X167750000Y-70879550D01*
X169495250Y-70877000D01*
X169627000Y-70745250D01*
X169627000Y-69473000D01*
X170873000Y-69473000D01*
X170873000Y-70745250D01*
X171004750Y-70877000D01*
X172750000Y-70879550D01*
X172853310Y-70869375D01*
X172952650Y-70839240D01*
X173044202Y-70790305D01*
X173124448Y-70724448D01*
X173190305Y-70644202D01*
X173239240Y-70552650D01*
X173269375Y-70453310D01*
X173279550Y-70350000D01*
X173277000Y-69604750D01*
X173145250Y-69473000D01*
X170873000Y-69473000D01*
X169627000Y-69473000D01*
X167354750Y-69473000D01*
X167223000Y-69604750D01*
X167220450Y-70350000D01*
X143627000Y-70350000D01*
X143627000Y-65538397D01*
X145253000Y-65538397D01*
X145253000Y-65681603D01*
X145280938Y-65822058D01*
X145335741Y-65954364D01*
X145415302Y-66073436D01*
X145516564Y-66174698D01*
X145635636Y-66254259D01*
X145767942Y-66309062D01*
X145908397Y-66337000D01*
X146051603Y-66337000D01*
X146192058Y-66309062D01*
X146324364Y-66254259D01*
X146443436Y-66174698D01*
X146544698Y-66073436D01*
X146624259Y-65954364D01*
X146679062Y-65822058D01*
X146707000Y-65681603D01*
X146707000Y-65538397D01*
X146679062Y-65397942D01*
X146624259Y-65265636D01*
X146544698Y-65146564D01*
X146443436Y-65045302D01*
X146432000Y-65037661D01*
X146432000Y-62561783D01*
X146465638Y-62584259D01*
X146597944Y-62639062D01*
X146738399Y-62667000D01*
X146881605Y-62667000D01*
X147022060Y-62639062D01*
X147154366Y-62584259D01*
X147273438Y-62504698D01*
X147374700Y-62403436D01*
X147454261Y-62284364D01*
X147509064Y-62152058D01*
X147537002Y-62011603D01*
X147537002Y-61868397D01*
X147509064Y-61727942D01*
X147454261Y-61595636D01*
X147374700Y-61476564D01*
X147273438Y-61375302D01*
X147262000Y-61367659D01*
X147262000Y-55642339D01*
X147273436Y-55634698D01*
X147374698Y-55533436D01*
X147454259Y-55414364D01*
X147509062Y-55282058D01*
X147537000Y-55141603D01*
X147537000Y-54998397D01*
X147509062Y-54857942D01*
X147454259Y-54725636D01*
X147374698Y-54606564D01*
X147284827Y-54516693D01*
X147318156Y-54466813D01*
X147372959Y-54334507D01*
X147400897Y-54194052D01*
X147400897Y-54050846D01*
X147372959Y-53910391D01*
X147318156Y-53778085D01*
X147238595Y-53659013D01*
X147137333Y-53557751D01*
X147018261Y-53478190D01*
X146885955Y-53423387D01*
X146745500Y-53395449D01*
X146602294Y-53395449D01*
X146461839Y-53423387D01*
X146329533Y-53478190D01*
X146210461Y-53557751D01*
X146109199Y-53659013D01*
X146029638Y-53778085D01*
X145974835Y-53910391D01*
X145946897Y-54050846D01*
X145946897Y-54194052D01*
X145949580Y-54207542D01*
X145676096Y-54481027D01*
X145658842Y-54495187D01*
X145602777Y-54563503D01*
X145602358Y-54564013D01*
X145560386Y-54642537D01*
X145534540Y-54727739D01*
X145525813Y-54816346D01*
X145528001Y-54838561D01*
X145528000Y-65037661D01*
X145516564Y-65045302D01*
X145415302Y-65146564D01*
X145335741Y-65265636D01*
X145280938Y-65397942D01*
X145253000Y-65538397D01*
X143627000Y-65538397D01*
X143627000Y-52177001D01*
X156873000Y-52177001D01*
X156873000Y-53443000D01*
G37*
X156873000Y-53443000D02*
X156758397Y-53443000D01*
X156617942Y-53470938D01*
X156485636Y-53525741D01*
X156366564Y-53605302D01*
X156265302Y-53706564D01*
X156185741Y-53825636D01*
X156130938Y-53957942D01*
X156103000Y-54098397D01*
X156103000Y-54241603D01*
X156115582Y-54304859D01*
X156113436Y-54302713D01*
X155994364Y-54223152D01*
X155862058Y-54168349D01*
X155721603Y-54140411D01*
X155578397Y-54140411D01*
X155437942Y-54168349D01*
X155305636Y-54223152D01*
X155186564Y-54302713D01*
X155085302Y-54403975D01*
X155005741Y-54523047D01*
X154950938Y-54655353D01*
X154923000Y-54795808D01*
X154923000Y-54939014D01*
X154950938Y-55079469D01*
X155005741Y-55211775D01*
X155085302Y-55330847D01*
X155186564Y-55432109D01*
X155197999Y-55439750D01*
X155197998Y-64147661D01*
X155186562Y-64155302D01*
X155085300Y-64256564D01*
X155082000Y-64261503D01*
X155082000Y-58822202D01*
X155084187Y-58799999D01*
X155077523Y-58732343D01*
X155075460Y-58711393D01*
X155049614Y-58626190D01*
X155007643Y-58547667D01*
X154951159Y-58478841D01*
X154933912Y-58464687D01*
X152224317Y-55755093D01*
X152227000Y-55741603D01*
X152227000Y-55598397D01*
X152199062Y-55457942D01*
X152144259Y-55325636D01*
X152064698Y-55206564D01*
X151963436Y-55105302D01*
X151844364Y-55025741D01*
X151712058Y-54970938D01*
X151571603Y-54943000D01*
X151428397Y-54943000D01*
X151287942Y-54970938D01*
X151155636Y-55025741D01*
X151036564Y-55105302D01*
X150935302Y-55206564D01*
X150855741Y-55325636D01*
X150800938Y-55457942D01*
X150773000Y-55598397D01*
X150773000Y-55741603D01*
X150800938Y-55882058D01*
X150855741Y-56014364D01*
X150935302Y-56133436D01*
X151036564Y-56234698D01*
X151155636Y-56314259D01*
X151287942Y-56369062D01*
X151428397Y-56397000D01*
X151571603Y-56397000D01*
X151585093Y-56394317D01*
X154178000Y-58987225D01*
X154178001Y-65737784D01*
X154175813Y-65759999D01*
X154184540Y-65848606D01*
X154210386Y-65933808D01*
X154252358Y-66012332D01*
X154308842Y-66081158D01*
X154326096Y-66095318D01*
X155875683Y-67644906D01*
X155873000Y-67658396D01*
X155873000Y-67801602D01*
X155900938Y-67942057D01*
X155955741Y-68074363D01*
X156035302Y-68193435D01*
X156136564Y-68294697D01*
X156255636Y-68374258D01*
X156387942Y-68429061D01*
X156528397Y-68456999D01*
X156671603Y-68456999D01*
X156812058Y-68429061D01*
X156944364Y-68374258D01*
X157063436Y-68294697D01*
X157164698Y-68193435D01*
X157244259Y-68074363D01*
X157299062Y-67942057D01*
X157327000Y-67801602D01*
X157327000Y-67658396D01*
X157299062Y-67517941D01*
X157244259Y-67385635D01*
X157220449Y-67350000D01*
X167220450Y-67350000D01*
X167223000Y-68095250D01*
X167354750Y-68227000D01*
X169627000Y-68227000D01*
X169627000Y-66954750D01*
X170873000Y-66954750D01*
X170873000Y-68227000D01*
X173145250Y-68227000D01*
X173277000Y-68095250D01*
X173279550Y-67350000D01*
X173269375Y-67246690D01*
X173239240Y-67147350D01*
X173190305Y-67055798D01*
X173124448Y-66975552D01*
X173044202Y-66909695D01*
X172952650Y-66860760D01*
X172853310Y-66830625D01*
X172750000Y-66820450D01*
X171004750Y-66823000D01*
X170873000Y-66954750D01*
X169627000Y-66954750D01*
X169495250Y-66823000D01*
X167750000Y-66820450D01*
X167646690Y-66830625D01*
X167547350Y-66860760D01*
X167455798Y-66909695D01*
X167375552Y-66975552D01*
X167309695Y-67055798D01*
X167260760Y-67147350D01*
X167230625Y-67246690D01*
X167220450Y-67350000D01*
X157220449Y-67350000D01*
X157164698Y-67266563D01*
X157063436Y-67165301D01*
X156944364Y-67085740D01*
X156812058Y-67030937D01*
X156671603Y-67002999D01*
X156528397Y-67002999D01*
X156514907Y-67005682D01*
X155082000Y-65572776D01*
X155082000Y-65178497D01*
X155085300Y-65183436D01*
X155186562Y-65284698D01*
X155305634Y-65364259D01*
X155437940Y-65419062D01*
X155578395Y-65447000D01*
X155721601Y-65447000D01*
X155862056Y-65419062D01*
X155994362Y-65364259D01*
X156113434Y-65284698D01*
X156214696Y-65183436D01*
X156294257Y-65064364D01*
X156349060Y-64932058D01*
X156376998Y-64791603D01*
X156376998Y-64648397D01*
X156349060Y-64507942D01*
X156294257Y-64375636D01*
X156214696Y-64256564D01*
X156113434Y-64155302D01*
X156101998Y-64147661D01*
X156101998Y-55439752D01*
X156113436Y-55432109D01*
X156214698Y-55330847D01*
X156294259Y-55211775D01*
X156349062Y-55079469D01*
X156377000Y-54939014D01*
X156377000Y-54795808D01*
X156364418Y-54732552D01*
X156366564Y-54734698D01*
X156485636Y-54814259D01*
X156617942Y-54869062D01*
X156758397Y-54897000D01*
X156873000Y-54897000D01*
X156873000Y-61157849D01*
X156853000Y-61258397D01*
X156853000Y-61401603D01*
X156873000Y-61502151D01*
X156873000Y-65500000D01*
X156875440Y-65524776D01*
X156894470Y-65620447D01*
X156901697Y-65644272D01*
X156913433Y-65666228D01*
X156967626Y-65747334D01*
X156983420Y-65766579D01*
X157002666Y-65782374D01*
X157083772Y-65836567D01*
X157105729Y-65848303D01*
X157129553Y-65855530D01*
X157225224Y-65874560D01*
X157250000Y-65877000D01*
X173822999Y-65877000D01*
X173823000Y-90822999D01*
X116177001Y-90822999D01*
X116177001Y-84605000D01*
X159921418Y-84605000D01*
X159921418Y-89605000D01*
X159927732Y-89669103D01*
X159946430Y-89730743D01*
X159976794Y-89787550D01*
X160017657Y-89837343D01*
X160067450Y-89878206D01*
X160124257Y-89908570D01*
X160185897Y-89927268D01*
X160250000Y-89933582D01*
X163250000Y-89933582D01*
X163314103Y-89927268D01*
X163375743Y-89908570D01*
X163432550Y-89878206D01*
X163482343Y-89837343D01*
X163523206Y-89787550D01*
X163553570Y-89730743D01*
X163572268Y-89669103D01*
X163578582Y-89605000D01*
X167870450Y-89605000D01*
X167880625Y-89708310D01*
X167910760Y-89807650D01*
X167959695Y-89899202D01*
X168025552Y-89979448D01*
X168105798Y-90045305D01*
X168197350Y-90094240D01*
X168296690Y-90124375D01*
X168400000Y-90134550D01*
X169145250Y-90132000D01*
X169277000Y-90000250D01*
X169277000Y-87728000D01*
X170523000Y-87728000D01*
X170523000Y-90000250D01*
X170654750Y-90132000D01*
X171400000Y-90134550D01*
X171503310Y-90124375D01*
X171602650Y-90094240D01*
X171694202Y-90045305D01*
X171774448Y-89979448D01*
X171840305Y-89899202D01*
X171889240Y-89807650D01*
X171919375Y-89708310D01*
X171929550Y-89605000D01*
X171927000Y-87859750D01*
X171795250Y-87728000D01*
X170523000Y-87728000D01*
X169277000Y-87728000D01*
X168004750Y-87728000D01*
X167873000Y-87859750D01*
X167870450Y-89605000D01*
X163578582Y-89605000D01*
X163578582Y-84605000D01*
X167870450Y-84605000D01*
X167873000Y-86350250D01*
X168004750Y-86482000D01*
X169277000Y-86482000D01*
X169277000Y-84209750D01*
X170523000Y-84209750D01*
X170523000Y-86482000D01*
X171795250Y-86482000D01*
X171927000Y-86350250D01*
X171929550Y-84605000D01*
X171919375Y-84501690D01*
X171889240Y-84402350D01*
X171840305Y-84310798D01*
X171774448Y-84230552D01*
X171694202Y-84164695D01*
X171602650Y-84115760D01*
X171503310Y-84085625D01*
X171400000Y-84075450D01*
X170654750Y-84078000D01*
X170523000Y-84209750D01*
X169277000Y-84209750D01*
X169145250Y-84078000D01*
X168400000Y-84075450D01*
X168296690Y-84085625D01*
X168197350Y-84115760D01*
X168105798Y-84164695D01*
X168025552Y-84230552D01*
X167959695Y-84310798D01*
X167910760Y-84402350D01*
X167880625Y-84501690D01*
X167870450Y-84605000D01*
X163578582Y-84605000D01*
X163572268Y-84540897D01*
X163553570Y-84479257D01*
X163523206Y-84422450D01*
X163482343Y-84372657D01*
X163432550Y-84331794D01*
X163375743Y-84301430D01*
X163314103Y-84282732D01*
X163250000Y-84276418D01*
X160250000Y-84276418D01*
X160185897Y-84282732D01*
X160124257Y-84301430D01*
X160067450Y-84331794D01*
X160017657Y-84372657D01*
X159976794Y-84422450D01*
X159946430Y-84479257D01*
X159927732Y-84540897D01*
X159921418Y-84605000D01*
X116177001Y-84605000D01*
X116177001Y-69978397D01*
X117023000Y-69978397D01*
X117023000Y-70121603D01*
X117050938Y-70262058D01*
X117105741Y-70394364D01*
X117185302Y-70513436D01*
X117286564Y-70614698D01*
X117405636Y-70694259D01*
X117537942Y-70749062D01*
X117678397Y-70777000D01*
X117821603Y-70777000D01*
X117962058Y-70749062D01*
X118094364Y-70694259D01*
X118213436Y-70614698D01*
X118296134Y-70532000D01*
X124603862Y-70532000D01*
X124686560Y-70614698D01*
X124805632Y-70694259D01*
X124937938Y-70749062D01*
X125078393Y-70777000D01*
X125221599Y-70777000D01*
X125362054Y-70749062D01*
X125494360Y-70694259D01*
X125613432Y-70614698D01*
X125714694Y-70513436D01*
X125794255Y-70394364D01*
X125849058Y-70262058D01*
X125876996Y-70121603D01*
X125876996Y-69978397D01*
X125849058Y-69837942D01*
X125794255Y-69705636D01*
X125714694Y-69586564D01*
X125613432Y-69485302D01*
X125494360Y-69405741D01*
X125362054Y-69350938D01*
X125221599Y-69323000D01*
X125078393Y-69323000D01*
X124937938Y-69350938D01*
X124805632Y-69405741D01*
X124686560Y-69485302D01*
X124585298Y-69586564D01*
X124557611Y-69628000D01*
X118342385Y-69628000D01*
X118314698Y-69586564D01*
X118213436Y-69485302D01*
X118094364Y-69405741D01*
X117962058Y-69350938D01*
X117821603Y-69323000D01*
X117678397Y-69323000D01*
X117537942Y-69350938D01*
X117405636Y-69405741D01*
X117286564Y-69485302D01*
X117185302Y-69586564D01*
X117105741Y-69705636D01*
X117050938Y-69837942D01*
X117023000Y-69978397D01*
X116177001Y-69978397D01*
X116177001Y-67627000D01*
X118579554Y-67627000D01*
X118615741Y-67714364D01*
X118695302Y-67833436D01*
X118796564Y-67934698D01*
X118915636Y-68014259D01*
X119047942Y-68069062D01*
X119188397Y-68097000D01*
X119331603Y-68097000D01*
X119472058Y-68069062D01*
X119604364Y-68014259D01*
X119723436Y-67934698D01*
X119824698Y-67833436D01*
X119828998Y-67827000D01*
X121202661Y-67827000D01*
X121210302Y-67838436D01*
X121311564Y-67939698D01*
X121430636Y-68019259D01*
X121562942Y-68074062D01*
X121703397Y-68102000D01*
X121846603Y-68102000D01*
X121987058Y-68074062D01*
X122119364Y-68019259D01*
X122238436Y-67939698D01*
X122339698Y-67838436D01*
X122419259Y-67719364D01*
X122457517Y-67627000D01*
X123750000Y-67627000D01*
X123774776Y-67624560D01*
X123870447Y-67605530D01*
X123894272Y-67598303D01*
X123916228Y-67586567D01*
X123997334Y-67532374D01*
X124016579Y-67516580D01*
X124032374Y-67497334D01*
X124086567Y-67416228D01*
X124098303Y-67394271D01*
X124105530Y-67370447D01*
X124124560Y-67274776D01*
X124127000Y-67250000D01*
X124127000Y-64012509D01*
X124138662Y-63953881D01*
X124164785Y-63914785D01*
X124203881Y-63888662D01*
X124262509Y-63877000D01*
X130237491Y-63877000D01*
X130296119Y-63888662D01*
X130335215Y-63914785D01*
X130361338Y-63953881D01*
X130373000Y-64012509D01*
X130373000Y-71237491D01*
X130361338Y-71296119D01*
X130335215Y-71335215D01*
X130296119Y-71361338D01*
X130237491Y-71373000D01*
X124000000Y-71373000D01*
X123975224Y-71375440D01*
X123879553Y-71394470D01*
X123855728Y-71401697D01*
X123833772Y-71413433D01*
X123752666Y-71467626D01*
X123733421Y-71483420D01*
X123717626Y-71502666D01*
X123663433Y-71583772D01*
X123651697Y-71605729D01*
X123644470Y-71629553D01*
X123625440Y-71725224D01*
X123623000Y-71750000D01*
X123623000Y-80750000D01*
X123625440Y-80774776D01*
X123644470Y-80870447D01*
X123651697Y-80894272D01*
X123663433Y-80916228D01*
X123717626Y-80997334D01*
X123733420Y-81016579D01*
X123752666Y-81032374D01*
X123833772Y-81086567D01*
X123855729Y-81098303D01*
X123879553Y-81105530D01*
X123975224Y-81124560D01*
X124000000Y-81127000D01*
X165500000Y-81127000D01*
X165524776Y-81124560D01*
X165620447Y-81105530D01*
X165644272Y-81098303D01*
X165666228Y-81086567D01*
X165747334Y-81032374D01*
X165766579Y-81016580D01*
X165782374Y-80997334D01*
X165836567Y-80916228D01*
X165848303Y-80894271D01*
X165855530Y-80870447D01*
X165874560Y-80774776D01*
X165877000Y-80750000D01*
X165877000Y-74347746D01*
X165874801Y-74324216D01*
X165857637Y-74233181D01*
X165850649Y-74209285D01*
X165840501Y-74189351D01*
X165791366Y-74110816D01*
X165777021Y-74092034D01*
X162917563Y-70994288D01*
X162897934Y-70976996D01*
X162814502Y-70917555D01*
X162792907Y-70905166D01*
X162766832Y-70896683D01*
X162666563Y-70875694D01*
X162640542Y-70873000D01*
X143762509Y-70873000D01*
X143703881Y-70861338D01*
X143664785Y-70835215D01*
X143638662Y-70796119D01*
X143627000Y-70737491D01*
X143627000Y-70350000D01*
X167220450Y-70350000D01*
X167230625Y-70453310D01*
X167260760Y-70552650D01*
X167309695Y-70644202D01*
X167375552Y-70724448D01*
X167455798Y-70790305D01*
X167547350Y-70839240D01*
X167646690Y-70869375D01*
X167750000Y-70879550D01*
X169495250Y-70877000D01*
X169627000Y-70745250D01*
X169627000Y-69473000D01*
X170873000Y-69473000D01*
X170873000Y-70745250D01*
X171004750Y-70877000D01*
X172750000Y-70879550D01*
X172853310Y-70869375D01*
X172952650Y-70839240D01*
X173044202Y-70790305D01*
X173124448Y-70724448D01*
X173190305Y-70644202D01*
X173239240Y-70552650D01*
X173269375Y-70453310D01*
X173279550Y-70350000D01*
X173277000Y-69604750D01*
X173145250Y-69473000D01*
X170873000Y-69473000D01*
X169627000Y-69473000D01*
X167354750Y-69473000D01*
X167223000Y-69604750D01*
X167220450Y-70350000D01*
X143627000Y-70350000D01*
X143627000Y-65538397D01*
X145253000Y-65538397D01*
X145253000Y-65681603D01*
X145280938Y-65822058D01*
X145335741Y-65954364D01*
X145415302Y-66073436D01*
X145516564Y-66174698D01*
X145635636Y-66254259D01*
X145767942Y-66309062D01*
X145908397Y-66337000D01*
X146051603Y-66337000D01*
X146192058Y-66309062D01*
X146324364Y-66254259D01*
X146443436Y-66174698D01*
X146544698Y-66073436D01*
X146624259Y-65954364D01*
X146679062Y-65822058D01*
X146707000Y-65681603D01*
X146707000Y-65538397D01*
X146679062Y-65397942D01*
X146624259Y-65265636D01*
X146544698Y-65146564D01*
X146443436Y-65045302D01*
X146432000Y-65037661D01*
X146432000Y-62561783D01*
X146465638Y-62584259D01*
X146597944Y-62639062D01*
X146738399Y-62667000D01*
X146881605Y-62667000D01*
X147022060Y-62639062D01*
X147154366Y-62584259D01*
X147273438Y-62504698D01*
X147374700Y-62403436D01*
X147454261Y-62284364D01*
X147509064Y-62152058D01*
X147537002Y-62011603D01*
X147537002Y-61868397D01*
X147509064Y-61727942D01*
X147454261Y-61595636D01*
X147374700Y-61476564D01*
X147273438Y-61375302D01*
X147262000Y-61367659D01*
X147262000Y-55642339D01*
X147273436Y-55634698D01*
X147374698Y-55533436D01*
X147454259Y-55414364D01*
X147509062Y-55282058D01*
X147537000Y-55141603D01*
X147537000Y-54998397D01*
X147509062Y-54857942D01*
X147454259Y-54725636D01*
X147374698Y-54606564D01*
X147284827Y-54516693D01*
X147318156Y-54466813D01*
X147372959Y-54334507D01*
X147400897Y-54194052D01*
X147400897Y-54050846D01*
X147372959Y-53910391D01*
X147318156Y-53778085D01*
X147238595Y-53659013D01*
X147137333Y-53557751D01*
X147018261Y-53478190D01*
X146885955Y-53423387D01*
X146745500Y-53395449D01*
X146602294Y-53395449D01*
X146461839Y-53423387D01*
X146329533Y-53478190D01*
X146210461Y-53557751D01*
X146109199Y-53659013D01*
X146029638Y-53778085D01*
X145974835Y-53910391D01*
X145946897Y-54050846D01*
X145946897Y-54194052D01*
X145949580Y-54207542D01*
X145676096Y-54481027D01*
X145658842Y-54495187D01*
X145602777Y-54563503D01*
X145602358Y-54564013D01*
X145560386Y-54642537D01*
X145534540Y-54727739D01*
X145525813Y-54816346D01*
X145528001Y-54838561D01*
X145528000Y-65037661D01*
X145516564Y-65045302D01*
X145415302Y-65146564D01*
X145335741Y-65265636D01*
X145280938Y-65397942D01*
X145253000Y-65538397D01*
X143627000Y-65538397D01*
X143627000Y-52177001D01*
X156873000Y-52177001D01*
X156873000Y-53443000D01*
G36*
X150796119Y-71388662D02*
G01*
X150835215Y-71414785D01*
X150861338Y-71453881D01*
X150873000Y-71512509D01*
X150873000Y-80487491D01*
X150861338Y-80546119D01*
X150835215Y-80585215D01*
X150796119Y-80611338D01*
X150737491Y-80623000D01*
X140012509Y-80623000D01*
X139953881Y-80611338D01*
X139914785Y-80585215D01*
X139888662Y-80546119D01*
X139877000Y-80487491D01*
X139877000Y-71512509D01*
X139888662Y-71453881D01*
X139914785Y-71414785D01*
X139953881Y-71388662D01*
X140012509Y-71377000D01*
X150737491Y-71377000D01*
X150796119Y-71388662D01*
G37*
X150796119Y-71388662D02*
X150835215Y-71414785D01*
X150861338Y-71453881D01*
X150873000Y-71512509D01*
X150873000Y-80487491D01*
X150861338Y-80546119D01*
X150835215Y-80585215D01*
X150796119Y-80611338D01*
X150737491Y-80623000D01*
X140012509Y-80623000D01*
X139953881Y-80611338D01*
X139914785Y-80585215D01*
X139888662Y-80546119D01*
X139877000Y-80487491D01*
X139877000Y-71512509D01*
X139888662Y-71453881D01*
X139914785Y-71414785D01*
X139953881Y-71388662D01*
X140012509Y-71377000D01*
X150737491Y-71377000D01*
X150796119Y-71388662D01*
G36*
X162438772Y-71389849D02*
G01*
X162489840Y-71426233D01*
X165332330Y-74505596D01*
X165362472Y-74553773D01*
X165373000Y-74609613D01*
X165373000Y-80487491D01*
X165361338Y-80546119D01*
X165335215Y-80585215D01*
X165296119Y-80611338D01*
X165237491Y-80623000D01*
X151512509Y-80623000D01*
X151453881Y-80611338D01*
X151414785Y-80585215D01*
X151388662Y-80546119D01*
X151377000Y-80487491D01*
X151377000Y-71512509D01*
X151388662Y-71453881D01*
X151414785Y-71414785D01*
X151453881Y-71388662D01*
X151512509Y-71377000D01*
X162377391Y-71377000D01*
X162438772Y-71389849D01*
G37*
X162438772Y-71389849D02*
X162489840Y-71426233D01*
X165332330Y-74505596D01*
X165362472Y-74553773D01*
X165373000Y-74609613D01*
X165373000Y-80487491D01*
X165361338Y-80546119D01*
X165335215Y-80585215D01*
X165296119Y-80611338D01*
X165237491Y-80623000D01*
X151512509Y-80623000D01*
X151453881Y-80611338D01*
X151414785Y-80585215D01*
X151388662Y-80546119D01*
X151377000Y-80487491D01*
X151377000Y-71512509D01*
X151388662Y-71453881D01*
X151414785Y-71414785D01*
X151453881Y-71388662D01*
X151512509Y-71377000D01*
X162377391Y-71377000D01*
X162438772Y-71389849D01*
M02*
